<svg id="Art" xmlns="http://www.w3.org/2000/svg" xmlns:xlink="http://www.w3.org/1999/xlink" viewBox="0 0 1570.78271 796.92383">
  <defs>
    <linearGradient id="linear-gradient" x1="573.42847" y1="751.84082" x2="573.42847" y2="636.27058" gradientUnits="userSpaceOnUse">
      <stop offset="0.7" stop-color="#0f0a25"/>
      <stop offset="0.75391" stop-color="#130c2e"/>
      <stop offset="0.8418" stop-color="#1d1346"/>
      <stop offset="0.95212" stop-color="#2d1e6e"/>
      <stop offset="1" stop-color="#352381"/>
    </linearGradient>
    <linearGradient id="linear-gradient-2" x1="997.354" y1="751.84082" x2="997.354" y2="636.27058" xlink:href="#linear-gradient"/>
    <radialGradient id="radial-gradient" cx="785.39136" cy="638.7571" r="751.1721" gradientTransform="translate(0 159.68927) scale(1 0.75)" gradientUnits="userSpaceOnUse">
      <stop offset="0" stop-color="#6a45ff"/>
      <stop offset="0.14697" stop-color="#5839d4"/>
      <stop offset="0.40099" stop-color="#352381"/>
      <stop offset="0.82261" stop-color="#0f0a25"/>
    </radialGradient>
    <radialGradient id="radial-gradient-2" cx="784.21175" cy="638.7571" r="529.01128" xlink:href="#radial-gradient"/>
    <radialGradient id="radial-gradient-3" cx="784.21175" cy="638.7571" r="527.34609" xlink:href="#radial-gradient"/>
    <radialGradient id="radial-gradient-4" cx="785.39136" cy="638.19135" r="311.78806" gradientUnits="userSpaceOnUse">
      <stop offset="0.10082" stop-color="#a691ff"/>
      <stop offset="0.26256" stop-color="#9a82ff" stop-opacity="0.80283"/>
      <stop offset="0.62883" stop-color="#8162ff" stop-opacity="0.37535"/>
      <stop offset="0.88223" stop-color="#704dff" stop-opacity="0.10527"/>
      <stop offset="1" stop-color="#6a45ff" stop-opacity="0"/>
    </radialGradient>
    <radialGradient id="radial-gradient-5" cx="785.39136" cy="651.39366" r="202.07768" gradientUnits="userSpaceOnUse">
      <stop offset="0.10082" stop-color="#fff"/>
      <stop offset="0.26256" stop-color="#e2daff" stop-opacity="0.80283"/>
      <stop offset="0.62883" stop-color="#a28bff" stop-opacity="0.37535"/>
      <stop offset="0.88223" stop-color="#7a59ff" stop-opacity="0.10527"/>
      <stop offset="1" stop-color="#6a45ff" stop-opacity="0"/>
    </radialGradient>
    <linearGradient id="linear-gradient-3" x1="550.60889" y1="95.97266" x2="1020.1792" y2="95.97266" gradientUnits="userSpaceOnUse">
      <stop offset="0.1" stop-color="#352381"/>
      <stop offset="0.29718" stop-color="#402a9c"/>
      <stop offset="0.71805" stop-color="#5d3de0"/>
      <stop offset="0.89918" stop-color="#6a45ff"/>
    </linearGradient>
    <linearGradient id="linear-gradient-4" x1="483.60767" y1="563.49805" x2="483.60767" y2="358.67236" gradientUnits="userSpaceOnUse">
      <stop offset="0.1" stop-color="#6a45ff"/>
      <stop offset="0.27708" stop-color="#7f60ff"/>
      <stop offset="0.65479" stop-color="#b5a4ff"/>
      <stop offset="0.89918" stop-color="#dbd3ff"/>
    </linearGradient>
    <linearGradient id="linear-gradient-5" x1="627.92432" y1="259.16162" x2="1053.42627" y2="259.16162" gradientUnits="userSpaceOnUse">
      <stop offset="0.1" stop-color="#6a45ff"/>
      <stop offset="0.41083" stop-color="#7f60ff"/>
      <stop offset="0.89918" stop-color="#a691ff"/>
    </linearGradient>
    <linearGradient id="linear-gradient-6" x1="927.73975" y1="262.2063" x2="1293.22217" y2="262.2063" gradientUnits="userSpaceOnUse">
      <stop offset="0.1" stop-color="#5034c2"/>
      <stop offset="0.35919" stop-color="#694fd4"/>
      <stop offset="0.89918" stop-color="#a691ff"/>
    </linearGradient>
    <linearGradient id="linear-gradient-7" x1="328.32666" y1="234.0332" x2="608.87012" y2="234.0332" xlink:href="#linear-gradient-6"/>
    <linearGradient id="linear-gradient-8" x1="363.54956" y1="630.3877" x2="363.54956" y2="421.39551" xlink:href="#linear-gradient-6"/>
    <linearGradient id="linear-gradient-9" x1="655.30835" y1="634.53223" x2="655.30835" y2="572.36816" gradientUnits="userSpaceOnUse">
      <stop offset="0.1" stop-color="#a691ff" stop-opacity="0"/>
      <stop offset="0.13133" stop-color="#ad99ff" stop-opacity="0.0746"/>
      <stop offset="0.24106" stop-color="#c2b4ff" stop-opacity="0.31631"/>
      <stop offset="0.34988" stop-color="#d5cbff" stop-opacity="0.52486"/>
      <stop offset="0.45521" stop-color="#e4ddff" stop-opacity="0.69541"/>
      <stop offset="0.55633" stop-color="#f0ecff" stop-opacity="0.82806"/>
      <stop offset="0.65215" stop-color="#f8f7ff" stop-opacity="0.92296"/>
      <stop offset="0.74044" stop-color="#fdfdff" stop-opacity="0.98024"/>
      <stop offset="0.8142" stop-color="#fff"/>
    </linearGradient>
    <linearGradient id="linear-gradient-10" x1="655.69531" y1="651.35547" x2="655.69531" y2="490.26367" xlink:href="#linear-gradient-9"/>
    <linearGradient id="linear-gradient-11" x1="785.39111" y1="489.41699" x2="961.84131" y2="489.41699" gradientUnits="userSpaceOnUse">
      <stop offset="0.1" stop-color="#6a45ff"/>
      <stop offset="0.23891" stop-color="#7f60ff"/>
      <stop offset="0.53768" stop-color="#b6a4ff"/>
      <stop offset="0.89918" stop-color="#fff"/>
    </linearGradient>
    <linearGradient id="linear-gradient-12" x1="1375.61719" y1="517.39844" x2="1375.61719" y2="230.87549" gradientUnits="userSpaceOnUse">
      <stop offset="0.10082" stop-color="#6a45ff"/>
      <stop offset="0.28195" stop-color="#5d3de0"/>
      <stop offset="0.70282" stop-color="#402a9c"/>
      <stop offset="0.9" stop-color="#352381"/>
    </linearGradient>
    <linearGradient id="linear-gradient-13" x1="892.65869" y1="455.51196" x2="1044.78271" y2="455.51196" xlink:href="#linear-gradient-11"/>
    <linearGradient id="linear-gradient-14" x1="785.39111" y1="359.48633" x2="1108.01904" y2="359.48633" gradientUnits="userSpaceOnUse">
      <stop offset="0.1" stop-color="#352381"/>
      <stop offset="0.24603" stop-color="#4e3e94"/>
      <stop offset="0.56004" stop-color="#8f82c5"/>
      <stop offset="0.89918" stop-color="#dbd3ff"/>
    </linearGradient>
    <linearGradient id="linear-gradient-15" x1="416.53955" y1="697.3125" x2="785.39111" y2="697.3125" xlink:href="#linear-gradient-12"/>
    <linearGradient id="linear-gradient-16" x1="886.71143" y1="632.21094" x2="1192.36865" y2="632.21094" gradientUnits="userSpaceOnUse">
      <stop offset="0.10082" stop-color="#a691ff"/>
      <stop offset="0.64081" stop-color="#694fd4"/>
      <stop offset="0.9" stop-color="#5034c2"/>
    </linearGradient>
    <radialGradient id="radial-gradient-6" cx="784.87683" cy="567.26078" r="337.34416" gradientUnits="userSpaceOnUse">
      <stop offset="0.1" stop-color="#6a45ff"/>
      <stop offset="0.10176" stop-color="#6a45fe"/>
      <stop offset="0.19524" stop-color="#5537cc"/>
      <stop offset="0.29124" stop-color="#422ba0"/>
      <stop offset="0.39181" stop-color="#32217a"/>
      <stop offset="0.49574" stop-color="#26195b"/>
      <stop offset="0.60409" stop-color="#1c1243"/>
      <stop offset="0.71878" stop-color="#150e32"/>
      <stop offset="0.84407" stop-color="#100b28"/>
      <stop offset="1" stop-color="#0f0a25"/>
    </radialGradient>
    <linearGradient id="linear-gradient-17" x1="785.39136" y1="580.2041" x2="785.39136" y2="206.41943" gradientUnits="userSpaceOnUse">
      <stop offset="0" stop-color="#fff"/>
      <stop offset="0.26331" stop-color="#e1daff"/>
      <stop offset="0.58558" stop-color="#c1b2ff"/>
      <stop offset="0.84248" stop-color="#ad9aff"/>
      <stop offset="1" stop-color="#a691ff"/>
    </linearGradient>
  </defs>
  <rect id="BG" x="386.92944" y="-386.92944" width="796.92383" height="1570.78271" transform="translate(1183.85327 -386.92944) rotate(90)" fill="#0f0a25"/>
  <g id="Gravity">
    <path d="M457.28906,751.84082l-3.73633-3.32227c60.61475-68.17285,122.47022-94.7207,163.6875-104.9873,44.79737-11.15723,74.8086-6.19043,76.064-5.97363l-.84961,4.92773a130.26876,130.26876,0,0,0-20.519-1.17871,231.7422,231.7422,0,0,0-53.7627,7.14551C577.71191,658.57715,516.95557,684.73438,457.28906,751.84082Z" fill="url(#linear-gradient)"/>
    <path d="M1113.49365,751.84082c-59.667-67.10644-120.42285-93.26367-160.88476-103.38867a231.7361,231.7361,0,0,0-53.7627-7.14551,131.39052,131.39052,0,0,0-20.51855,1.17871l-.84961-4.92773c1.25586-.2168,31.26758-5.1836,76.06445,5.97363,41.2168,10.2666,103.07227,36.81445,163.6875,104.9873Z" fill="url(#linear-gradient-2)"/>
    <g>
      <path d="M959.49951,575.43945c-45.26172,28.606-82.90515,52.37305-133.79541,60.65558,21.34442-8.72528,48.39813-26.29022,84.77393-60.86456,4.76465-4.5293,10.58008-10.24609,17.31445-16.86524,77.57031-76.24609,283.62305-278.78222,561.32422-321.14013l-.75391-4.94239C1209.064,274.88428,1002.17236,478.24316,924.2876,554.7998c-6.71875,6.60352-12.52051,12.30567-17.25489,16.80567-49.93725,47.46515-81.64978,62.22974-105.1,66.27557,34.49542-24.25543,80.48706-114.01977,125.18005-201.25995,9.5293-18.60156,18.53125-36.17089,27.252-52.74707,55.28418-105.07959,122.84375-183.13183,169.78515-230.10595,50.87989-50.91651,89.17481-77.31006,89.55567-77.57032l-2.82325-4.12695c-.38378.2627-38.97949,26.85254-90.168,78.061-47.21485,47.23437-115.16993,125.72509-170.7754,231.41406-8.73339,16.6001-17.74023,34.18164-27.27636,52.79492-45.5885,88.98755-102.03882,199.166-134.77149,204.67487V10h-5V639.01569c-32.7323-5.509-89.18353-115.68836-134.77246-204.67585-9.53564-18.61328-18.54248-36.19433-27.27588-52.79394-55.605-105.689-123.55957-184.17969-170.7749-231.41406-51.1875-51.2085-89.7832-77.79834-90.167-78.061l-2.82324,4.12695c.38037.25977,38.59131,26.58545,89.4541,77.46875C493.50244,200.65674,561.105,278.73926,616.418,383.874c8.72021,16.5752,17.72119,34.14453,27.25049,52.74512,44.69433,87.24121,90.68628,177.00647,125.18139,201.262-23.45013-4.04571-55.16241-18.8103-105.10034-66.27569-4.73486-4.5-10.5376-10.2041-17.25635-16.80762C568.60742,478.24219,361.71582,274.88379,82.41943,232.28271l-.7539,4.94239c277.69824,42.35791,483.752,244.89209,561.32275,321.13818,6.73486,6.62012,12.55127,12.33692,17.3169,16.86719,36.37536,34.5744,63.429,52.1394,84.77337,60.86462-50.89038-8.28247-88.53351-32.04956-133.79535-60.65564C514.78516,514.45117,382.626,430.92578,13.08984,430.92578v5c368.08838,0,499.54,83.0791,595.52246,143.74024,56.38379,35.63519,101.08716,63.85565,174.03565,64.55108.08081.00189.16254.00476.24316.00647v1.91413h5v-1.91413c.08063-.00171.16248-.00458.24329-.00647,72.94842-.69543,117.65179-28.91589,174.036-64.55108,95.98242-60.66114,227.43359-143.74024,595.52246-143.74024v-5C1188.15674,430.92578,1055.99756,514.45117,959.49951,575.43945Z" fill="url(#radial-gradient)"/>
      <path d="M1131.05029,564.48535c-83.19922,5.291-140.76269,26.97559-159.15527,40.25977l2.92773,4.05273c17.92188-12.94433,74.40235-34.09863,156.54493-39.32226,67.77929-4.3125,173.22168,1.291,290.63671,52.46093l1.998-4.584C1305.67041,565.78418,1199.37842,560.1377,1131.05029,564.48535Z" fill="url(#radial-gradient-2)"/>
      <path d="M439.73193,564.48535c-68.33007-4.34473-174.6206,1.29883-292.95214,52.86719l1.99755,4.584c117.416-51.16992,222.85889-56.77441,290.63721-52.46093,82.14209,5.22363,138.62256,26.37793,156.54541,39.32226l2.92774-4.05273c-11.13184-8.04-31.897-16.66992-56.97022-23.67676C511.353,572.52734,476.01807,566.793,439.73193,564.48535Z" fill="url(#radial-gradient-3)"/>
    </g>
    <ellipse cx="785.39111" cy="398.50724" rx="775.39133" ry="388.50736" fill="none"/>
    <path d="M785.39111,728.87793c-171.36474,0-332.51172-33.45605-453.75586-94.20508-59.09277-29.6084-105.51416-64.11816-137.97461-102.57129-33.7705-40.00488-50.89355-82.55078-50.89355-126.456,0-43.90479,17.12305-86.45117,50.894-126.45606,32.46-38.45263,78.88135-72.9624,137.97412-102.5708,121.24414-60.749,282.39112-94.20508,453.75586-94.20508,171.36426,0,332.51172,33.45606,453.75586,94.20508,59.09278,29.6084,105.51367,64.11817,137.97461,102.5708,33.77051,40.00489,50.89356,82.55127,50.89356,126.45606,0,43.90527-17.123,86.45117-50.89356,126.456-32.46094,38.45313-78.88183,72.96289-137.97461,102.57129C1117.90283,695.42188,956.75537,728.87793,785.39111,728.87793Zm0-641.46436c-351.58691,0-637.624,142.75831-637.624,318.23194s286.03711,318.23242,637.624,318.23242,637.624-142.75879,637.624-318.23242S1136.978,87.41357,785.39111,87.41357Z" fill="#352381"/>
    <path d="M785.39111,685.46387c-139.82422,0-271.31836-27.30176-370.25976-76.877-48.24854-24.17382-86.15576-52.35644-112.66895-83.76464-27.61328-32.71094-41.61426-67.50879-41.61426-103.42676s14.001-70.71582,41.61426-103.42676c26.51319-31.40771,64.42041-59.59033,112.669-83.76465,98.9414-49.57471,230.43554-76.87646,370.25976-76.87646s271.31836,27.30175,370.25977,76.87646c48.24805,24.17432,86.15527,52.35694,112.66894,83.76465,27.61329,32.71094,41.61426,67.50879,41.61426,103.42676s-14.001,70.71582-41.61426,103.42676c-26.51367,31.4082-64.42089,59.59082-112.66894,83.76464C1056.70947,658.16211,925.21533,685.46387,785.39111,685.46387Zm0-523.13623c-286.477,0-519.543,116.21728-519.543,259.06787s233.06592,259.06836,519.543,259.06836c286.47657,0,519.543-116.21778,519.543-259.06836S1071.86768,162.32764,785.39111,162.32764Z" fill="#5034c2"/>
    <path d="M785.39111,648.6377c-93.95507,0-182.32568-17.5879-248.833-49.52344-67.09082-32.21485-104.03956-75.26465-104.03956-121.21778S469.46729,388.894,536.55811,356.67822c66.50732-31.93506,154.87793-49.523,248.833-49.523s182.3252,17.58789,248.833,49.523c67.09082,32.21582,104.03906,75.26514,104.03906,121.21826s-36.94824,89.00293-104.03906,121.21778C967.71631,631.0498,879.34619,648.6377,785.39111,648.6377Zm0-336.48243c-191.81738,0-347.87256,74.35108-347.87256,165.74121,0,91.38965,156.05518,165.74122,347.87256,165.74122s347.87207-74.35157,347.87207-165.74122C1133.26318,386.50635,977.2085,312.15527,785.39111,312.15527Z" fill="#6a45ff"/>
    <path d="M910.03955,634.53223l-3.584-3.48633c8.65039-8.8916,13.03613-18.38086,13.03613-28.20508,0-36.36133-60.15723-65.94336-134.10059-65.94336s-134.10058,29.582-134.10058,65.94336c0,9.82422,4.38574,19.31348,13.03564,28.20508l-3.584,3.48633c-9.58936-9.85743-14.45166-20.51953-14.45166-31.69141,0-19.27734,14.69922-37.25879,41.38965-50.63184,26.14111-13.09863,60.84228-20.31152,97.71093-20.31152,36.86914,0,71.57032,7.21289,97.71094,20.31152,26.69043,13.37305,41.38965,31.3545,41.38965,50.63184C924.4917,614.0127,919.62939,624.67578,910.03955,634.53223Z" fill="#6a45ff"/>
    <path d="M956.66846,617.76074l-3.54688-3.52344c14.84961-14.95214,22.69824-31.8457,22.69824-48.85351,0-57.01563-85.42578-103.40039-190.42871-103.40039S594.9624,508.36816,594.9624,565.38379c0,17.00781,7.84912,33.90137,22.69873,48.85351l-3.54785,3.52344c-15.7998-15.90918-24.15088-34.02051-24.15088-52.377,0-29.24121,20.52881-56.61328,57.80469-77.07422,36.80176-20.20117,85.67773-31.32617,137.624-31.32617s100.82227,11.125,137.624,31.32617c37.27636,20.46094,57.80468,47.833,57.80468,77.07422C980.81982,583.74023,972.46826,601.85156,956.66846,617.76074Z" fill="#6a45ff"/>
    <path d="M726.73242,647.4834c-4.58105-3.90625-6.90381-8.19629-6.90381-12.751,0-15.65625,28.79834-27.9209,65.5625-27.9209,36.76368,0,65.5625,12.26465,65.5625,27.9209,0,4.55371-2.32226,8.84375-6.90332,12.751l-3.24414-3.80469c3.415-2.91309,5.14746-5.92285,5.14746-8.94629,0-11.06933-24.33593-22.9209-60.5625-22.9209-36.22705,0-60.5625,11.85157-60.5625,22.9209,0,3.02344,1.73194,6.0332,5.14795,8.94629Z" fill="#6a45ff"/>
    <path d="M785.39111,651.35547c-69.00879,0-133.92578-13.84375-182.79345-38.98047-49.395-25.4082-76.59815-59.38184-76.59815-95.66211s27.20313-70.25488,76.59815-95.66309c48.86767-25.13671,113.78466-38.98046,182.79345-38.98046s133.92578,13.84375,182.793,38.98046c49.39551,25.40821,76.59863,59.38282,76.59863,95.66309s-27.20312,70.25391-76.59863,95.66211C919.31689,637.51172,854.3999,651.35547,785.39111,651.35547Zm0-264.28613c-140.272,0-254.3916,58.1582-254.3916,129.64355s114.11963,129.64258,254.3916,129.64258c140.27246,0,254.3916-58.15723,254.3916-129.64258S925.66357,387.06934,785.39111,387.06934Z" fill="#6a45ff"/>
    <path d="M785.39111,651.35547c-110.76416,0-214.9375-21.63184-293.33056-60.91016-78.94239-39.55371-122.418-92.34375-122.418-148.64648,0-56.30225,43.47558-109.09278,122.418-148.64649,78.39306-39.2788,182.5664-60.91064,293.33056-60.91064,110.76465,0,214.9375,21.63184,293.33106,60.91064,78.94238,39.55371,122.418,92.34424,122.418,148.64649,0,56.30273-43.47559,109.09277-122.418,148.64648C1000.32959,629.72363,896.15576,651.35547,785.39111,651.35547Zm0-414.11377c-226.48779,0-410.74853,91.76367-410.74853,204.55713,0,112.793,184.26074,204.55664,410.74853,204.55664,226.48731,0,410.749-91.76367,410.749-204.55664C1196.14014,329.00537,1011.87842,237.2417,785.39111,237.2417Z" fill="#6a45ff"/>
    <path d="M1043.12451,532.04474c94.71216-49.11316,237.69458-96.119,514.56836-96.119v-5c-274.76294,0-418.29126,46.17664-513.50647,94.93176a72.37065,72.37065,0,0,0,.59631-9.14465c0-17.36529-6.24792-34.199-18.16284-49.82129,104.59839-88.9909,265.52222-199.62189,462.49683-229.6665l-.75391-4.94239c-198.12841,30.22059-359.817,141.33582-464.86792,230.69764-12.9331-15.49378-31.54461-29.70563-55.31079-41.93055a287.8,287.8,0,0,0-26.88366-12.06207q6.662-12.91809,13.06433-25.11371c55.28418-105.07959,122.84375-183.13183,169.78515-230.10595,50.87989-50.91651,89.17481-77.31006,89.55567-77.57032l-2.82325-4.12695c-.38378.2627-38.97949,26.85254-90.168,78.061-47.21485,47.23437-115.16993,125.72509-170.7754,231.41406q-6.55132,12.45244-13.33978,25.64758c-43.09778-16.065-94.593-24.8457-148.70807-25.10846V10h-5V382.085c-54.115.26276-105.61029,9.04346-148.70831,25.10846q-6.80457-13.19834-13.34-25.64758c-55.605-105.689-123.55957-184.17969-170.7749-231.41406-51.1875-51.2085-89.7832-77.79834-90.167-78.061l-2.82324,4.12695c.38037.25977,38.59131,26.58545,89.4541,77.46875C493.50244,200.65674,561.105,278.73926,616.418,383.874q6.41538,12.19419,13.0639,25.11359a287.81134,287.81134,0,0,0-26.88421,12.06219c-23.76606,12.225-42.37745,26.437-55.31055,41.93079-105.051-89.36151-266.73987-200.47742-464.86768-230.69788l-.7539,4.94239C278.6391,267.2699,439.56366,377.90094,544.16229,466.8916c-11.91491,15.62232-18.16278,32.456-18.16278,49.82129a72.36761,72.36761,0,0,0,.59632,9.14441c-95.21521-48.755-238.74347-94.93152-513.506-94.93152v5c276.87293,0,419.85553,47.00556,514.56781,96.11871,4.3816,20.35077,17.45691,39.651,38.3078,56.72034-7.37182-2.6961-15.44744-5.293-24.048-7.69647-30.56445-8.541-65.89941-14.27539-102.18555-16.583-68.33007-4.34473-174.6206,1.29883-292.95214,52.86719l1.99755,4.584c117.416-51.16992,222.85889-56.77441,290.63721-52.46093,69.20679,4.40106,120.19367,20.10992,145.256,32.69006q8.40647,5.30245,17.92707,10.20935a298.56591,298.56591,0,0,0,38.28149,16.274c17.69379,3.86554,36.18018,7.04376,55.309,9.46338-11.1496-2.13489-21.94293-4.644-32.2901-7.52247-7.47565-7.83355-11.65246-16.12524-12.45459-24.69689,22.05542,12.62439,43.91773,23.04516,68.44525,29.81872a13.76276,13.76276,0,0,0,1.43091,5.1051q3.159.28134,6.33649.53705a12.02293,12.02293,0,0,1-2.45758-4.24609,243.47626,243.47626,0,0,0,57.4494,7.10931c.08081.00189.16254.00476.24316.00647h5c.08063-.00171.16248-.00458.24329-.00647a243.47477,243.47477,0,0,0,57.44922-7.10931,12.0251,12.0251,0,0,1-2.45752,4.24609q3.17844-.25405,6.3363-.53705a13.76272,13.76272,0,0,0,1.43109-5.105c24.52747-6.7735,46.38977-17.19433,68.44519-29.8186-.80212,8.57165-4.97894,16.86334-12.4552,24.697-10.34674,2.87829-21.13958,5.38727-32.28863,7.52209,19.12836-2.41961,37.61438-5.59777,55.30768-9.46319a298.56329,298.56329,0,0,0,38.28155-16.274q9.5214-4.89762,17.92609-10.20862c25.06122-12.5802,76.049-28.28967,145.25751-32.69079,67.77929-4.3125,173.22168,1.291,290.63671,52.46093l1.998-4.584c-118.332-51.56836-224.624-57.21484-292.95215-52.86719-54.3247,3.45477-97.71557,13.89874-126.41339,24.42987C1025.59424,571.8092,1038.7301,552.45483,1043.12451,532.04474Zm-3.3418-15.33185a67.27331,67.27331,0,0,1-1.09863,11.99139c-21.44995,11.22-40.43439,22.53119-57.95978,33.40534-.73193-13.90631-6.12561-27.34021-15.75988-39.75562,16.60626-15.72216,35.94934-33.44732,57.8377-52.20343C1033.7583,484.60956,1039.78271,500.30847,1039.78271,516.71289ZM924.0871,597.34161c-1.226-8.34759-5.24134-16.38311-11.81293-23.8269,4.40576-4.2265,9.60754-9.33984,15.51831-15.14948,9.34235-9.18286,20.55365-20.20159,33.524-32.54766,9.28833,12.1314,14.44531,25.42047,14.49829,39.34961q-8.35372,5.221-16.31525,10.27227C947.27631,583.16467,935.61005,590.53186,924.0871,597.34161ZM611.2832,575.43945q-7.97826-5.04235-16.31573-10.27252c.053-13.92908,5.21008-27.21814,14.49841-39.34955,12.96961,12.34534,24.18048,23.36347,33.5224,32.5459,5.91107,5.81037,11.11365,10.92377,15.5202,15.15094-6.57177,7.44385-10.58722,15.47949-11.81335,23.82715C635.17236,590.53168,623.50629,583.16461,611.2832,575.43945Zm297.53974-5.54394C902.20428,563.424,893.58228,557.46,883.10205,552.209c-4.39447-2.202-9.04974-4.22229-13.89764-6.08532,10.96624-19.35248,22.20379-40.42774,33.50714-62.132,23.56982,10.03882,42.67792,23.028,55.44427,37.93054-13.11169,12.47638-24.43835,23.60846-33.86822,32.87756C918.39264,560.59369,913.20453,565.69257,908.82294,569.89551ZM864.33209,544.3371c-22.34656-7.83832-48.7298-12.16284-76.441-12.40906V462.00061c41.163.28943,79.21448,7.703,110.15882,20.07373C886.92639,503.37909,875.547,524.64368,864.33209,544.3371Zm-81.441-12.40906c-27.71093.24622-54.09411,4.57074-76.44091,12.40912-11.215-19.69348-22.59449-40.958-33.71808-62.2627,30.94439-12.37072,68.996-19.78442,110.159-20.07385Zm-81.31274,14.1955c-4.84808,1.863-9.50354,3.88342-13.89819,6.08544-10.48023,5.251-19.1023,11.215-25.72095,17.68659-4.38208-4.20331-9.57105-9.30377-15.46607-15.09772-9.42962-9.26855-20.75573-20.4-33.86676-32.87555,12.76642-14.90265,31.87458-27.8919,55.44458-37.93072C679.37451,505.6958,690.61212,526.77106,701.57837,546.12354Zm-39.48431,30.79467c24.3424,22.9563,44.47058,38.23523,61.486,48.33081a16.86914,16.86914,0,0,0-3.078,5.41382c-24.70862-6.92206-46.73407-17.61889-69.08722-30.5589C652.0993,591.90405,655.83838,584.08582,662.09406,576.91821Zm3.4425-3.63141c9.1861-8.9718,22.41595-16.77594,38.50671-22.83245,14.05567,24.55871,27.63489,46.121,40.30011,62.36151-7.0484,2.38037-12.87536,5.37292-17.07672,8.80926C710.36292,611.75238,690.194,596.53949,665.53656,573.2868Zm43.40656-24.59228c21.06311-7.21314,46.51-11.53327,73.948-11.78143v69.9245a135.89518,135.89518,0,0,0-33.339,4.393C736.89563,595.1377,723.07739,573.26819,708.94312,548.69452Zm78.948-11.78143c27.438.24816,52.885,4.56829,73.94806,11.78143-14.13421,24.57367-27.95239,46.4433-40.60895,62.53619a135.89376,135.89376,0,0,0-33.33911-4.39312Zm78.84833,13.54144c16.09058,6.05646,29.32025,13.86053,38.50623,22.83227-24.65735,23.25275-44.8263,38.46564-61.73011,48.33838-4.20135-3.43628-10.02807-6.42871-17.07629-8.80908C839.10461,596.57556,852.68384,575.01331,866.73944,550.45453ZM908.6886,576.9187c6.25549,7.16754,9.99451,14.98572,10.67883,23.18549-22.35321,12.93988-44.37878,23.63665-69.08728,30.55865a16.86972,16.86972,0,0,0-3.078-5.41369C864.21765,615.15369,884.34589,599.87488,908.6886,576.9187Zm111.00671-110.69549c-21.90326,18.76489-41.26758,36.50268-57.902,52.24633-9.56176-11.0813-22.58776-21.27313-38.77813-30.16q-8.57812-4.70874-17.998-8.75153c7.36249-14.17944,14.74658-28.59155,22.0957-42.937q6.08186-11.872,11.89148-23.17486C974.17639,427.06781,1002.21613,445.2359,1019.69531,466.22321Zm-85.39886-54.55658q-5.70016,11.07843-11.63385,22.67419c-7.20545,14.06476-14.68256,28.659-22.29413,43.28558-32.51856-13.13372-71.49219-20.344-112.47736-20.62628V387.08551C842.49731,387.35529,893.03687,396.43433,934.29645,411.66663ZM782.89111,387.08551v69.91461c-40.98523.28229-79.95892,7.49256-112.4776,20.62641-7.61181-14.627-15.08923-29.22156-22.29486-43.28669q-5.94662-11.60751-11.63305-22.67309C677.74524,396.43439,728.285,387.35529,782.89111,387.08551ZM631.778,413.44629q5.82321,11.315,11.89044,23.17285c7.34961,14.346,14.73413,28.75879,22.097,42.93878q-9.40229,4.03977-17.99835,8.75165c-16.19025,8.8869-29.21631,19.07886-38.77808,30.16016-16.63458-15.74353-35.9989-33.48127-57.90234-52.24622C568.56592,445.23608,596.60583,427.06787,631.778,413.44629ZM530.99951,516.71289c0-16.40442,6.02448-32.10327,16.98065-46.56226,21.88849,18.75617,41.23157,36.48133,57.83789,52.20337-9.63427,12.41535-15.02807,25.84919-15.76013,39.75538-17.52545-10.87415-36.50989-22.18525-57.95978-33.40534A67.27157,67.27157,0,0,1,530.99951,516.71289Zm67.872,88.05463.01618-.0224a90.43888,90.43888,0,0,0-12.23609-7.20594c-27.67139-17.63366-46.505-39.01293-53.06628-62.38549,20.834,11.05169,39.32428,22.16186,56.43683,32.82141.59967,14.0058,6.048,27.81463,15.94769,40.55346C603.55127,607.30109,601.19244,606.04333,598.87152,604.76752Zm56.35028,23.2879a320.64537,320.64537,0,0,1-37.79748-14.06573c-12.98658-13.16279-20.55384-27.81733-22.13819-42.7237q6.7912,4.25931,13.32617,8.4c13.01935,8.22839,25.41431,16.053,37.67969,23.24316C646.30762,611.65179,649.314,620.07959,655.2218,628.05542Zm70.11987,3.90662a12.89,12.89,0,0,1,2.60761-4.19269,156.51922,156.51922,0,0,0,17.12927,8.32574C738.27759,634.98822,731.7193,633.59656,725.34167,631.962Zm6.59-7.69757a55.801,55.801,0,0,1,15.70313-7.32648c7.43957,9.10058,14.54315,16.25177,21.21508,20.94317C758.4574,636.0882,746.43671,632.18115,731.93164,624.26447Zm21.02326-8.81269a133.91358,133.91358,0,0,1,29.93621-3.61468v27.17859C774.32953,637.57471,764.14313,628.96259,752.9549,615.45178Zm34.93621,23.56391V611.8371a133.914,133.914,0,0,1,29.93634,3.61474C806.63922,628.96259,796.45282,637.57477,787.89111,639.01569Zm35.25666-22.07752a55.8,55.8,0,0,1,15.70275,7.32636c-14.50482,7.91644-26.52545,11.82354-36.91778,13.61651C808.60468,633.18964,815.70825,626.03864,823.14777,616.93817Zm19.6853,10.8313a12.88974,12.88974,0,0,1,2.60748,4.19263c-6.37744,1.63452-12.93561,3.02606-19.73645,4.13293A156.51308,156.51308,0,0,0,842.83307,627.76947Zm72.72735.28607c5.9079-7.97546,8.91413-16.40393,8.92981-25.14624,12.26551-7.19018,24.66059-15.01483,37.68018-23.24328q6.54291-4.13517,13.32562-8.39972c-1.58429,14.90619-9.15106,29.56048-22.13745,42.72314A320.627,320.627,0,0,1,915.56042,628.05554Zm68.10547-30.22333a87.61467,87.61467,0,0,0-11.77087,6.91291l.016.02228c-2.32129,1.27606-4.68048,2.53393-7.09949,3.76165,9.9-12.73889,15.34876-26.54773,15.94849-40.55365,17.11255-10.65954,35.60272-21.76971,56.43671-32.82147C1030.59912,558.65631,1011.58972,580.14252,983.66589,597.83221Z" fill="url(#radial-gradient-4)"/>
    <path d="M1043.12451,532.04474c94.71216-49.11316,237.69458-96.119,514.56836-96.119v-5c-274.76294,0-418.29126,46.17664-513.50647,94.93176a72.37065,72.37065,0,0,0,.59631-9.14465c0-17.36529-6.24792-34.199-18.16284-49.82129,104.59839-88.9909,265.52222-199.62189,462.49683-229.6665l-.75391-4.94239c-198.12841,30.22059-359.817,141.33582-464.86792,230.69764-12.9331-15.49378-31.54461-29.70563-55.31079-41.93055a287.8,287.8,0,0,0-26.88366-12.06207q6.662-12.91809,13.06433-25.11371c55.28418-105.07959,122.84375-183.13183,169.78515-230.10595,50.87989-50.91651,89.17481-77.31006,89.55567-77.57032l-2.82325-4.12695c-.38378.2627-38.97949,26.85254-90.168,78.061-47.21485,47.23437-115.16993,125.72509-170.7754,231.41406q-6.55132,12.45244-13.33978,25.64758c-43.09778-16.065-94.593-24.8457-148.70807-25.10846V10h-5V382.085c-54.115.26276-105.61029,9.04346-148.70831,25.10846q-6.80457-13.19834-13.34-25.64758c-55.605-105.689-123.55957-184.17969-170.7749-231.41406-51.1875-51.2085-89.7832-77.79834-90.167-78.061l-2.82324,4.12695c.38037.25977,38.59131,26.58545,89.4541,77.46875C493.50244,200.65674,561.105,278.73926,616.418,383.874q6.41538,12.19419,13.0639,25.11359a287.81134,287.81134,0,0,0-26.88421,12.06219c-23.76606,12.225-42.37745,26.437-55.31055,41.93079-105.051-89.36151-266.73987-200.47742-464.86768-230.69788l-.7539,4.94239C278.6391,267.2699,439.56366,377.90094,544.16229,466.8916c-11.91491,15.62232-18.16278,32.456-18.16278,49.82129a72.36761,72.36761,0,0,0,.59632,9.14441c-95.21521-48.755-238.74347-94.93152-513.506-94.93152v5c276.87293,0,419.85553,47.00556,514.56781,96.11871,4.3816,20.35077,17.45691,39.651,38.3078,56.72034-7.37182-2.6961-15.44744-5.293-24.048-7.69647-30.56445-8.541-65.89941-14.27539-102.18555-16.583-68.33007-4.34473-174.6206,1.29883-292.95214,52.86719l1.99755,4.584c117.416-51.16992,222.85889-56.77441,290.63721-52.46093,69.20679,4.40106,120.19367,20.10992,145.256,32.69006q8.40647,5.30245,17.92707,10.20935a298.56591,298.56591,0,0,0,38.28149,16.274c17.69379,3.86554,36.18018,7.04376,55.309,9.46338-11.1496-2.13489-21.94293-4.644-32.2901-7.52247-7.47565-7.83355-11.65246-16.12524-12.45459-24.69689,22.05542,12.62439,43.91773,23.04516,68.44525,29.81872a13.76276,13.76276,0,0,0,1.43091,5.1051q3.159.28134,6.33649.53705a12.02293,12.02293,0,0,1-2.45758-4.24609,243.47626,243.47626,0,0,0,57.4494,7.10931c.08081.00189.16254.00476.24316.00647h5c.08063-.00171.16248-.00458.24329-.00647a243.47477,243.47477,0,0,0,57.44922-7.10931,12.0251,12.0251,0,0,1-2.45752,4.24609q3.17844-.25405,6.3363-.53705a13.76272,13.76272,0,0,0,1.43109-5.105c24.52747-6.7735,46.38977-17.19433,68.44519-29.8186-.80212,8.57165-4.97894,16.86334-12.4552,24.697-10.34674,2.87829-21.13958,5.38727-32.28863,7.52209,19.12836-2.41961,37.61438-5.59777,55.30768-9.46319a298.56329,298.56329,0,0,0,38.28155-16.274q9.5214-4.89762,17.92609-10.20862c25.06122-12.5802,76.049-28.28967,145.25751-32.69079,67.77929-4.3125,173.22168,1.291,290.63671,52.46093l1.998-4.584c-118.332-51.56836-224.624-57.21484-292.95215-52.86719-54.3247,3.45477-97.71557,13.89874-126.41339,24.42987C1025.59424,571.8092,1038.7301,552.45483,1043.12451,532.04474Zm-3.3418-15.33185a67.27331,67.27331,0,0,1-1.09863,11.99139c-21.44995,11.22-40.43439,22.53119-57.95978,33.40534-.73193-13.90631-6.12561-27.34021-15.75988-39.75562,16.60626-15.72216,35.94934-33.44732,57.8377-52.20343C1033.7583,484.60956,1039.78271,500.30847,1039.78271,516.71289ZM924.0871,597.34161c-1.226-8.34759-5.24134-16.38311-11.81293-23.8269,4.40576-4.2265,9.60754-9.33984,15.51831-15.14948,9.34235-9.18286,20.55365-20.20159,33.524-32.54766,9.28833,12.1314,14.44531,25.42047,14.49829,39.34961q-8.35372,5.221-16.31525,10.27227C947.27631,583.16467,935.61005,590.53186,924.0871,597.34161ZM611.2832,575.43945q-7.97826-5.04235-16.31573-10.27252c.053-13.92908,5.21008-27.21814,14.49841-39.34955,12.96961,12.34534,24.18048,23.36347,33.5224,32.5459,5.91107,5.81037,11.11365,10.92377,15.5202,15.15094-6.57177,7.44385-10.58722,15.47949-11.81335,23.82715C635.17236,590.53168,623.50629,583.16461,611.2832,575.43945Zm297.53974-5.54394C902.20428,563.424,893.58228,557.46,883.10205,552.209c-4.39447-2.202-9.04974-4.22229-13.89764-6.08532,10.96624-19.35248,22.20379-40.42774,33.50714-62.132,23.56982,10.03882,42.67792,23.028,55.44427,37.93054-13.11169,12.47638-24.43835,23.60846-33.86822,32.87756C918.39264,560.59369,913.20453,565.69257,908.82294,569.89551ZM864.33209,544.3371c-22.34656-7.83832-48.7298-12.16284-76.441-12.40906V462.00061c41.163.28943,79.21448,7.703,110.15882,20.07373C886.92639,503.37909,875.547,524.64368,864.33209,544.3371Zm-81.441-12.40906c-27.71093.24622-54.09411,4.57074-76.44091,12.40912-11.215-19.69348-22.59449-40.958-33.71808-62.2627,30.94439-12.37072,68.996-19.78442,110.159-20.07385Zm-81.31274,14.1955c-4.84808,1.863-9.50354,3.88342-13.89819,6.08544-10.48023,5.251-19.1023,11.215-25.72095,17.68659-4.38208-4.20331-9.57105-9.30377-15.46607-15.09772-9.42962-9.26855-20.75573-20.4-33.86676-32.87555,12.76642-14.90265,31.87458-27.8919,55.44458-37.93072C679.37451,505.6958,690.61212,526.77106,701.57837,546.12354Zm-39.48431,30.79467c24.3424,22.9563,44.47058,38.23523,61.486,48.33081a16.86914,16.86914,0,0,0-3.078,5.41382c-24.70862-6.92206-46.73407-17.61889-69.08722-30.5589C652.0993,591.90405,655.83838,584.08582,662.09406,576.91821Zm3.4425-3.63141c9.1861-8.9718,22.41595-16.77594,38.50671-22.83245,14.05567,24.55871,27.63489,46.121,40.30011,62.36151-7.0484,2.38037-12.87536,5.37292-17.07672,8.80926C710.36292,611.75238,690.194,596.53949,665.53656,573.2868Zm43.40656-24.59228c21.06311-7.21314,46.51-11.53327,73.948-11.78143v69.9245a135.89518,135.89518,0,0,0-33.339,4.393C736.89563,595.1377,723.07739,573.26819,708.94312,548.69452Zm78.948-11.78143c27.438.24816,52.885,4.56829,73.94806,11.78143-14.13421,24.57367-27.95239,46.4433-40.60895,62.53619a135.89376,135.89376,0,0,0-33.33911-4.39312Zm78.84833,13.54144c16.09058,6.05646,29.32025,13.86053,38.50623,22.83227-24.65735,23.25275-44.8263,38.46564-61.73011,48.33838-4.20135-3.43628-10.02807-6.42871-17.07629-8.80908C839.10461,596.57556,852.68384,575.01331,866.73944,550.45453ZM908.6886,576.9187c6.25549,7.16754,9.99451,14.98572,10.67883,23.18549-22.35321,12.93988-44.37878,23.63665-69.08728,30.55865a16.86972,16.86972,0,0,0-3.078-5.41369C864.21765,615.15369,884.34589,599.87488,908.6886,576.9187Zm111.00671-110.69549c-21.90326,18.76489-41.26758,36.50268-57.902,52.24633-9.56176-11.0813-22.58776-21.27313-38.77813-30.16q-8.57812-4.70874-17.998-8.75153c7.36249-14.17944,14.74658-28.59155,22.0957-42.937q6.08186-11.872,11.89148-23.17486C974.17639,427.06781,1002.21613,445.2359,1019.69531,466.22321Zm-85.39886-54.55658q-5.70016,11.07843-11.63385,22.67419c-7.20545,14.06476-14.68256,28.659-22.29413,43.28558-32.51856-13.13372-71.49219-20.344-112.47736-20.62628V387.08551C842.49731,387.35529,893.03687,396.43433,934.29645,411.66663ZM782.89111,387.08551v69.91461c-40.98523.28229-79.95892,7.49256-112.4776,20.62641-7.61181-14.627-15.08923-29.22156-22.29486-43.28669q-5.94662-11.60751-11.63305-22.67309C677.74524,396.43439,728.285,387.35529,782.89111,387.08551ZM631.778,413.44629q5.82321,11.315,11.89044,23.17285c7.34961,14.346,14.73413,28.75879,22.097,42.93878q-9.40229,4.03977-17.99835,8.75165c-16.19025,8.8869-29.21631,19.07886-38.77808,30.16016-16.63458-15.74353-35.9989-33.48127-57.90234-52.24622C568.56592,445.23608,596.60583,427.06787,631.778,413.44629ZM530.99951,516.71289c0-16.40442,6.02448-32.10327,16.98065-46.56226,21.88849,18.75617,41.23157,36.48133,57.83789,52.20337-9.63427,12.41535-15.02807,25.84919-15.76013,39.75538-17.52545-10.87415-36.50989-22.18525-57.95978-33.40534A67.27157,67.27157,0,0,1,530.99951,516.71289Zm67.872,88.05463.01618-.0224a90.43888,90.43888,0,0,0-12.23609-7.20594c-27.67139-17.63366-46.505-39.01293-53.06628-62.38549,20.834,11.05169,39.32428,22.16186,56.43683,32.82141.59967,14.0058,6.048,27.81463,15.94769,40.55346C603.55127,607.30109,601.19244,606.04333,598.87152,604.76752Zm56.35028,23.2879a320.64537,320.64537,0,0,1-37.79748-14.06573c-12.98658-13.16279-20.55384-27.81733-22.13819-42.7237q6.7912,4.25931,13.32617,8.4c13.01935,8.22839,25.41431,16.053,37.67969,23.24316C646.30762,611.65179,649.314,620.07959,655.2218,628.05542Zm70.11987,3.90662a12.89,12.89,0,0,1,2.60761-4.19269,156.51922,156.51922,0,0,0,17.12927,8.32574C738.27759,634.98822,731.7193,633.59656,725.34167,631.962Zm6.59-7.69757a55.801,55.801,0,0,1,15.70313-7.32648c7.43957,9.10058,14.54315,16.25177,21.21508,20.94317C758.4574,636.0882,746.43671,632.18115,731.93164,624.26447Zm21.02326-8.81269a133.91358,133.91358,0,0,1,29.93621-3.61468v27.17859C774.32953,637.57471,764.14313,628.96259,752.9549,615.45178Zm34.93621,23.56391V611.8371a133.914,133.914,0,0,1,29.93634,3.61474C806.63922,628.96259,796.45282,637.57477,787.89111,639.01569Zm35.25666-22.07752a55.8,55.8,0,0,1,15.70275,7.32636c-14.50482,7.91644-26.52545,11.82354-36.91778,13.61651C808.60468,633.18964,815.70825,626.03864,823.14777,616.93817Zm19.6853,10.8313a12.88974,12.88974,0,0,1,2.60748,4.19263c-6.37744,1.63452-12.93561,3.02606-19.73645,4.13293A156.51308,156.51308,0,0,0,842.83307,627.76947Zm72.72735.28607c5.9079-7.97546,8.91413-16.40393,8.92981-25.14624,12.26551-7.19018,24.66059-15.01483,37.68018-23.24328q6.54291-4.13517,13.32562-8.39972c-1.58429,14.90619-9.15106,29.56048-22.13745,42.72314A320.627,320.627,0,0,1,915.56042,628.05554Zm68.10547-30.22333a87.61467,87.61467,0,0,0-11.77087,6.91291l.016.02228c-2.32129,1.27606-4.68048,2.53393-7.09949,3.76165,9.9-12.73889,15.34876-26.54773,15.94849-40.55365,17.11255-10.65954,35.60272-21.76971,56.43671-32.82147C1030.59912,558.65631,1011.58972,580.14252,983.66589,597.83221Z" fill="url(#radial-gradient-5)"/>
    <path d="M1019.2124,109.53174C944.77393,94.855,866.105,87.41357,785.39111,87.41357c-80.71289,0-159.37988,7.44141-233.81543,22.11719l-.96679-4.90527C625.36182,89.88672,704.354,82.41357,785.39111,82.41357c81.03809,0,160.03223,7.47364,234.78809,22.21289Z" fill="url(#linear-gradient-3)"/>
    <path d="M479.76416,563.49805c-30.9082-25.83594-47.24561-55.43653-47.24561-85.60157,0-44.90039,35.498-87.24121,99.95557-119.22412l2.22266,4.47852c-62.66651,31.09424-97.17823,71.84521-97.17823,114.7456,0,28.63672,15.71729,56.91016,45.45264,81.76563Z" fill="url(#linear-gradient-4)"/>
    <path d="M1051.47119,286.08154c-74.15625-31.49511-168.65234-48.83984-266.08008-48.83984-54.16259,0-106.80273,5.18359-156.45849,15.40723l-1.0083-4.89747c49.98681-10.2915,102.9663-15.50976,157.46679-15.50976,98.084,0,193.27344,17.48633,268.03516,49.2373Z" fill="url(#linear-gradient-5)"/>
    <path d="M1288.7749,357.168c-13.56445-26.416-35.40722-51.52442-64.92187-74.62744-29.125-22.79785-65.04883-43.13135-106.77344-60.43506-56.00586-23.22559-119.709-40.01807-189.33984-49.91065l.70312-4.95019c70.04688,9.95166,134.1582,26.85547,190.55274,50.24267,42.14257,17.47657,78.458,38.03956,107.93945,61.11622,30.08789,23.55224,52.39062,49.2163,66.28711,76.28027Z" fill="url(#linear-gradient-6)"/>
    <path d="M331.65381,295.2876l-3.32715-3.73242c27.88037-24.854,63.42871-47.17481,105.6582-66.34278,51.03028-23.16308,109.57129-40.8042,173.99659-52.43359l.88867,4.9209c-64.02,11.55566-122.16455,29.07324-172.81885,52.06543C394.28174,248.72461,359.15723,270.76953,331.65381,295.2876Z" fill="url(#linear-gradient-7)"/>
    <path d="M464.43652,630.3877c-60.20263-23.44043-110.44091-53.76465-145.28369-87.69434-38.14306-37.14453-58.30469-79.08789-58.30469-121.29785h5c0,41.41211,19.10791,81.01758,56.793,117.71582,34.3667,33.46679,84.02637,63.418,143.60987,86.61621Z" fill="url(#linear-gradient-8)"/>
    <path d="M660.74219,634.53223c-9.58936-9.85743-14.45166-20.51953-14.45166-31.69141,0-10.69922,4.4707-20.95117,13.28711-30.47266l3.66894,3.39649c-7.93359,8.56738-11.95605,17.67773-11.95605,27.07617,0,9.82422,4.38574,19.31348,13.03564,28.20508Z" fill="url(#linear-gradient-9)"/>
    <path d="M785.39111,651.35547c-69.00879,0-133.92578-13.84375-182.79345-38.98047-49.395-25.4082-76.59815-59.38184-76.59815-95.66211a74.09544,74.09544,0,0,1,4.96533-26.44922l4.67286,1.7793a69.12174,69.12174,0,0,0-4.63819,24.66992c0,71.48535,114.11963,129.64258,254.3916,129.64258Z" fill="url(#linear-gradient-10)"/>
    <path d="M958.05029,521.85059c-18.83886-21.89942-51.32812-39.65137-91.48437-49.98438a326.12084,326.12084,0,0,0-81.17481-9.88281v-5a331.08,331.08,0,0,1,82.4209,10.041c41.13672,10.585,74.53028,28.89844,94.0293,51.56641Z" fill="url(#linear-gradient-11)"/>
    <path d="M1388.69092,517.39844l-4.03711-2.94922c25.45508-34.832,38.36133-71.43848,38.36133-108.80371,0-60.70557-34.50879-119.77832-99.7959-170.83155l3.08008-3.93847c66.543,52.03515,101.71582,112.46972,101.71582,174.77C1428.01514,444.09375,1414.78467,481.69336,1388.69092,517.39844Z" fill="url(#linear-gradient-12)"/>
    <path d="M1044.78271,516.71289h-5c0-27.332-16.64062-53.51855-48.12207-75.72851-25.50976-17.998-59.74414-32.45508-99.00195-41.80909l1.1582-4.86425c39.8711,9.50048,74.70118,24.22607,100.72657,42.5874C1027.41064,460.08594,1044.78271,487.68457,1044.78271,516.71289Z" fill="url(#linear-gradient-13)"/>
    <path d="M1104.33545,411.81738c-31.7959-34.65136-88.03711-63.38769-158.36133-80.91455-49.209-12.26465-104.7373-18.74756-160.583-18.74756v-5c56.24707,0,112.19434,6.53418,161.792,18.896,71.26562,17.76123,128.38476,47.02,160.83593,82.38525Z" fill="url(#linear-gradient-14)"/>
    <path d="M785.39111,728.87793A1242.75418,1242.75418,0,0,1,594.582,714.417c-63.51807-9.90234-123.41992-24.6914-178.04248-43.95508l1.66309-4.71484c54.333,19.16113,113.93457,33.875,177.1499,43.73047a1237.78742,1237.78742,0,0,0,190.03857,14.40039Z" fill="url(#linear-gradient-15)"/>
    <path d="M887.20361,680.50488l-.49218-4.97656a909.53666,909.53666,0,0,0,132.374-22.75c65.415-16.49023,124.42578-40.30176,170.65527-68.86133l2.62793,4.25391c-46.65918,28.82519-106.15625,52.8418-172.06054,69.45508A914.6779,914.6779,0,0,1,887.20361,680.50488Z" fill="url(#linear-gradient-16)"/>
    <circle cx="263.34813" cy="421.39566" r="15" fill="#a691ff"/>
    <ellipse cx="270.2563" cy="423.34394" rx="6.84643" ry="5.00903" transform="translate(-210.55133 568.54235) rotate(-74.25018)" fill="#dbd3ff"/>
    <circle cx="1052.44843" cy="283.78039" r="14" fill="#a691ff"/>
    <ellipse cx="1049.78954" cy="290.25493" rx="5.20131" ry="7.48938" transform="translate(405.98834 1168.79123) rotate(-69.22114)" fill="#dbd3ff"/>
    <circle cx="533.30108" cy="491.15376" r="14.5" fill="#fff"/>
    <ellipse cx="526.31154" cy="488.46044" rx="7.79461" ry="4.58922" transform="translate(-118.72391 803.93899) rotate(-68.92651)" fill="#dbd3ff"/>
    <circle cx="533.58523" cy="360.91151" r="14.5" fill="#dbd3ff"/>
    <ellipse cx="539.24272" cy="365.26708" rx="7.6525" ry="4.66612" transform="translate(-92.92467 522.00618) rotate(-48.03761)" fill="#fff"/>
    <circle cx="886.9576" cy="678.01625" r="17.5" fill="#a691ff"/>
    <ellipse cx="885.27208" cy="670.69588" rx="8.75" ry="6.14981" transform="translate(-159.62615 294.22901) rotate(-17.33453)" fill="#dbd3ff"/>
    <circle cx="417.37091" cy="668.10482" r="17.5" fill="#6a45ff"/>
    <ellipse cx="425.1545" cy="662.45548" rx="5.02348" ry="7.91578" transform="translate(-304.71485 367.67702) rotate(-35.31551)" fill="#a691ff"/>
    <circle cx="662.09406" cy="576.91821" r="12.5" fill="#fff"/>
    <ellipse cx="657.24315" cy="575.5799" rx="6.80612" ry="4.83602" transform="translate(-72.4034 1056.07621) rotate(-74.57644)" fill="#dbd3ff"/>
    <circle cx="959.94608" cy="520.22097" r="13.5" fill="#fff"/>
    <ellipse cx="963.89343" cy="516.57784" rx="5.37159" ry="7.68668" transform="translate(-94.78475 790.70137) rotate(-42.7049)" fill="#dbd3ff"/>
    <circle cx="1042.28256" cy="516.71245" r="14.5" fill="#fff"/>
    <ellipse cx="1049.12859" cy="514.39072" rx="4.86145" ry="7.53216" transform="matrix(0.94702, -0.32117, 0.32117, 0.94702, -109.62542, 364.19835)" fill="#dbd3ff"/>
    <circle cx="1106.17688" cy="410.1266" r="15" fill="#dbd3ff"/>
    <ellipse cx="1099.82639" cy="414.05435" rx="4.96" ry="8.05757" transform="translate(-53.34728 640.43808) rotate(-31.73667)" fill="#fff"/>
    <circle cx="1290.9988" cy="356.02574" r="14.5" fill="#a691ff"/>
    <ellipse cx="1283.68593" cy="359.07624" rx="4.35811" ry="6.82083" transform="translate(-39.29544 521.8817) rotate(-22.64304)" fill="#dbd3ff"/>
    <circle cx="1386.67255" cy="515.9243" r="16" fill="#6a45ff"/>
    <ellipse cx="1378.43246" cy="514.76256" rx="7.66726" ry="4.75433" transform="matrix(0.18015, -0.98364, 0.98364, 0.18015, 623.77174, 1777.9109)" fill="#a691ff"/>
    <circle cx="1019.69536" cy="107.07929" r="12.5" fill="#6a45ff"/>
    <ellipse cx="1018.67594" cy="112.30988" rx="3.67915" ry="6.13941" transform="translate(713.57065 1090.68861) rotate(-78.97152)" fill="#a691ff"/>
    <circle cx="608.42566" cy="175.23906" r="12.5" fill="#a691ff"/>
    <ellipse cx="609.70574" cy="181.08856" rx="6.24767" ry="4.39557" transform="matrix(0.97688, -0.21378, 0.21378, 0.97688, -24.61774, 134.52804)" fill="#dbd3ff"/>
    <circle cx="785.39111" cy="393.31167" r="184.39222" fill="#0f0a25"/>
    <circle cx="785.39111" cy="393.31167" r="184.39222" fill="url(#radial-gradient-6)"/>
    <path d="M939.60309,498.76837a185.82557,185.82557,0,0,0,32.6806-105.45685c0-72.98565-42.06012-136.32342-103.20923-167.07592l.02271-.051c-.143-.06354-.28943-.11884-.43256-.18182-.05676-.03522-.10589-.07056-.16315-.10578l-.01818.02954c-.06379-.028-.12879-.05316-.19263-.081a185.39115,185.39115,0,0,0-49.65479-16.46246l.00135-.00952c-.04157-.0058-.08344-.00855-.125-.01423a188.0437,188.0437,0,0,0-66.24158-.00012c-.04193.00568-.08417.00855-.1261.01435l.00134.00964a185.38967,185.38967,0,0,0-49.65374,16.4621c-.06348.02771-.12812.05267-.19153.0805l-.01837-.02978c-.0589.03625-.113.0733-.17151.10962-.14087.062-.285.11639-.42566.179l.0227.05109c-61.149,30.7525-103.20874,94.09021-103.20874,167.07586A185.82619,185.82619,0,0,0,631.13208,498.7l-.03931.03632c.07605.08221.15772.16333.23474.24536a187.295,187.295,0,0,0,118.00306,77.71783c.13025.0282.259.06159.38964.08857l.00275-.01319a186.80084,186.80084,0,0,0,189.69245-77.736c.074-.07861.15258-.15637.2257-.23517ZM605.5542,365.96533a161.391,161.391,0,0,1,18.92621-53.48388,30.9937,30.9937,0,0,0,7.314,11.78222,60.74694,60.74694,0,0,0,11.45319,9.22492c-12.9082,26.84063-20.55255,56.30328-21.24231,86.25909-10.59924-7.11609-16.9397-14.85883-18.46051-22.82971-.0235-1.2002-.04578-2.40076-.04578-3.60645A182.55738,182.55738,0,0,1,605.5542,365.96533ZM689.90833,247.3335a18.83926,18.83926,0,0,0,4.65222,7.75976,34.31811,34.31811,0,0,0,5.376,4.52753,226.2134,226.2134,0,0,0-54.47815,69.38885,56.114,56.114,0,0,1-10.02917-8.17956c-4.62042-4.89136-6.97052-9.91693-7.00037-14.952a172.2559,172.2559,0,0,1,31.19324-36.734A180.51488,180.51488,0,0,1,689.90833,247.3335ZM866.4397,230.50842c3.13861,1.994,6.51,4.68628,8.41882,7.88031a192.486,192.486,0,0,0-58.13892-18.584,129.97537,129.97537,0,0,1,49.47852,10.58343Q866.31889,230.44833,866.4397,230.50842Zm44.72,38.63562a172.25779,172.25779,0,0,1,31.18921,36.72748c-.00153.24158-.00305.48316-.01538.72418-.39392,7.72333-6.36634,15.39954-17.033,22.36762a226.21166,226.21166,0,0,0-54.45728-69.34479c5.37079-3.76489,8.77741-7.91656,10.02527-12.29449A180.73838,180.73838,0,0,1,911.15967,269.144ZM787.89111,564.072v-26.3595a428.25685,428.25685,0,0,0,71.28211-6.0614c-.42279,1.01752-.84363,2.03833-1.285,3.0257a91.08172,91.08172,0,0,1-11.98327,20.09949A192.39333,192.39333,0,0,1,787.89111,564.072Zm-139.4743-58.14331c-13.24994-21.93048-20.71967-48.40369-21.407-77.34344,16.37628,9.08624,38.96008,16.60217,65.73962,21.8742.18542,28.86383,4.103,54.2572,11.06189,74.61115C681.03,520.43188,661.86407,513.87463,648.41681,505.92865Zm316.81775-139.92a182.55809,182.55809,0,0,1,2.04913,27.30291c0,1.1847-.02234,2.3642-.045,3.54358-1.53534,8.1391-8.04175,15.85913-18.46289,22.84021-.69739-29.93713-8.34076-59.38061-21.24085-86.20526,9.98688-6.4198,16.37159-13.53015,18.75812-21.02331A161.38271,161.38271,0,0,1,965.23456,366.00861Zm-98.22681,158.9591c6.93945-20.34479,10.835-45.72265,11.01709-74.552a311.53628,311.53628,0,0,0,33.62311-8.48309,177.15155,177.15155,0,0,0,32.12427-13.36438c-.68415,28.91607-8.13837,55.37109-21.36481,77.29242C908.96106,513.76025,889.74017,520.31244,867.00775,524.96771ZM787.89111,362.7912a421.61754,421.61754,0,0,0,73.49256-6.5177,383.82039,383.82039,0,0,1,11.64581,89.90338,482.12836,482.12836,0,0,1-85.13837,7.6875Zm0-5.00037v-79.7865a248.21046,248.21046,0,0,0,41.69879-3.72686c12.48017,22.02337,22.99164,48.5639,30.54682,77.14172A416.66144,416.66144,0,0,1,787.89111,357.79083Zm0-84.78662V224.73737c14.10761,9.78131,27.37293,25.4085,39.04547,44.97613A244.39741,244.39741,0,0,1,787.89111,273.00421Zm-5,.00421a248.39016,248.39016,0,0,1-39.03143-3.319c11.66907-19.55646,24.92944-35.17486,39.03143-44.95209Zm0,5.00012v79.79358c-.08966-.00048-.1784.00116-.26806.00061a420.70262,420.70262,0,0,1-71.98279-6.36377c7.55951-28.60058,18.08-55.16131,30.57184-77.19659A247.82126,247.82126,0,0,0,782.89111,278.00854Zm-.29834,84.79419c.09973.00061.19873.00031.29834.00086v91.06384c-.23632-.00116-.47216-.00067-.70849-.0022a484.01839,484.01839,0,0,1-84.43054-7.58483,383.78868,383.78868,0,0,1,11.6557-90.04468A421.88676,421.88676,0,0,0,782.59277,362.80273Zm5.29834,96.0625a489.66438,489.66438,0,0,0,85.12293-7.492c-.26538,28.80566-4.25427,54.36462-11.65332,74.69861a418.90843,418.90843,0,0,1-73.46961,6.63922Zm155.92127-36.06384c-15.80756,9.21607-38.63416,16.958-65.80792,22.41071a387.97552,387.97552,0,0,0-11.70539-89.87128,262.99664,262.99664,0,0,0,30.64966-7.96289,146.91534,146.91534,0,0,0,26.32306-11.30835C936.15222,363.03815,943.59088,392.70117,943.81238,422.80139Zm-48.432-80.171a258.69334,258.69334,0,0,1-30.30945,7.85352,371.64649,371.64649,0,0,0-13.64367-41.72315,298.20907,298.20907,0,0,0-16.68146-35.4975,152.79036,152.79036,0,0,0,16.39435-4.34234,87.48283,87.48283,0,0,0,15.2959-6.54224,220.55649,220.55649,0,0,1,54.62323,69.182A141.22435,141.22435,0,0,1,895.38037,342.63037Zm-63.2182-73.89355c-10.79724-18.434-22.782-33.21747-35.35046-43.514,23.60937,6.40692,45.79535,18.13672,65.43042,33.7359C854.76715,262.83661,844.55945,266.24493,832.16217,268.73682Zm-93.53571-.01136c-12.07806-2.40283-22.42919-5.72259-30.133-9.72973,19.6466-15.61762,41.849-27.361,65.47711-33.77295C761.4046,235.51727,749.42218,250.29669,738.62646,268.72546Zm-2.56951,4.50086a298.159,298.159,0,0,0-16.70246,35.53442A371.696,371.696,0,0,0,705.70612,350.503c-22.93622-4.54413-42.30591-11.02264-56.00605-18.897a220.55708,220.55708,0,0,1,54.66065-69.2395C712.39154,266.835,723.30225,270.5415,736.057,273.22632Zm-31.56141,82.06537a387.95812,387.95812,0,0,0-11.71917,90.03241,298.98829,298.98829,0,0,1-34.53614-8.93152,164.02876,164.02876,0,0,1-31.27148-13.5379c.2132-30.12391,7.65582-59.81128,20.54816-86.79969C661.67688,344.06781,681.3623,350.6571,704.49554,355.29169Zm-6.727,96.12115a490.32546,490.32546,0,0,0,84.38379,7.45239c.24714.00153.49237.001.73877.0022v73.84522c-.08752-.00049-.17535-.00019-.26269-.00074a421.17571,421.17571,0,0,1-73.17047-6.54547C702.0401,505.82617,698.03772,480.2478,697.76855,451.41284Zm167.18177,79.17072c18.04455-3.50257,34.02185-8.19409,47.02166-13.84577-.27246.246-.538.49713-.81231.7417a181.9405,181.9405,0,0,1-57.0105,34.407A110.99937,110.99937,0,0,0,864.95032,530.58356Zm71.09234-40.52063c8.18018-19.34851,12.58783-41.1684,12.7616-64.45587,7.73846-4.84449,13.68329-10.0398,17.69476-15.47809q-.48714,5.28836-1.265,10.48987A162.45731,162.45731,0,0,1,936.04266,490.06293ZM866.84338,256.28918a191.54249,191.54249,0,0,0-57.5708-32.4353,187.56372,187.56372,0,0,1,67.02259,20.92249C875.72107,248.6889,872.43945,252.63464,866.84338,256.28918ZM704.33716,230.51123q.124-.062.24847-.12366a130.009,130.009,0,0,1,49.57318-10.58386,192.58075,192.58075,0,0,0-58.24273,18.59644C697.83521,235.18365,701.23376,232.48419,704.33716,230.51123ZM761.4455,223.876a191.58018,191.58018,0,0,0-57.54621,32.44464,32.08833,32.08833,0,0,1-5.704-4.661,12.8975,12.8975,0,0,1-3.71722-6.87079A187.8502,187.8502,0,0,1,761.4455,223.876ZM604.28741,410.17084c4.05127,5.47912,10.032,10.65918,17.67981,15.4508.17493,23.26758,4.57843,45.07172,12.74677,64.40735a162.46179,162.46179,0,0,1-29.15918-69.36688Q604.76755,415.464,604.28741,410.17084Zm54.33326,106.39428c13.01971,5.66224,29.0592,10.38471,47.161,13.92084a111.195,111.195,0,0,0,10.82684,21.39319,181.95211,181.95211,0,0,1-56.98645-34.39966C659.28387,517.178,658.95605,516.86871,658.62067,516.56512ZM712.894,534.67676c-.454-1.01563-.88745-2.06476-1.32177-3.11231a426.10471,426.10471,0,0,0,71.02587,6.14746c.0979.00061.19513.00037.293.00092V564.0722a192.28051,192.28051,0,0,1-58.01184-9.293A91.07037,91.07037,0,0,1,712.894,534.67676Zm69.99707,34.399v6.09662a181.93359,181.93359,0,0,1-32.56836-3.37384,41.26086,41.26086,0,0,1-18.48358-9.70446A197.58945,197.58945,0,0,0,782.89111,569.07574Zm5-.00036a197.73949,197.73949,0,0,0,51.05683-6.986,41.26287,41.26287,0,0,1-18.4892,9.70935,181.93733,181.93733,0,0,1-32.56763,3.37365Zm60.90528-9.98419a188.184,188.184,0,0,0,54.36743-28.57788,124.08249,124.08249,0,0,1-14.76019,12.623,181.37052,181.37052,0,0,1-46.65125,23.11792A63.13932,63.13932,0,0,0,848.79639,559.09119ZM915.39154,266.2326c-.30206-.27288-.59949-.54925-.90375-.82049a185.74844,185.74844,0,0,0-33.19641-23.58728,14.51063,14.51063,0,0,0-.94079-3.58942A183.15179,183.15179,0,0,1,915.39154,266.2326Zm-224.99-27.97814a14.5807,14.5807,0,0,0-.91882,3.57812,185.66245,185.66245,0,0,0-33.1883,23.57953c-.32342.28833-.6358.585-.95672.87518A183.15172,183.15172,0,0,1,690.40155,238.25446Zm-8.0329,304.87475a124.09686,124.09686,0,0,1-14.74914-12.61493,188.2008,188.2008,0,0,0,54.37909,28.58441,63.1932,63.1932,0,0,0,7.02551,7.15363A181.36908,181.36908,0,0,1,682.36865,543.12921Z" fill="url(#linear-gradient-17)"/>
  </g>
</svg>
