<?xml version="1.0" encoding="UTF-8"?>
<svg id="Orbit_Levels" data-name="Orbit Levels" xmlns="http://www.w3.org/2000/svg" xmlns:xlink="http://www.w3.org/1999/xlink" viewBox="0 0 665.75242 665.75242">
  <defs>
    <radialGradient id="radial-gradient" cx="332.87621" cy="332.87621" fx="332.87621" fy="332.87621" r="202.90248" gradientTransform="matrix(1, 0, 0, 1, 0, 0)" gradientUnits="userSpaceOnUse">
      <stop offset=".1" stop-color="#5034c2"/>
      <stop offset=".16213" stop-color="#482fb0"/>
      <stop offset=".31256" stop-color="#39258b"/>
      <stop offset=".46311" stop-color="#2d1d6e"/>
      <stop offset=".61205" stop-color="#241859"/>
      <stop offset=".7586" stop-color="#1f154d"/>
      <stop offset=".9" stop-color="#1e1449"/>
    </radialGradient>
    <radialGradient id="radial-gradient-2" cx="332.87621" cy="332.87621" fx="332.87621" fy="332.87621" r="95.9599" gradientTransform="matrix(1, 0, 0, 1, 0, 0)" gradientUnits="userSpaceOnUse">
      <stop offset=".1" stop-color="#6a45ff"/>
      <stop offset=".11252" stop-color="#6843fa"/>
      <stop offset=".23695" stop-color="#5839d5"/>
      <stop offset=".36721" stop-color="#4b31b6"/>
      <stop offset=".50313" stop-color="#412b9f"/>
      <stop offset=".647" stop-color="#3a268e"/>
      <stop offset=".80426" stop-color="#362384"/>
      <stop offset="1" stop-color="#352381"/>
    </radialGradient>
    <linearGradient id="linear-gradient" x1="721.54268" y1="120.82933" x2="721.54268" y2="-503.86084" gradientTransform="translate(-423.18426 -152.34009) rotate(45)" gradientUnits="userSpaceOnUse">
      <stop offset=".1" stop-color="#6a45ff"/>
      <stop offset=".13287" stop-color="#6340ef"/>
      <stop offset=".23636" stop-color="#5134c3"/>
      <stop offset=".34468" stop-color="#412a9d"/>
      <stop offset=".45663" stop-color="#34227e"/>
      <stop offset=".57339" stop-color="#2a1c67"/>
      <stop offset=".69695" stop-color="#231756"/>
      <stop offset=".83195" stop-color="#1f144c"/>
      <stop offset="1" stop-color="#1e1449"/>
    </linearGradient>
    <linearGradient id="linear-gradient-2" x1="-1089.29052" y1="-1294.82661" x2="-1089.29052" y2="-670.13643" gradientTransform="translate(367.7815 -1021.65719) rotate(-135)" gradientUnits="userSpaceOnUse">
      <stop offset="0" stop-color="#1e1449"/>
      <stop offset=".16805" stop-color="#1f144c"/>
      <stop offset=".30305" stop-color="#231756"/>
      <stop offset=".42661" stop-color="#2a1c67"/>
      <stop offset=".54337" stop-color="#34227e"/>
      <stop offset=".65532" stop-color="#412a9d"/>
      <stop offset=".76364" stop-color="#5134c3"/>
      <stop offset=".86713" stop-color="#6340ef"/>
      <stop offset=".9" stop-color="#6a45ff"/>
    </linearGradient>
    <linearGradient id="linear-gradient-3" x1="180.94506" y1="256.91063" x2="332.87621" y2="256.91063" gradientTransform="matrix(1, 0, 0, 1, 0, 0)" gradientUnits="userSpaceOnUse">
      <stop offset=".1" stop-color="#fff"/>
      <stop offset=".14061" stop-color="#efebff"/>
      <stop offset=".24321" stop-color="#ccbfff"/>
      <stop offset=".35059" stop-color="#ad99ff"/>
      <stop offset=".46156" stop-color="#957aff"/>
      <stop offset=".57721" stop-color="#8263ff"/>
      <stop offset=".69966" stop-color="#7452ff"/>
      <stop offset=".83346" stop-color="#6c48ff"/>
      <stop offset="1" stop-color="#6a45ff"/>
    </linearGradient>
    <linearGradient id="linear-gradient-4" x1="-689.64165" y1="-1485.97544" x2="-537.71001" y2="-1485.97544" gradientTransform="translate(-204.8338 -1077.13341) rotate(-180)" xlink:href="#linear-gradient-3"/>
    <linearGradient id="linear-gradient-5" x1="-796.58379" y1="230.17504" x2="-591.18145" y2="230.17504" gradientTransform="translate(-258.30524) rotate(-180) scale(1 -1)" gradientUnits="userSpaceOnUse">
      <stop offset="0" stop-color="#5034c2"/>
      <stop offset=".17774" stop-color="#5237c3"/>
      <stop offset=".3205" stop-color="#5b41c7"/>
      <stop offset=".45115" stop-color="#6a52cd"/>
      <stop offset=".57455" stop-color="#7f69d6"/>
      <stop offset=".69294" stop-color="#9a88e2"/>
      <stop offset=".80585" stop-color="#baadf0"/>
      <stop offset=".9" stop-color="#dbd3ff"/>
    </linearGradient>
    <linearGradient id="linear-gradient-6" x1="-264.33109" y1="-1601.67939" x2="-58.92875" y2="-1601.67939" gradientTransform="translate(391.80496 -1166.10201) scale(1 -1)" xlink:href="#linear-gradient-5"/>
    <linearGradient id="linear-gradient-7" x1="624.15527" y1="447.85424" x2="883.02852" y2="447.85424" gradientTransform="translate(549.06514 -333.62372) rotate(135) scale(1 -1)" gradientUnits="userSpaceOnUse">
      <stop offset=".1" stop-color="#a691ff"/>
      <stop offset=".11252" stop-color="#a28dfa"/>
      <stop offset=".23695" stop-color="#806cd5"/>
      <stop offset=".36721" stop-color="#6552b6"/>
      <stop offset=".50313" stop-color="#503d9f"/>
      <stop offset=".647" stop-color="#402e8e"/>
      <stop offset=".80426" stop-color="#372584"/>
      <stop offset="1" stop-color="#352381"/>
    </linearGradient>
    <linearGradient id="linear-gradient-8" x1="75.56328" y1="-1554.8985" x2="334.43652" y2="-1554.8985" gradientTransform="translate(-911.56013 -804.69751) rotate(-45) scale(1 -1)" xlink:href="#linear-gradient-7"/>
    <radialGradient id="radial-gradient-3" cx="332.87621" cy="332.87621" fx="332.87621" fy="332.87621" r="98.45996" gradientTransform="matrix(1, 0, 0, 1, 0, 0)" gradientUnits="userSpaceOnUse">
      <stop offset=".1" stop-color="#fff"/>
      <stop offset="1" stop-color="#a691ff"/>
    </radialGradient>
  </defs>
  <rect width="665.75242" height="665.75242" fill="#1e1449"/>
  <circle cx="332.87621" cy="332.87621" r="202.90248" fill="url(#radial-gradient)"/>
  <circle cx="332.87621" cy="332.87621" r="95.9599" fill="url(#radial-gradient-2)"/>
  <path d="M332.87621,484.80785c-83.7749,0-151.93115-68.15625-151.93115-151.93164s68.15625-151.93115,151.93115-151.93115,151.93164,68.15625,151.93164,151.93115-68.15625,151.93164-151.93164,151.93164Zm0-298.86279c-81.01807,0-146.93115,65.91309-146.93115,146.93115s65.91309,146.93164,146.93115,146.93164,146.93164-65.91309,146.93164-146.93164-65.91309-146.93115-146.93164-146.93115Z" fill="#6a45ff"/>
  <path d="M332.87621,538.27855c-113.25928,0-205.40234-92.14355-205.40234-205.40234S219.61693,127.47387,332.87621,127.47387s205.40234,92.14307,205.40234,205.40234-92.14355,205.40234-205.40234,205.40234Zm0-405.80469c-110.50244,0-200.40234,89.8999-200.40234,200.40234s89.8999,200.40234,200.40234,200.40234,200.40234-89.90039,200.40234-200.40234-89.90039-200.40234-200.40234-200.40234Z" fill="#5034c2"/>
  <path d="M332.87621,591.75023c-69.14795,0-134.15674-26.92773-183.05127-75.82227s-75.82227-113.9043-75.82227-183.05176,26.92773-134.15674,75.82227-183.05127,113.90332-75.82227,183.05127-75.82227,134.15723,26.92773,183.05176,75.82227,75.82227,113.90332,75.82227,183.05127-26.92773,134.15723-75.82227,183.05176-113.9043,75.82227-183.05176,75.82227Zm0-512.74756c-67.81201,0-131.56543,26.40723-179.51562,74.35791-47.95068,47.9502-74.35791,111.70361-74.35791,179.51562s26.40723,131.56543,74.35791,179.5166c47.9502,47.9502,111.70361,74.35742,179.51562,74.35742s131.56543-26.40723,179.5166-74.35742c47.9502-47.95117,74.35742-111.7041,74.35742-179.5166s-26.40723-131.56543-74.35742-179.51562c-47.95117-47.95068-111.7041-74.35791-179.5166-74.35791Z" fill="#352381"/>
  <path d="M332.87621,645.22094c-83.43018,0-161.86719-32.48926-220.86133-91.4834S20.53099,416.30687,20.53099,332.87621,53.02074,171.00902,112.01488,112.01488,249.44603,20.53099,332.87621,20.53099s161.86719,32.48975,220.86133,91.48389,91.4834,137.43115,91.4834,220.86133-32.48926,161.86719-91.4834,220.86133-137.43066,91.4834-220.86133,91.4834Zm0-619.68994c-82.09473,0-159.27588,31.96973-217.32568,90.01953S25.53099,250.78148,25.53099,332.87621s31.96973,159.27637,90.01953,217.32617c58.0498,58.04883,135.23096,90.01855,217.32568,90.01855s159.27637-31.96973,217.32617-90.01855c58.04883-58.0498,90.01855-135.23145,90.01855-217.32617s-31.96973-159.27588-90.01855-217.32568c-58.0498-58.0498-135.23145-90.01953-217.32617-90.01953Z" fill="#1e1449"/>
  <path d="M112.01488,553.73754c-58.99414-58.99414-91.48389-137.43066-91.48389-220.86133S53.02074,171.00902,112.01488,112.01488,249.44603,20.53099,332.87621,20.53099s161.86719,32.48975,220.86133,91.48389l-3.53516,3.53516c-58.0498-58.0498-135.23145-90.01904-217.32617-90.01904S173.60033,57.50023,115.55004,115.55004C57.50023,173.60033,25.53099,250.78148,25.53099,332.87621s31.96924,159.27637,90.01904,217.32617l-3.53516,3.53516Z" fill="url(#linear-gradient)"/>
  <path d="M332.87621,645.22094c-83.43018,0-161.86719-32.48926-220.86133-91.4834l3.53516-3.53516c58.05029,58.0498,135.23145,90.01855,217.32617,90.01855s159.27637-31.96875,217.32617-90.01855,90.01855-135.23145,90.01855-217.32617-31.96875-159.27588-90.01855-217.32617l3.53516-3.53516c58.99414,58.99414,91.4834,137.43115,91.4834,220.86133s-32.48926,161.86719-91.4834,220.86133-137.43066,91.4834-220.86133,91.4834Z" fill="url(#linear-gradient-2)"/>
  <path d="M185.94506,332.87621h-5c0-83.7749,68.15625-151.93115,151.93115-151.93115v5c-81.01807,0-146.93115,65.91309-146.93115,146.93115Z" fill="url(#linear-gradient-3)"/>
  <path d="M332.87621,484.80785v-5c81.01855,0,146.93164-65.91309,146.93164-146.93164h5c0,83.77539-68.15625,151.93164-151.93164,151.93164Z" fill="url(#linear-gradient-4)"/>
  <path d="M538.27855,332.87621h-5c0-110.50244-89.90039-200.40234-200.40234-200.40234v-5c113.25879,0,205.40234,92.14307,205.40234,205.40234Z" fill="url(#linear-gradient-5)"/>
  <path d="M332.87621,538.27855c-113.25928,0-205.40234-92.14355-205.40234-205.40234h5c0,110.50195,89.8999,200.40234,200.40234,200.40234v5Z" fill="url(#linear-gradient-6)"/>
  <path d="M332.87572,591.75023c-69.14746,0-134.15625-26.92773-183.05078-75.82324l3.53516-3.53516c47.95068,47.9502,111.70361,74.3584,179.51562,74.3584s131.56592-26.4082,179.51611-74.3584l3.53516,3.53516c-48.89453,48.89551-113.90332,75.82324-183.05127,75.82324Z" fill="url(#linear-gradient-7)"/>
  <path d="M512.39183,153.3601c-47.9502-47.9502-111.7041-74.35791-179.51611-74.35791s-131.56494,26.40771-179.51562,74.35791l-3.53516-3.53516c48.89453-48.89502,113.90332-75.82275,183.05078-75.82275s134.15674,26.92773,183.05127,75.82275l-3.53516,3.53516Z" fill="url(#linear-gradient-8)"/>
  <circle cx="183.44502" cy="332.87621" r="12.5" fill="#fff"/>
  <circle cx="482.3074" cy="332.87621" r="12.5" fill="#fff"/>
  <ellipse cx="489.13842" cy="332.87621" rx="3.91903" ry="5.89294" fill="#dbd3ff"/>
  <ellipse cx="176.614" cy="332.87621" rx="3.91903" ry="5.89294" fill="#dbd3ff"/>
  <circle cx="332.87621" cy="129.97373" r="12.5" fill="#dbd3ff"/>
  <circle cx="332.87621" cy="535.77869" r="12.5" fill="#dbd3ff"/>
  <circle cx="514.15984" cy="514.15984" r="12.5" fill="#a691ff"/>
  <ellipse cx="509.32958" cy="509.32958" rx="5.89294" ry="3.91903" transform="translate(-210.97122 509.32958) rotate(-45)" fill="#dbd3ff"/>
  <circle cx="551.96972" cy="113.78268" r="12.5" fill="#6a45ff"/>
  <ellipse cx="547.13945" cy="118.61294" rx="3.91903" ry="5.89294" transform="translate(76.38142 421.62694) rotate(-45)" fill="#a691ff"/>
  <ellipse cx="332.87621" cy="528.94767" rx="5.89294" ry="3.91903" fill="#fff"/>
  <ellipse cx="332.87621" cy="136.80475" rx="5.89294" ry="3.91903" fill="#fff"/>
  <circle cx="151.59258" cy="151.59258" r="12.5" fill="#a691ff"/>
  <ellipse cx="156.42284" cy="156.42284" rx="5.89294" ry="3.91903" transform="translate(-64.79246 156.42284) rotate(-45)" fill="#dbd3ff"/>
  <circle cx="113.78263" cy="551.96977" r="12.5" fill="#6a45ff"/>
  <ellipse cx="118.61289" cy="547.13951" rx="3.91903" ry="5.89294" transform="translate(-352.14514 244.12543) rotate(-45)" fill="#a691ff"/>
  <path d="M332.87621,234.41625c-54.29102,0-98.45996,44.16895-98.45996,98.45996s44.16895,98.45996,98.45996,98.45996,98.45996-44.16895,98.45996-98.45996-44.16895-98.45996-98.45996-98.45996Zm50.49078,95.95996c-.36139-7.38251-2.32422-14.34686-5.53113-20.5708l22.55658-13.02313c5.40491,10.06946,8.6076,21.48132,8.99896,33.59393h-26.02441Zm-47.99078-6.82983v-36.15234c6.47357,.35193,12.58624,2.0694,18.06866,4.85651l-18.06866,31.29584Zm22.39563-28.79047c5.26569,3.45056,9.77417,7.95905,13.22485,13.22461l-31.29016,18.06549,18.06531-31.2901Zm-27.39563,28.79047l-18.06866-31.29584c5.48242-2.78711,11.59509-4.50458,18.06866-4.85651v36.15234Zm-4.33032,2.49963l-31.29016-18.06549c3.45068-5.26556,7.95917-9.77405,13.22485-13.22461l18.06531,31.2901Zm-2.49976,4.3302h-36.15259c.35193-6.47357,2.06946-12.5863,4.85675-18.06873l31.29584,18.06873Zm0,5l-31.29596,18.06879c-2.78717-5.48248-4.5047-11.59515-4.85663-18.06879h36.15259Zm2.50018,4.32996l-18.06573,31.29083c-5.26581-3.45068-9.77435-7.95923-13.22504-13.22504l31.29077-18.0658Zm4.3299,2.50037v36.15234c-6.47357-.35193-12.58624-2.0694-18.06866-4.85651l18.06866-31.29584Zm5,0l18.06866,31.29584c-5.48242,2.78711-11.59509,4.50458-18.06866,4.85651v-36.15234Zm4.3299-2.50037l31.29077,18.0658c-3.45068,5.26581-7.95923,9.77435-13.22504,13.22504l-18.06573-31.29083Zm2.50018-4.32996h36.15259c-.35193,6.47363-2.06946,12.5863-4.85663,18.06879l-31.29596-18.06879Zm0-5l31.29584-18.06873c2.78729,5.48242,4.50482,11.59515,4.85675,18.06873h-36.15259Zm33.12286-24.89703c-3.89807-6.01923-9.03674-11.15771-15.05597-15.05573l13.01941-22.55023c9.95117,6.20978,18.37683,14.63544,24.58661,24.58661l-22.55005,13.01935Zm-19.3822-17.56238c-6.22394-3.20685-13.18835-5.16949-20.57074-5.53088v-26.0249c12.11267,.39136,23.52441,3.59406,33.59393,8.99896l-13.02319,22.55682Zm-20.57074-36.55573v-11.91077c15.1853,.40082,29.47986,4.4408,42.04102,11.27887l-5.94507,10.29712c-10.80719-5.82874-23.07416-9.27032-36.09595-9.66522Zm-5,0c-13.02179,.3949-25.28876,3.83649-36.09595,9.66522l-5.94507-10.29712c12.56116-6.83807,26.85571-10.87805,42.04102-11.27887v11.91077Zm0,4.99994v26.0249c-7.38239,.36139-14.3468,2.32404-20.57074,5.53088l-13.02319-22.55682c10.06952-5.40491,21.48126-8.6076,33.59393-8.99896Zm-24.89697,34.06244c-6.01923,3.89801-11.1579,9.0365-15.05597,15.05573l-22.55005-13.01935c6.20978-9.95117,14.63544-18.37683,24.58661-24.58661l13.01941,22.55023Zm-17.56268,19.38196c-3.20691,6.22394-5.16974,13.18829-5.53113,20.5708h-26.02441c.39136-12.11261,3.59406-23.52448,8.99896-33.59393l22.55658,13.02313Zm-36.55548,20.5708h-11.91077c.40082-15.1853,4.4408-29.47986,11.27887-42.04102l10.29712,5.94507c-5.82874,10.80719-9.27032,23.07422-9.66522,36.09595Zm0,5c.3949,13.02173,3.83649,25.28876,9.66522,36.09595l-10.29712,5.94507c-6.83807-12.56116-10.87805-26.85571-11.27887-42.04102h11.91077Zm4.99994,0h26.02441c.36139,7.38245,2.32416,14.34686,5.53107,20.57086l-22.55652,13.02307c-5.40491-10.06946-8.6076-21.48132-8.99896-33.59393Zm34.06219,24.89709c3.89807,6.01929,9.0368,11.15796,15.05609,15.05603l-13.01923,22.54999c-9.95123-6.20984-18.37701-14.6355-24.58685-24.58673l22.54999-13.01929Zm19.38232,17.56268c6.22394,3.20685,13.18829,5.16962,20.57068,5.53101v26.02441c-12.11255-.39136-23.52429-3.59399-33.59375-8.99884l13.02307-22.55658Zm20.57068,36.55536v11.91077c-15.18518-.40082-29.47968-4.44073-42.04083-11.27875l5.94507-10.29718c10.80713,5.82874,23.0741,9.27026,36.09576,9.66516Zm5,0c13.02167-.3949,25.28864-3.83643,36.09576-9.66516l5.94507,10.29718c-12.56116,6.83801-26.85565,10.87793-42.04083,11.27875v-11.91077Zm0-4.99994v-26.02441c7.38239-.36139,14.34674-2.32416,20.57068-5.53101l13.02307,22.55658c-10.06946,5.40485-21.4812,8.60748-33.59375,8.99884Zm24.89691-34.06207c6.01929-3.89807,11.15802-9.03674,15.05609-15.05603l22.54999,13.01929c-6.20984,9.95123-14.63562,18.37689-24.58685,24.58673l-13.01923-22.54999Zm17.56281-19.38226c3.20691-6.224,5.16968-13.18842,5.53107-20.57086h26.02441c-.39136,12.11261-3.59406,23.52448-8.99896,33.59393l-22.55652-13.02307Zm36.55542-20.57086h11.91077c-.40082,15.1853-4.4408,29.47986-11.27887,42.04102l-10.29712-5.94507c5.82874-10.80719,9.27032-23.07422,9.66522-36.09595Zm0-5c-.3949-13.02173-3.83649-25.28876-9.66522-36.09595l10.29712-5.94507c6.83807,12.56116,10.87805,26.85571,11.27887,42.04102h-11.91077Zm-1.87915-46.36475l-10.30054,5.94708c-6.65216-10.70764-15.71014-19.76556-26.41779-26.41772l5.94708-10.3006c12.50629,7.70209,23.06915,18.26495,30.77124,30.77124Zm-128.50073-30.77124l5.94708,10.3006c-10.70764,6.65216-19.76562,15.71008-26.41779,26.41772l-10.30054-5.94708c7.70209-12.50629,18.26495-23.06915,30.77124-30.77124Zm-30.77124,128.50073l10.30054-5.94708c6.65222,10.7077,15.71027,19.76575,26.41797,26.41791l-5.94708,10.3006c-12.50641-7.70209-23.06927-18.26508-30.77142-30.77142Zm128.50055,30.77142l-5.94708-10.3006c10.7077-6.65216,19.76575-15.71021,26.41797-26.41791l10.30054,5.94708c-7.70215,12.50635-18.26501,23.06934-30.77142,30.77142Z" fill="url(#radial-gradient-3)"/>
</svg>