<?xml version="1.0" encoding="UTF-8"?>
<svg xmlns="http://www.w3.org/2000/svg" xmlns:xlink="http://www.w3.org/1999/xlink" viewBox="0 0 1077.02148 555.68994">
  <defs>
    <radialGradient id="radial-gradient" cx="549.22775" cy="502.15505" fx="549.22775" fy="502.15505" r="546.84596" gradientTransform="translate(0 200.86202) scale(1 .6)" gradientUnits="userSpaceOnUse">
      <stop offset=".15177" stop-color="#5034c2"/>
      <stop offset=".23655" stop-color="#412a9e"/>
      <stop offset=".34353" stop-color="#322079"/>
      <stop offset=".45567" stop-color="#25185a"/>
      <stop offset=".57257" stop-color="#1b1243"/>
      <stop offset=".69635" stop-color="#140d32"/>
      <stop offset=".83161" stop-color="#100a28"/>
      <stop offset="1" stop-color="#0f0a25"/>
    </radialGradient>
    <linearGradient id="linear-gradient" x1="702.6599" y1="607.01317" x2="702.6599" y2="491.44293" gradientTransform="matrix(1, 0, 0, 1, 0, 0)" gradientUnits="userSpaceOnUse">
      <stop offset=".80049" stop-color="#0f0a25"/>
      <stop offset=".83005" stop-color="#110b2a"/>
      <stop offset=".86819" stop-color="#170f3a"/>
      <stop offset=".91105" stop-color="#221755"/>
      <stop offset=".95706" stop-color="#32217a"/>
      <stop offset=".96477" stop-color="#352381"/>
    </linearGradient>
    <linearGradient id="linear-gradient-2" x1="381.43389" x2="381.43389" xlink:href="#linear-gradient"/>
    <radialGradient id="radial-gradient-2" cx="542.04683" cy="493.92945" fx="542.04683" fy="493.92945" r="751.17249" gradientTransform="translate(0 74.08942) scale(1 .85)" gradientUnits="userSpaceOnUse">
      <stop offset="0" stop-color="#6a45ff"/>
      <stop offset=".11296" stop-color="#5739d3"/>
      <stop offset=".3082" stop-color="#352381"/>
      <stop offset=".33955" stop-color="#312079"/>
      <stop offset=".5391" stop-color="#1e144b"/>
      <stop offset=".69316" stop-color="#130c2f"/>
      <stop offset=".7821" stop-color="#0f0a25"/>
    </radialGradient>
    <radialGradient id="radial-gradient-3" cx="540.86749" cy="493.92945" fx="540.86749" fy="493.92945" r="529.01128" gradientTransform="translate(0 123.48236) scale(1 .75)" gradientUnits="userSpaceOnUse">
      <stop offset="0" stop-color="#6a45ff"/>
      <stop offset=".14697" stop-color="#5739d3"/>
      <stop offset=".40099" stop-color="#352381"/>
      <stop offset=".82261" stop-color="#0f0a25"/>
    </radialGradient>
    <radialGradient id="radial-gradient-4" r="527.34609" xlink:href="#radial-gradient-3"/>
    <radialGradient id="radial-gradient-5" cx="542.04683" cy="493.3637" fx="542.04683" fy="493.3637" r="311.78822" gradientTransform="matrix(1, 0, 0, 1, 0, 0)" gradientUnits="userSpaceOnUse">
      <stop offset=".10082" stop-color="#a691ff"/>
      <stop offset=".26256" stop-color="#9a82ff" stop-opacity=".80283"/>
      <stop offset=".62883" stop-color="#8061ff" stop-opacity=".37535"/>
      <stop offset=".88223" stop-color="#704dff" stop-opacity=".10527"/>
      <stop offset="1" stop-color="#6a45ff" stop-opacity="0"/>
    </radialGradient>
    <radialGradient id="radial-gradient-6" cx="542.04683" cy="506.56601" fx="542.04683" fy="506.56601" r="202.07778" gradientTransform="matrix(1, 0, 0, 1, 0, 0)" gradientUnits="userSpaceOnUse">
      <stop offset=".10082" stop-color="#fff"/>
      <stop offset=".26256" stop-color="#e1daff" stop-opacity=".80283"/>
      <stop offset=".62883" stop-color="#a18aff" stop-opacity=".37535"/>
      <stop offset=".88223" stop-color="#7958ff" stop-opacity=".10527"/>
      <stop offset="1" stop-color="#6a45ff" stop-opacity="0"/>
    </radialGradient>
    <linearGradient id="linear-gradient-3" x1="240.26343" y1="418.67041" x2="240.26343" y2="213.84473" gradientTransform="matrix(1, 0, 0, 1, 0, 0)" gradientUnits="userSpaceOnUse">
      <stop offset=".1" stop-color="#5034c2"/>
      <stop offset=".35919" stop-color="#684ed3"/>
      <stop offset=".89918" stop-color="#a691ff"/>
    </linearGradient>
    <linearGradient id="linear-gradient-4" x1="384.58008" y1="114.33398" x2="810.08203" y2="114.33398" gradientTransform="matrix(1, 0, 0, 1, 0, 0)" gradientUnits="userSpaceOnUse">
      <stop offset=".1" stop-color="#352381"/>
      <stop offset=".29718" stop-color="#402a9b"/>
      <stop offset=".71805" stop-color="#5c3cdf"/>
      <stop offset=".89918" stop-color="#6a45ff"/>
    </linearGradient>
    <linearGradient id="linear-gradient-5" x1="684.39551" y1="117.37866" x2="1049.87793" y2="117.37866" gradientTransform="matrix(1, 0, 0, 1, 0, 0)" gradientUnits="userSpaceOnUse">
      <stop offset=".1" stop-color="#1e1449"/>
      <stop offset=".24164" stop-color="#291b63"/>
      <stop offset=".5463" stop-color="#452da8"/>
      <stop offset=".89918" stop-color="#6a45ff"/>
    </linearGradient>
    <linearGradient id="linear-gradient-6" x1="84.98242" y1="89.20557" x2="365.52588" y2="89.20557" xlink:href="#linear-gradient-5"/>
    <linearGradient id="linear-gradient-7" x1="120.20532" y1="485.56006" x2="120.20532" y2="276.56787" xlink:href="#linear-gradient-5"/>
    <linearGradient id="linear-gradient-8" x1="411.96411" y1="489.70459" x2="411.96411" y2="427.54053" gradientTransform="matrix(1, 0, 0, 1, 0, 0)" gradientUnits="userSpaceOnUse">
      <stop offset=".1" stop-color="#a691ff" stop-opacity="0"/>
      <stop offset=".13133" stop-color="#ac99ff" stop-opacity=".0746"/>
      <stop offset=".24106" stop-color="#c2b3ff" stop-opacity=".31631"/>
      <stop offset=".34988" stop-color="#d4caff" stop-opacity=".52486"/>
      <stop offset=".45521" stop-color="#e3ddff" stop-opacity=".69541"/>
      <stop offset=".55633" stop-color="#efecff" stop-opacity=".82806"/>
      <stop offset=".65215" stop-color="#f8f6ff" stop-opacity=".92296"/>
      <stop offset=".74044" stop-color="#fdfcff" stop-opacity=".98024"/>
      <stop offset=".8142" stop-color="#fff"/>
    </linearGradient>
    <linearGradient id="linear-gradient-9" x1="412.35107" y1="506.52783" x2="412.35107" y2="345.43604" gradientTransform="matrix(1, 0, 0, 1, 0, 0)" gradientUnits="userSpaceOnUse">
      <stop offset=".1" stop-color="#a691ff" stop-opacity="0"/>
      <stop offset=".13133" stop-color="#a995ff" stop-opacity=".0746"/>
      <stop offset=".24106" stop-color="#b6a5ff" stop-opacity=".31631"/>
      <stop offset=".34988" stop-color="#c1b3ff" stop-opacity=".52486"/>
      <stop offset=".45521" stop-color="#cabeff" stop-opacity=".69541"/>
      <stop offset=".55633" stop-color="#d1c7ff" stop-opacity=".82806"/>
      <stop offset=".65215" stop-color="#d6cdff" stop-opacity=".92296"/>
      <stop offset=".74044" stop-color="#d9d1ff" stop-opacity=".98024"/>
      <stop offset=".8142" stop-color="#dbd3ff"/>
    </linearGradient>
    <linearGradient id="linear-gradient-10" x1="542.04688" y1="344.58936" x2="718.49707" y2="344.58936" gradientTransform="matrix(1, 0, 0, 1, 0, 0)" gradientUnits="userSpaceOnUse">
      <stop offset=".1" stop-color="#6a45ff"/>
      <stop offset=".23891" stop-color="#7f5fff"/>
      <stop offset=".53768" stop-color="#b6a4ff"/>
      <stop offset=".89918" stop-color="#fff"/>
    </linearGradient>
    <linearGradient id="linear-gradient-11" x1="649.31445" y1="310.68433" x2="801.43848" y2="310.68433" gradientTransform="matrix(1, 0, 0, 1, 0, 0)" gradientUnits="userSpaceOnUse">
      <stop offset=".1" stop-color="#6a45ff"/>
      <stop offset=".27708" stop-color="#7f5fff"/>
      <stop offset=".65479" stop-color="#b5a3ff"/>
      <stop offset=".89918" stop-color="#dbd3ff"/>
    </linearGradient>
    <linearGradient id="linear-gradient-12" x1="542.04688" y1="214.65845" x2="864.6748" y2="214.65845" gradientTransform="matrix(1, 0, 0, 1, 0, 0)" gradientUnits="userSpaceOnUse">
      <stop offset=".1" stop-color="#352381"/>
      <stop offset=".29714" stop-color="#4c3a9b"/>
      <stop offset=".71792" stop-color="#8a75df"/>
      <stop offset=".89901" stop-color="#a691ff"/>
    </linearGradient>
    <linearGradient id="linear-gradient-13" x1="643.36719" y1="487.3833" x2="949.02441" y2="487.3833" gradientTransform="matrix(1, 0, 0, 1, 0, 0)" gradientUnits="userSpaceOnUse">
      <stop offset=".10082" stop-color="#6a45ff"/>
      <stop offset=".4537" stop-color="#452da8"/>
      <stop offset=".75836" stop-color="#291b63"/>
      <stop offset=".9" stop-color="#1e1449"/>
    </linearGradient>
    <radialGradient id="New_Gradient_Swatch_2" data-name="New Gradient Swatch 2" cx="541.53258" cy="422.43313" fx="541.53258" fy="422.43313" r="337.34416" gradientTransform="matrix(1, 0, 0, 1, 0, 0)" gradientUnits="userSpaceOnUse">
      <stop offset=".1" stop-color="#6a45ff"/>
      <stop offset=".10176" stop-color="#6944fd"/>
      <stop offset=".19524" stop-color="#5437cb"/>
      <stop offset=".29124" stop-color="#422b9f"/>
      <stop offset=".39181" stop-color="#322079"/>
      <stop offset=".49574" stop-color="#25185a"/>
      <stop offset=".60409" stop-color="#1b1243"/>
      <stop offset=".71878" stop-color="#140d32"/>
      <stop offset=".84407" stop-color="#100a28"/>
      <stop offset="1" stop-color="#0f0a25"/>
    </radialGradient>
    <linearGradient id="linear-gradient-14" x1="542.04711" y1="435.37645" x2="542.04711" y2="61.59179" gradientTransform="matrix(1, 0, 0, 1, 0, 0)" gradientUnits="userSpaceOnUse">
      <stop offset="0" stop-color="#fff"/>
      <stop offset=".26331" stop-color="#e0d9ff"/>
      <stop offset=".58558" stop-color="#c0b2ff"/>
      <stop offset=".84248" stop-color="#ad99ff"/>
      <stop offset="1" stop-color="#a691ff"/>
    </linearGradient>
  </defs>
  <g id="BG">
    <rect width="1077.02148" height="555.68994" fill="#0f0a25"/>
  </g>
  <g id="Gravity">
    <g>
      <ellipse cx="542.04686" cy="296.9709" rx="413.24875" ry="207.05697" fill="url(#radial-gradient)"/>
      <g>
        <path d="M634.13378,492.72997l.84961,4.92773c.0752-.0127,7.66406-1.27441,20.51855-1.17871,11.88379,.0957,30.85742,1.41309,53.7627,7.14551,15.53668,3.88782,34.06775,10.1441,54.37823,20.17029,2.52313-.58588,5.03802-1.1806,7.54315-1.78687-22.87433-11.85675-43.73901-19.00787-60.98779-23.30432-44.79688-11.15723-74.80859-6.19043-76.06445-5.97363Z" fill="url(#linear-gradient)"/>
        <path d="M428.59129,496.47899c12.89111-.09863,20.44385,1.16504,20.51904,1.17871l.84961-4.92773c-1.25537-.2168-31.2666-5.18359-76.06396,5.97363-17.24896,4.29645-38.11383,11.44757-60.98816,23.30432,2.50507,.60626,5.01996,1.20099,7.54315,1.78687,20.31042-10.02625,38.84131-16.28247,54.37762-20.17029,22.90576-5.73242,41.87939-7.0498,53.7627-7.14551Z" fill="url(#linear-gradient-2)"/>
      </g>
      <path d="M716.15526,430.61181c-45.26172,28.60602-82.90515,52.37305-133.79541,60.65558,21.34442-8.72528,48.39813-26.29022,84.77393-60.86456,4.76465-4.5293,10.58008-10.24609,17.31445-16.86523,55.24396-54.30084,175.65625-172.65399,340.70312-251.58618-1.16455-1.28802-2.35278-2.56909-3.55493-3.84576-165.06274,79.27625-285.36414,197.52039-340.65308,251.86652-6.71875,6.60352-12.52051,12.30566-17.25488,16.80566-49.93726,47.46515-81.64978,62.22974-105.09998,66.27557,34.49542-24.25543,80.48706-114.01978,125.18005-201.25995,9.5293-18.60156,18.53125-36.1709,27.25195-52.74707,41.01843-77.96442,88.78784-141.03351,129.88611-187.58636-1.70178-.58807-3.396-1.18286-5.10974-1.76031-41.01147,46.65216-88.42334,109.5105-129.20215,187.01855-8.7334,16.6001-17.74023,34.18164-27.27637,52.79492-45.5885,88.98755-102.03882,199.16602-134.77148,204.67487V5.01525c-.83435-.00195-1.6651-.01526-2.5-.01526s-1.66565,.01331-2.5,.01526V494.18804c-32.7323-5.50903-89.18353-115.68835-134.77246-204.67584-9.53564-18.61328-18.54248-36.19434-27.27588-52.79395-40.77844-77.50806-88.19-140.36639-129.20148-187.01855-1.71381,.57745-3.40796,1.17224-5.1098,1.76031,41.10693,46.56244,88.87183,109.62872,129.88647,187.58636,8.72021,16.5752,17.72119,34.14453,27.25049,52.74512,44.69434,87.24121,90.68628,177.00647,125.1814,201.26202-23.45013-4.04572-55.16241-18.8103-105.10034-66.2757-4.73486-4.5-10.5376-10.2041-17.25635-16.80762-55.28943-54.34521-175.59045-172.58826-340.65137-251.8642-1.20233,1.27673-2.39044,2.5578-3.55505,3.84589,165.04529,78.93158,285.45746,197.28308,340.70154,251.58374,6.73486,6.62012,12.55127,12.33691,17.31689,16.86719,36.37537,34.5744,63.42896,52.1394,84.77338,60.86462-50.89038-8.28247-88.53351-32.04956-133.79535-60.65564-71.57117-45.23413-162.76147-102.86517-355.86676-129.62109,.29608,1.73639,.63275,3.46844,.99225,5.198,190.93048,26.73138,281.25983,83.81299,352.20361,128.64966,56.38379,35.63519,101.08716,63.85565,174.03564,64.55109,.08081,.00189,.16254,.00476,.24316,.00647v1.91412h5v-1.91412c.08063-.00171,.16248-.00458,.24329-.00647,72.94843-.69543,117.65179-28.91589,174.03601-64.55109,70.94373-44.83661,161.27271-101.91821,352.20312-128.64966,.35938-1.72955,.69617-3.46161,.99219-5.19794-193.10486,26.75598-284.29517,84.38696-355.86621,129.62103Z" fill="url(#radial-gradient-2)"/>
      <path d="M887.70604,419.6577c-83.19922,5.29102-140.7627,26.97559-159.15527,40.25977l2.92773,4.05273c17.92188-12.94434,74.40234-34.09863,156.54492-39.32227,27.29297-1.73651,60.69653-1.86206,98.526,1.94476,1.90222-1.47058,3.78186-2.94891,5.62683-4.43872-40.25562-4.38428-75.72339-4.32538-104.47021-2.49628Z" fill="url(#radial-gradient-3)"/>
      <path d="M196.0703,424.64794c82.14209,5.22363,138.62256,26.37793,156.54541,39.32227l2.92773-4.05273c-11.13184-8.04004-31.89697-16.66992-56.97021-23.67676-30.56445-8.54102-65.89941-14.27539-102.18555-16.58301-28.74701-1.82788-64.21411-1.8866-104.46869,2.49725,1.84448,1.48938,3.72351,2.96722,5.62512,4.43744,37.82983-3.80701,71.2334-3.6814,98.52618-1.94446Z" fill="url(#radial-gradient-4)"/>
      <path d="M542.04688,540.63623c-139.82422,0-271.31836-27.30176-370.25977-76.87695-48.24854-24.17383-86.15576-52.35645-112.66895-83.76465-27.61328-32.71094-41.61426-67.50879-41.61426-103.42676s14.00098-70.71582,41.61426-103.42676c26.51318-31.40771,64.42041-59.59033,112.66895-83.76465C270.72852,39.80176,402.22266,12.5,542.04688,12.5s271.31836,27.30176,370.25977,76.87646c48.24805,24.17432,86.15527,52.35693,112.66895,83.76465,27.61328,32.71094,41.61426,67.50879,41.61426,103.42676s-14.00098,70.71582-41.61426,103.42676c-26.51367,31.4082-64.4209,59.59082-112.66895,83.76465-98.94141,49.5752-230.43555,76.87695-370.25977,76.87695Zm0-523.13623C255.56982,17.5,22.50391,133.71729,22.50391,276.56787s233.06592,259.06836,519.54297,259.06836,519.54297-116.21777,519.54297-259.06836S828.52344,17.5,542.04688,17.5Z" fill="#1e1449"/>
      <path d="M542.04688,503.81006c-93.95508,0-182.32568-17.58789-248.83301-49.52344-67.09082-32.21484-104.03955-75.26465-104.03955-121.21777s36.94873-89.00244,104.03955-121.21826c66.50732-31.93506,154.87793-49.52295,248.83301-49.52295s182.3252,17.58789,248.83301,49.52295c67.09082,32.21582,104.03906,75.26514,104.03906,121.21826s-36.94824,89.00293-104.03906,121.21777c-66.50781,31.93555-154.87793,49.52344-248.83301,49.52344Zm0-336.48242c-191.81738,0-347.87256,74.35107-347.87256,165.74121s156.05518,165.74121,347.87256,165.74121,347.87207-74.35156,347.87207-165.74121-156.05469-165.74121-347.87207-165.74121Z" fill="#5034c2"/>
      <path d="M666.69531,489.70459l-3.58398-3.48633c8.65039-8.8916,13.03613-18.38086,13.03613-28.20508,0-36.36133-60.15723-65.94336-134.10059-65.94336s-134.10059,29.58203-134.10059,65.94336c0,9.82422,4.38574,19.31348,13.03564,28.20508l-3.58398,3.48633c-9.58936-9.85742-14.45166-20.51953-14.45166-31.69141,0-19.27734,14.69922-37.25879,41.38965-50.63184,26.14111-13.09863,60.84229-20.31152,97.71094-20.31152s71.57031,7.21289,97.71094,20.31152c26.69043,13.37305,41.38965,31.35449,41.38965,50.63184,0,11.17188-4.8623,21.83496-14.45215,31.69141Z" fill="#6a45ff"/>
      <path d="M713.32422,472.93311l-3.54688-3.52344c14.84961-14.95215,22.69824-31.8457,22.69824-48.85352,0-57.01562-85.42578-103.40039-190.42871-103.40039s-190.42871,46.38477-190.42871,103.40039c0,17.00781,7.84912,33.90137,22.69873,48.85352l-3.54785,3.52344c-15.7998-15.90918-24.15088-34.02051-24.15088-52.37695,0-29.24121,20.52881-56.61328,57.80469-77.07422,36.80176-20.20117,85.67773-31.32617,137.62402-31.32617s100.82227,11.125,137.62402,31.32617c37.27637,20.46094,57.80469,47.83301,57.80469,77.07422,0,18.35645-8.35156,36.46777-24.15137,52.37695Z" fill="#6a45ff"/>
      <path d="M483.38818,502.65576c-4.58105-3.90625-6.90381-8.19629-6.90381-12.75098,0-15.65625,28.79834-27.9209,65.5625-27.9209s65.5625,12.26465,65.5625,27.9209c0,4.55371-2.32227,8.84375-6.90332,12.75098l-3.24414-3.80469c3.41504-2.91309,5.14746-5.92285,5.14746-8.94629,0-11.06934-24.33594-22.9209-60.5625-22.9209s-60.5625,11.85156-60.5625,22.9209c0,3.02344,1.73193,6.0332,5.14795,8.94629l-3.24414,3.80469Z" fill="#6a45ff"/>
      <path d="M542.04688,506.52783c-69.00879,0-133.92578-13.84375-182.79346-38.98047-49.39502-25.4082-76.59814-59.38184-76.59814-95.66211s27.20312-70.25488,76.59814-95.66309c48.86768-25.13672,113.78467-38.98047,182.79346-38.98047s133.92578,13.84375,182.79297,38.98047c49.39551,25.4082,76.59863,59.38281,76.59863,95.66309s-27.20312,70.25391-76.59863,95.66211c-48.86719,25.13672-113.78418,38.98047-182.79297,38.98047Zm0-264.28613c-140.27197,0-254.3916,58.1582-254.3916,129.64355s114.11963,129.64258,254.3916,129.64258,254.3916-58.15723,254.3916-129.64258-114.11914-129.64355-254.3916-129.64355Z" fill="#6a45ff"/>
      <path d="M542.04688,506.52783c-110.76416,0-214.9375-21.63184-293.33057-60.91016-78.94238-39.55371-122.41797-92.34375-122.41797-148.64648s43.47559-109.09277,122.41797-148.64648c78.39307-39.27881,182.56641-60.91064,293.33057-60.91064s214.9375,21.63184,293.33105,60.91064c78.94238,39.55371,122.41797,92.34424,122.41797,148.64648s-43.47559,109.09277-122.41797,148.64648c-78.39258,39.27832-182.56641,60.91016-293.33105,60.91016Zm0-414.11377c-226.48779,0-410.74854,91.76367-410.74854,204.55713s184.26074,204.55664,410.74854,204.55664,410.74902-91.76367,410.74902-204.55664-184.26172-204.55713-410.74902-204.55713Z" fill="#352381"/>
      <path d="M887.70604,419.6577c-54.32471,3.45477-97.71558,13.89874-126.41339,24.42987,20.95734-17.10602,34.0932-36.46039,38.48761-56.87048,61.86426-32.07983,144.33484-63.25696,271.24854-81.02637,.35938-1.72845,.6958-3.45941,.99182-5.1947-126.32361,17.50446-209.04456,48.21814-271.17847,80.03387,.38562-3.02979,.59631-6.07812,.59631-9.14465,0-17.3653-6.24792-34.19897-18.16284-49.82129,62.1543-52.88007,144.19775-113.40021,241.87476-160.11359-1.16357-1.2868-2.35034-2.56659-3.55151-3.84204-97.48511,46.82043-179.36096,107.22968-241.44824,160.04437-12.93311-15.49377-31.54462-29.70563-55.31079-41.93054-8.4939-4.36914-17.48279-8.38867-26.88367-12.06207,4.44135-8.61206,8.78729-16.98401,13.06433-25.11371,41.01843-77.96442,88.78784-141.03351,129.88611-187.58636-1.70178-.58807-3.396-1.18286-5.10974-1.76031-41.01147,46.65216-88.42334,109.5105-129.20215,187.01855-4.36755,8.30164-8.80347,16.84875-13.33978,25.64758-43.09778-16.065-94.59302-24.8457-148.70807-25.10846V5.01525c-.83435-.00195-1.6651-.01526-2.5-.01526s-1.66565,.01331-2.5,.01526V237.25737c-54.11499,.26276-105.61029,9.04346-148.70831,25.10846-4.53638-8.79889-8.97241-17.34601-13.34003-25.64758-40.77844-77.50806-88.19-140.36639-129.20148-187.01855-1.71381,.57745-3.40796,1.17224-5.1098,1.76031,41.10693,46.56244,88.87183,109.62872,129.88647,187.58636,4.27692,8.12946,8.62268,16.50146,13.0639,25.11359-9.40106,3.67346-18.39014,7.69299-26.88422,12.06219-23.76605,12.22498-42.37744,26.43695-55.31055,41.93079-62.08722-52.81439-143.96295-113.22363-241.44788-160.04425-1.20111,1.27545-2.388,2.5553-3.55151,3.8421,97.67664,46.71332,179.72028,107.23334,241.87457,160.11316-11.91492,15.62231-18.16278,32.45599-18.16278,49.82129,0,3.06641,.21069,6.11469,.59631,9.14441-62.13391-31.81573-144.85486-62.5293-271.17853-80.03369,.29596,1.73523,.63251,3.46619,.99182,5.1947,126.91345,17.76941,209.38422,48.94635,271.24854,81.02618,4.38159,20.35077,17.45691,39.651,38.3078,56.72034-7.37183-2.69611-15.44745-5.29303-24.04797-7.69647-30.56445-8.54102-65.89941-14.27539-102.18555-16.58301-28.74701-1.82788-64.21411-1.8866-104.46869,2.49725,1.84448,1.48938,3.72351,2.96722,5.62512,4.43744,37.82983-3.80701,71.2334-3.6814,98.52618-1.94446,69.20679,4.40106,120.19366,20.10992,145.25604,32.69006,5.60431,3.53497,11.5791,6.94403,17.92706,10.20935,11.86865,6.10504,24.69073,11.53778,38.28149,16.27399,17.69379,3.86554,36.18018,7.04376,55.30902,9.46338-11.1496-2.13489-21.94293-4.64398-32.2901-7.52246-7.47565-7.83356-11.65247-16.12524-12.45459-24.6969,22.05542,12.62439,43.91772,23.04517,68.44525,29.81873,.13513,1.74451,.60699,3.4491,1.43091,5.1051,.38854,.90033,.49909,1.1098,.66536,1.47351,3.26306,.37411,7.48217,.91449,7.48217,.91449-.70665-.54038-.73437-.7518-1.81105-1.85095-1.19958-1.40173-2.02069-2.81989-2.45758-4.24609,17.41907,4.36346,36.23468,6.90704,57.4494,7.10931,.08081,.00189,.16254,.00476,.24316,.00647h5c.08063-.00171,.16248-.00458,.24329-.00647,21.21466-.20227,40.03021-2.74585,57.44922-7.10931-.43695,1.42621-2.66361,4.16883-4.1956,6.05548,2.47724-.28202,4.983-.64263,7.49356-.92692,.98624-2.02438,1.83838-4.1859,2.01192-6.52456,24.52747-6.7735,46.38977-17.19434,68.44519-29.8186-.80212,8.57166-4.97894,16.86334-12.4552,24.69696-10.34674,2.8783-21.13959,5.38727-32.28864,7.52209,19.12836-2.41962,37.61438-5.59778,55.30768-9.4632,13.59076-4.73621,26.41296-10.16901,38.28156-16.27405,6.3476-3.26508,12.32208-6.67389,17.92609-10.20862,25.06122-12.5802,76.04901-28.28967,145.25751-32.6908,27.29297-1.73651,60.69653-1.86206,98.526,1.94476,1.90222-1.47058,3.78186-2.94891,5.62683-4.43872-40.25562-4.38428-75.72339-4.32538-104.47021-2.49628Zm-499.27228-151.03906c3.88214,7.54333,7.83612,15.25903,11.89044,23.17285,7.34961,14.34601,14.73413,28.75879,22.09698,42.93878-6.26819,2.69318-12.27948,5.61243-17.99835,8.75165-16.19025,8.8869-29.21631,19.07886-38.77808,30.16016-16.63458-15.74353-35.9989-33.48126-57.90234-52.24622,17.47925-20.98743,45.51917-39.15564,80.69135-52.77722Zm14.71515,141.35156c-9.42963-9.26855-20.75574-20.39996-33.86676-32.87555,12.76642-14.90265,31.87457-27.89191,55.44458-37.93073,11.30353,21.70422,22.54114,42.77948,33.50739,62.13196-4.84808,1.86304-9.50354,3.88342-13.89819,6.08545-10.48022,5.25104-19.10229,11.21503-25.72095,17.68658-4.38208-4.20331-9.57104-9.30377-15.46606-15.09772Zm12.01532,18.71637c-6.57178,7.44385-10.58722,15.47949-11.81335,23.82715-11.52277-6.80969-23.18884-14.17676-35.41193-21.90192-5.31885-3.36157-10.74646-6.79175-16.31573-10.27252,.05304-13.92908,5.21008-27.21814,14.49841-39.34955,12.9696,12.34534,24.18048,23.36346,33.5224,32.5459,5.91107,5.81036,11.11365,10.92377,15.5202,15.15094Zm-127.50897-56.80133c0-16.40442,6.02448-32.10327,16.98065-46.56226,21.88849,18.75616,41.23157,36.48132,57.83789,52.20337-9.63428,12.41534-15.02808,25.84918-15.76013,39.75537-17.52545-10.87415-36.50989-22.18524-57.95978-33.40533-.71436-3.94989-1.09863-7.94781-1.09863-11.99115Zm67.87201,88.05463l.01617-.0224c-3.28088-2.36963-7.41791-4.79047-12.23608-7.20593-27.67139-17.63367-46.505-39.01294-53.06628-62.3855,20.83398,11.0517,39.32428,22.16187,56.43683,32.82141,.59967,14.0058,6.04797,27.81464,15.94769,40.55347-2.41858-1.22748-4.7774-2.48523-7.09833-3.76105Zm56.35028,23.2879c-13.45093-4.09955-26.09882-8.81329-37.79749-14.06573-12.98657-13.16278-20.55383-27.81732-22.13818-42.72369,4.52747,2.83954,8.96411,5.64319,13.32617,8.40002,13.01935,8.22839,25.41431,16.05304,37.67969,23.24316,.01562,8.74261,3.02203,17.17041,8.92981,25.14624Zm65.28027,2.60742c-24.70862-6.92206-46.73407-17.6189-69.08722-30.5589,.68445-8.19989,4.42352-16.01813,10.6792-23.18573,24.34241,22.9563,44.47058,38.23523,61.48602,48.33081-1.42163,1.72766-2.46033,3.53784-3.078,5.41382Zm-54.96552-57.37604c9.1861-8.9718,22.41595-16.77594,38.50671-22.83246,14.05566,24.55872,27.63489,46.12097,40.30011,62.36151-7.0484,2.38037-12.87537,5.37292-17.07672,8.80927-16.90375-9.87274-37.07263-25.08563-61.7301-48.33832Zm59.80511,58.67523c.50299-1.41083,1.37891-2.81641,2.6076-4.19269,6.10394,3.41235,11.79492,6.14514,17.12927,8.32574-6.80096-1.10687-13.35925-2.49854-19.73688-4.13306Zm6.58997-7.69757c3.84796-2.75983,9.15936-5.28326,15.70312-7.32648,7.43958,9.10059,14.54315,16.25177,21.21509,20.94318-10.39246-1.79297-22.41315-5.70001-36.91821-13.6167Zm50.95947,14.75122c-8.56158-1.44098-18.74799-10.0531-29.93622-23.5639,8.47894-2.10455,18.5932-3.44165,29.93622-3.61469v27.17859Zm0-32.1781c-12.36127,.1886-23.74237,1.76843-33.33899,4.39301-12.65649-16.0929-26.47473-37.9624-40.60901-62.53607,21.06311-7.21313,46.51001-11.53326,73.948-11.78143v69.9245Zm0-74.90955c-27.71094,.24622-54.09412,4.57074-76.44092,12.40912-11.21497-19.69348-22.59448-40.95795-33.71808-62.2627,30.9444-12.37073,68.99597-19.78442,110.159-20.07385v69.92743Zm0-74.92792c-40.98523,.28229-79.95892,7.49255-112.4776,20.6264-7.61182-14.62695-15.08923-29.22156-22.29486-43.28668-3.96442-7.73834-7.83313-15.2879-11.63306-22.6731,41.25964-15.23236,91.79938-24.31146,146.40552-24.58124v69.91461Zm256.8916,59.71277c0,4.0434-.38428,8.04144-1.09863,11.99139-21.44995,11.22003-40.43439,22.53119-57.95978,33.40533-.73193-13.90631-6.12561-27.34021-15.75989-39.75562,16.60626-15.72217,35.94934-33.44733,57.83771-52.20343,10.95618,14.45898,16.98059,30.1579,16.98059,46.56232Zm-111.99023,41.65234c9.34235-9.18286,20.55365-20.2016,33.52399-32.54767,9.28833,12.13141,14.44531,25.42047,14.49829,39.34961-5.56915,3.48065-10.99658,6.91077-16.31525,10.27228-12.22321,7.72522-23.88947,15.09241-35.41241,21.90216-1.22601-8.3476-5.24133-16.38312-11.81293-23.8269,4.40576-4.2265,9.60754-9.33984,15.51831-15.14948Zm-18.96954,11.53027c-6.61865-6.47156-15.24066-12.43549-25.72089-17.68652-4.39447-2.20197-9.04974-4.22229-13.89764-6.08533,10.96625-19.35248,22.2038-40.42773,33.50714-62.13196,23.56982,10.03882,42.67792,23.02802,55.44427,37.93054-13.11169,12.47638-24.43835,23.60846-33.86823,32.87756-5.89496,5.79388-11.08307,10.89276-15.46466,15.0957Zm30.18134-156.44928c35.17212,13.62158,63.21185,31.78967,80.69104,52.77698-21.90326,18.76489-41.26758,36.50269-57.90204,52.24634-9.56177-11.0813-22.58777-21.27313-38.77814-30.15997-5.71875-3.13916-11.72992-6.05841-17.99805-8.75153,7.36249-14.17944,14.74658-28.59155,22.0957-42.93695,4.05457-7.91467,8.00891-15.63098,11.89148-23.17487Zm-151.11316-26.36072c54.6062,.26978,105.14575,9.34882,146.40533,24.58112-3.80011,7.38562-7.66913,14.93555-11.63385,22.67419-7.20544,14.06476-14.68256,28.659-22.29413,43.28558-32.51855-13.13373-71.49219-20.34399-112.47736-20.62628v-69.91461Zm0,74.9151c41.16296,.28943,79.21448,7.703,110.15881,20.07373-11.12354,21.30475-22.50293,42.56934-33.71783,62.26276-22.34656-7.83832-48.7298-12.16284-76.44098-12.40906v-69.92743Zm0,74.91248c27.43799,.24817,52.88495,4.5683,73.94806,11.78143-14.13422,24.57367-27.95239,46.4433-40.60895,62.53619-9.59668-2.62463-20.97791-4.20453-33.33911-4.39313v-69.9245Zm0,102.1026v-27.17859c11.34302,.1731,21.45746,1.51013,29.93634,3.61475-11.18823,13.51074-21.37463,22.12292-29.93634,23.56384Zm35.25665-22.07751c6.54358,2.04315,11.85486,4.56659,15.70276,7.32635-14.50482,7.91644-26.52545,11.82355-36.91779,13.61652,6.67194-4.69141,13.77551-11.84241,21.21503-20.94287Zm2.55634,19.15686c5.33423-2.18054,11.02515-4.91327,17.12897-8.32556,1.22864,1.37628,2.10455,2.78186,2.60748,4.19263-6.37744,1.63452-12.93561,3.02606-19.73645,4.13293Zm17.81146-14.46985c-4.20135-3.43628-10.02808-6.42871-17.07629-8.80908,12.66534-16.24054,26.24457-37.8028,40.30017-62.36157,16.09058,6.05646,29.32025,13.86053,38.50623,22.83228-24.65735,23.25275-44.82629,38.46564-61.7301,48.33838Zm6.76459,9.03766c-.61768-1.87598-1.65643-3.68604-3.078-5.4137,17.0155-10.09546,37.14374-25.37427,61.48645-48.33044,6.25549,7.16754,9.99451,14.98572,10.67883,23.18549-22.35321,12.93988-44.37878,23.63666-69.08728,30.55865Zm65.28027-2.6073c5.9079-7.97546,8.91412-16.40393,8.92981-25.14624,12.2655-7.19019,24.66058-15.01483,37.68018-23.24329,4.36194-2.75677,8.79834-5.5603,13.32562-8.39972-1.58429,14.90619-9.15106,29.56049-22.13745,42.72314-11.69885,5.25256-24.34692,9.96655-37.79816,14.0661Zm68.10547-30.22333c-4.88586,2.45123-8.83112,4.78961-11.77087,6.9129l.01605,.02228c-2.32129,1.27606-4.68048,2.53394-7.09949,3.76166,9.90002-12.73889,15.34875-26.54773,15.94849-40.55365,17.11255-10.65955,35.60272-21.76971,56.43671-32.82147-6.59766,23.50238-25.60706,44.98859-53.53088,62.67828Z" fill="url(#radial-gradient-5)"/>
      <path d="M1072.02049,300.9962l.00012-.00018c-126.32361,17.50446-209.04456,48.21814-271.17847,80.03387,.38562-3.02979,.59631-6.07812,.59631-9.14465,0-17.3653-6.24792-34.19897-18.16284-49.82129,62.1543-52.88007,144.19775-113.40021,241.87476-160.11359l-.00049-.00043c-1.16333-1.28668-2.34998-2.56628-3.55103-3.84161-97.48511,46.82043-179.36096,107.22968-241.44824,160.04437-12.93311-15.49377-31.54462-29.70563-55.31079-41.93054-8.4939-4.36914-17.48279-8.38867-26.88367-12.06207,4.44135-8.61206,8.78729-16.98401,13.06433-25.11371,41.01843-77.96442,88.78784-141.03351,129.88611-187.58636-1.70178-.58807-3.396-1.18286-5.10974-1.76031-41.01147,46.65216-88.42334,109.5105-129.20215,187.01855-4.36755,8.30164-8.80347,16.84875-13.33978,25.64758-43.09778-16.065-94.59302-24.8457-148.70807-25.10846V5.01525c-.83435-.00195-1.6651-.01526-2.5-.01526s-1.66565,.01331-2.5,.01526V237.25737c-54.11499,.26276-105.61029,9.04346-148.70831,25.10846-4.53638-8.79889-8.97241-17.34601-13.34003-25.64758-40.77844-77.50806-88.19-140.36639-129.20148-187.01855-.40869,.1377-.81171,.2804-1.21851,.41974-1.30298,.44171-2.59528,.89276-3.8913,1.34058,41.10693,46.56244,88.87183,109.62872,129.88647,187.58636,4.27692,8.12946,8.62268,16.50146,13.0639,25.11359-9.40106,3.67346-18.39014,7.69299-26.88422,12.06219-23.76605,12.22498-42.37744,26.43695-55.31055,41.93079-62.08722-52.81439-143.96295-113.22363-241.44788-160.04425l-.00085,.00092c-1.20081,1.27515-2.38745,2.55469-3.55066,3.84119,97.67664,46.71332,179.72028,107.23334,241.87457,160.11316-11.91492,15.62231-18.16278,32.45599-18.16278,49.82129,0,3.06641,.21069,6.11469,.59631,9.14441-62.13391-31.81573-144.85486-62.5293-271.17853-80.03369,.08264,.48462,.17511,.96814,.26373,1.45215,.07935,.43835,.15851,.87671,.24188,1.31464,.15631,.80994,.31812,1.61926,.48621,2.42792,126.91345,17.76941,209.38422,48.94635,271.24854,81.02618,4.38159,20.35077,17.45691,39.651,38.3078,56.72034-7.37183-2.69611-15.44745-5.29303-24.04797-7.69647-30.56445-8.54102-65.89941-14.27539-102.18555-16.58301-28.74701-1.82788-64.21411-1.8866-104.46869,2.49725,1.84375,1.48877,3.72198,2.966,5.6228,4.43561l.00238,.00183c37.82983-3.80701,71.23334-3.6814,98.52612-1.94446,69.20679,4.40106,120.19366,20.10992,145.25604,32.69006,5.60431,3.53497,11.5791,6.94403,17.92706,10.20935,11.86865,6.10504,24.69073,11.53778,38.28149,16.27399,17.69379,3.86554,36.18018,7.04376,55.30902,9.46338-11.1496-2.13489-21.94293-4.64398-32.2901-7.52246-7.47565-7.83356-11.65247-16.12524-12.45459-24.6969,22.05542,12.62439,43.91772,23.04517,68.44525,29.81873,.13513,1.74451,.60699,3.4491,1.43091,5.1051,.29125,.63177,.37415,.9304,.66536,1.47351,3.22149,.41568,5.58878,.72321,7.48217,.91449-.62351-.49881-1.02125-1.00391-1.81105-1.85095-1.19958-1.40173-2.02069-2.81989-2.45758-4.24609,17.41907,4.36346,36.23468,6.90704,57.4494,7.10931,.08081,.00189,.16254,.00476,.24316,.00647h5c.08063-.00171,.16248-.00458,.24329-.00647,21.21466-.20227,40.03021-2.74585,57.44922-7.10931-.43695,1.42621-2.99614,4.65381-4.1956,6.05548,2.47215-.25872,5.22634-.66877,7.49356-.92692,1.1733-2.35692,1.87679-4.78017,2.01192-6.52456,24.52747-6.7735,46.38977-17.19434,68.44519-29.8186-.80212,8.57166-4.97894,16.86334-12.4552,24.69696-10.34674,2.8783-21.13959,5.38727-32.28864,7.52209,19.12836-2.41962,37.61438-5.59778,55.30768-9.4632,13.59076-4.73621,26.41296-10.16901,38.28156-16.27405,6.3476-3.26508,12.32208-6.67389,17.92609-10.20862,25.06122-12.5802,76.04901-28.28967,145.25751-32.6908,27.29297-1.73651,60.69653-1.86206,98.526,1.94476,1.90222-1.47058,3.78186-2.94891,5.62683-4.43872-40.25562-4.38428-75.72339-4.32538-104.47021-2.49628-54.32471,3.45477-97.71558,13.89874-126.41339,24.42987,20.95734-17.10602,34.0932-36.46039,38.48761-56.87048,61.86426-32.07983,144.33484-63.25696,271.24854-81.02637,.16797-.80817,.32983-1.61707,.48596-2.42651,.08398-.44086,.1637-.88214,.24353-1.32336,.08801-.48151,.17993-.96252,.26221-1.44464Zm-683.58673-32.37756c3.88214,7.54333,7.83612,15.25903,11.89044,23.17285,7.34961,14.34601,14.73413,28.75879,22.09698,42.93878-6.26819,2.69318-12.27948,5.61243-17.99835,8.75165-16.19025,8.8869-29.21631,19.07886-38.77808,30.16016-16.63458-15.74353-35.9989-33.48126-57.90234-52.24622,17.47925-20.98743,45.51917-39.15564,80.69135-52.77722Zm14.71515,141.35156c-9.42963-9.26855-20.75574-20.39996-33.86676-32.87555,12.76642-14.90265,31.87457-27.89191,55.44458-37.93073,11.30353,21.70422,22.54114,42.77948,33.50739,62.13196-4.84808,1.86304-9.50354,3.88342-13.89819,6.08545-10.48022,5.25104-19.10229,11.21503-25.72095,17.68658-4.38208-4.20331-9.57104-9.30377-15.46606-15.09772Zm12.01532,18.71637c-6.57178,7.44385-10.58722,15.47949-11.81335,23.82715-11.52277-6.80969-23.18884-14.17676-35.41193-21.90192-5.31885-3.36157-10.74646-6.79175-16.31573-10.27252,.05304-13.92908,5.21008-27.21814,14.49841-39.34955,12.9696,12.34534,24.18048,23.36346,33.5224,32.5459,5.91107,5.81036,11.11365,10.92377,15.5202,15.15094Zm-127.50897-56.80133c0-16.40442,6.02448-32.10327,16.98065-46.56226,21.88849,18.75616,41.23157,36.48132,57.83789,52.20337-9.63428,12.41534-15.02808,25.84918-15.76013,39.75537-17.52545-10.87415-36.50989-22.18524-57.95978-33.40533-.71436-3.94989-1.09863-7.94781-1.09863-11.99115Zm67.87201,88.05463l.01617-.0224c-3.28088-2.36963-7.41791-4.79047-12.23608-7.20593-27.67139-17.63367-46.505-39.01294-53.06628-62.3855,20.83398,11.0517,39.32428,22.16187,56.43683,32.82141,.59967,14.0058,6.04797,27.81464,15.94769,40.55347-2.41858-1.22748-4.7774-2.48523-7.09833-3.76105Zm56.35028,23.2879c-13.45093-4.09955-26.09882-8.81329-37.79749-14.06573-12.98657-13.16278-20.55383-27.81732-22.13818-42.72369,4.52747,2.83954,8.96411,5.64319,13.32617,8.40002,13.01935,8.22839,25.41431,16.05304,37.67969,23.24316,.01562,8.74261,3.02203,17.17041,8.92981,25.14624Zm65.28027,2.60742c-24.70862-6.92206-46.73407-17.6189-69.08722-30.5589,.68445-8.19989,4.42352-16.01813,10.6792-23.18573,24.34241,22.9563,44.47058,38.23523,61.48602,48.33081-1.42163,1.72766-2.46033,3.53784-3.078,5.41382Zm-54.96552-57.37604c9.1861-8.9718,22.41595-16.77594,38.50671-22.83246,14.05566,24.55872,27.63489,46.12097,40.30011,62.36151-7.0484,2.38037-12.87537,5.37292-17.07672,8.80927-16.90375-9.87274-37.07263-25.08563-61.7301-48.33832Zm59.80511,58.67523c.50299-1.41083,1.37891-2.81641,2.6076-4.19269,6.10394,3.41235,11.79492,6.14514,17.12927,8.32574-6.80096-1.10687-13.35925-2.49854-19.73688-4.13306Zm6.58997-7.69757c3.84796-2.75983,9.15936-5.28326,15.70312-7.32648,7.43958,9.10059,14.54315,16.25177,21.21509,20.94318-10.39246-1.79297-22.41315-5.70001-36.91821-13.6167Zm50.95947,14.75122c-8.56158-1.44098-18.74799-10.0531-29.93622-23.5639,8.47894-2.10455,18.5932-3.44165,29.93622-3.61469v27.17859Zm0-32.1781c-12.36127,.1886-23.74237,1.76843-33.33899,4.39301-12.65649-16.0929-26.47473-37.9624-40.60901-62.53607,21.06311-7.21313,46.51001-11.53326,73.948-11.78143v69.9245Zm0-74.90955c-27.71094,.24622-54.09412,4.57074-76.44092,12.40912-11.21497-19.69348-22.59448-40.95795-33.71808-62.2627,30.9444-12.37073,68.99597-19.78442,110.159-20.07385v69.92743Zm0-74.92792c-40.98523,.28229-79.95892,7.49255-112.4776,20.6264-7.61182-14.62695-15.08923-29.22156-22.29486-43.28668-3.96442-7.73834-7.83313-15.2879-11.63306-22.6731,41.25964-15.23236,91.79938-24.31146,146.40552-24.58124v69.91461Zm156.11316-43.55389c35.17212,13.62158,63.21185,31.78967,80.69104,52.77698-21.90326,18.76489-41.26758,36.50269-57.90204,52.24634-9.56177-11.0813-22.58777-21.27313-38.77814-30.15997-5.71875-3.13916-11.72992-6.05841-17.99805-8.75153,7.36249-14.17944,14.74658-28.59155,22.0957-42.93695,4.05457-7.91467,8.00891-15.63098,11.89148-23.17487Zm-11.21179,144.91901c9.34235-9.18286,20.55365-20.2016,33.52399-32.54767,9.28833,12.13141,14.44531,25.42047,14.49829,39.34961-5.56915,3.48065-10.99658,6.91077-16.31525,10.27228-12.22321,7.72522-23.88947,15.09241-35.41241,21.90216-1.22601-8.3476-5.24133-16.38312-11.81293-23.8269,4.40576-4.2265,9.60754-9.33984,15.51831-15.14948Zm-18.96954,11.53027c-6.61865-6.47156-15.24066-12.43549-25.72089-17.68652-4.39447-2.20197-9.04974-4.22229-13.89764-6.08533,10.96625-19.35248,22.2038-40.42773,33.50714-62.13196,23.56982,10.03882,42.67792,23.02802,55.44427,37.93054-13.11169,12.47638-24.43835,23.60846-33.86823,32.87756-5.89496,5.79388-11.08307,10.89276-15.46466,15.0957Zm-120.93182-182.81c54.6062,.26978,105.14575,9.34882,146.40533,24.58112-3.80011,7.38562-7.66913,14.93555-11.63385,22.67419-7.20544,14.06476-14.68256,28.659-22.29413,43.28558-32.51855-13.13373-71.49219-20.34399-112.47736-20.62628v-69.91461Zm0,74.9151c41.16296,.28943,79.21448,7.703,110.15881,20.07373-11.12354,21.30475-22.50293,42.56934-33.71783,62.26276-22.34656-7.83832-48.7298-12.16284-76.44098-12.40906v-69.92743Zm0,74.91248c27.43799,.24817,52.88495,4.5683,73.94806,11.78143-14.13422,24.57367-27.95239,46.4433-40.60895,62.53619-9.59668-2.62463-20.97791-4.20453-33.33911-4.39313v-69.9245Zm0,102.1026v-27.17859c11.34302,.1731,21.45746,1.51013,29.93634,3.61475-11.18823,13.51074-21.37463,22.12292-29.93634,23.56384Zm35.25665-22.07751c6.54358,2.04315,11.85486,4.56659,15.70276,7.32635-14.50482,7.91644-26.52545,11.82355-36.91779,13.61652,6.67194-4.69141,13.77551-11.84241,21.21503-20.94287Zm2.55634,19.15686c5.33423-2.18054,11.02515-4.91327,17.12897-8.32556,1.22864,1.37628,2.10455,2.78186,2.60748,4.19263-6.37744,1.63452-12.93561,3.02606-19.73645,4.13293Zm17.81146-14.46985c-4.20135-3.43628-10.02808-6.42871-17.07629-8.80908,12.66534-16.24054,26.24457-37.8028,40.30017-62.36157,16.09058,6.05646,29.32025,13.86053,38.50623,22.83228-24.65735,23.25275-44.82629,38.46564-61.7301,48.33838Zm6.76459,9.03766c-.61768-1.87598-1.65643-3.68604-3.078-5.4137,17.0155-10.09546,37.14374-25.37427,61.48645-48.33044,6.25549,7.16754,9.99451,14.98572,10.67883,23.18549-22.35321,12.93988-44.37878,23.63666-69.08728,30.55865Zm65.28027-2.6073c5.9079-7.97546,8.91412-16.40393,8.92981-25.14624,12.2655-7.19019,24.66058-15.01483,37.68018-23.24329,4.36194-2.75677,8.79834-5.5603,13.32562-8.39972-1.58429,14.90619-9.15106,29.56049-22.13745,42.72314-11.69885,5.25256-24.34692,9.96655-37.79816,14.0661Zm68.10547-30.22333c-4.88586,2.45123-8.83112,4.78961-11.77087,6.9129l.01605,.02228c-2.32129,1.27606-4.68048,2.53394-7.09949,3.76166,9.90002-12.73889,15.34875-26.54773,15.94849-40.55365,17.11255-10.65955,35.60272-21.76971,56.43671-32.82147-6.59766,23.50238-25.60706,44.98859-53.53088,62.67828Zm55.01819-69.12793c-21.44995,11.22003-40.43439,22.53119-57.95978,33.40533-.73193-13.90631-6.12561-27.34021-15.75989-39.75562,16.60626-15.72217,35.94934-33.44733,57.83771-52.20343,10.95618,14.45898,16.98059,30.1579,16.98059,46.56232,0,4.0434-.38428,8.04144-1.09863,11.99139Z" fill="url(#radial-gradient-6)"/>
      <path d="M236.41992,418.67041c-30.9082-25.83594-47.24561-55.43652-47.24561-85.60156,0-44.90039,35.49805-87.24121,99.95557-119.22412l2.22266,4.47852c-62.6665,31.09424-97.17822,71.84521-97.17822,114.74561,0,28.63672,15.71729,56.91016,45.45264,81.76562l-3.20703,3.83594Z" fill="url(#linear-gradient-3)"/>
      <path d="M808.12695,141.25391c-74.15625-31.49512-168.65234-48.83984-266.08008-48.83984-54.1626,0-106.80273,5.18359-156.4585,15.40723l-1.0083-4.89746c49.98682-10.2915,102.96631-15.50977,157.4668-15.50977,98.08398,0,193.27344,17.48633,268.03516,49.2373l-1.95508,4.60254Z" fill="url(#linear-gradient-4)"/>
      <path d="M1045.43066,212.34033c-13.56445-26.41602-35.40723-51.52441-64.92188-74.62744-29.125-22.79785-65.04883-43.13135-106.77344-60.43506-56.00586-23.22559-119.70898-40.01807-189.33984-49.91064l.70312-4.9502c70.04688,9.95166,134.1582,26.85547,190.55273,50.24268,42.14258,17.47656,78.45801,38.03955,107.93945,61.11621,30.08789,23.55225,52.39062,49.21631,66.28711,76.28027l-4.44727,2.28418Z" fill="url(#linear-gradient-5)"/>
      <path d="M88.30957,150.45996l-3.32715-3.73242c27.88037-24.854,63.42871-47.1748,105.6582-66.34277,51.03027-23.16309,109.57129-40.8042,173.99658-52.43359l.88867,4.9209c-64.02002,11.55566-122.16455,29.07324-172.81885,52.06543-41.76953,18.95947-76.89404,41.00439-104.39746,65.52246Z" fill="url(#linear-gradient-6)"/>
      <path d="M221.09229,485.56006c-60.20264-23.44043-110.44092-53.76465-145.28369-87.69434-38.14307-37.14453-58.30469-79.08789-58.30469-121.29785h5c0,41.41211,19.10791,81.01758,56.79297,117.71582,34.3667,33.4668,84.02637,63.41797,143.60986,86.61621l-1.81445,4.66016Z" fill="url(#linear-gradient-7)"/>
      <path d="M417.39795,489.70459c-9.58936-9.85742-14.45166-20.51953-14.45166-31.69141,0-10.69922,4.4707-20.95117,13.28711-30.47266l3.66895,3.39648c-7.93359,8.56738-11.95605,17.67773-11.95605,27.07617,0,9.82422,4.38574,19.31348,13.03564,28.20508l-3.58398,3.48633Z" fill="url(#linear-gradient-8)"/>
      <path d="M542.04688,506.52783c-69.00879,0-133.92578-13.84375-182.79346-38.98047-49.39502-25.4082-76.59814-59.38184-76.59814-95.66211,0-8.90137,1.67041-17.80078,4.96533-26.44922l4.67285,1.7793c-3.07764,8.0791-4.63818,16.37891-4.63818,24.66992,0,71.48535,114.11963,129.64258,254.3916,129.64258v5Z" fill="url(#linear-gradient-9)"/>
      <path d="M714.70605,377.02295c-18.83887-21.89941-51.32812-39.65137-91.48438-49.98438-25.48438-6.55762-52.79492-9.88281-81.1748-9.88281v-5c28.7998,0,56.53027,3.37793,82.4209,10.04102,41.13672,10.58496,74.53027,28.89844,94.0293,51.56641l-3.79102,3.25977Z" fill="url(#linear-gradient-10)"/>
      <path d="M801.43848,371.88525h-5c0-27.33203-16.64062-53.51855-48.12207-75.72852-25.51367-17.99951-59.74805-32.45654-99.00195-41.80908l1.1582-4.86426c39.86719,9.49854,74.69824,24.2251,100.72656,42.5874,32.86719,23.1875,50.23926,50.78613,50.23926,79.81445Z" fill="url(#linear-gradient-11)"/>
      <path d="M860.99121,266.98926c-31.7959-34.65088-88.03711-63.38672-158.36133-80.91406-49.20898-12.26465-104.7373-18.74756-160.58301-18.74756v-5c56.24707,0,112.19434,6.53418,161.79199,18.896,71.26562,17.76172,128.38477,47.02002,160.83594,82.38477l-3.68359,3.38086Z" fill="url(#linear-gradient-12)"/>
      <path d="M643.85938,535.67725l-.49219-4.97656c45.9668-4.54199,90.50391-12.19629,132.37402-22.75,65.41504-16.49023,124.42578-40.30176,170.65527-68.86133l2.62793,4.25391c-46.65918,28.8252-106.15625,52.8418-172.06055,69.45508-42.10938,10.61426-86.89258,18.31152-133.10449,22.87891Z" fill="url(#linear-gradient-13)"/>
      <circle cx="20.00388" cy="276.56801" r="15" fill="#6a45ff"/>
      <ellipse cx="26.91205" cy="278.51629" rx="6.84643" ry="5.00903" transform="translate(-248.45259 228.8182) rotate(-74.25018)" fill="#a691ff"/>
      <circle cx="809.10418" cy="138.95274" r="14" fill="#6a45ff"/>
      <ellipse cx="806.44529" cy="145.42729" rx="5.20131" ry="7.48938" transform="translate(384.38095 847.8266) rotate(-69.22114)" fill="#a691ff"/>
      <circle cx="289.95682" cy="346.32612" r="14.5" fill="#dbd3ff"/>
      <ellipse cx="296.94636" cy="349.01943" rx="7.79461" ry="4.58922" transform="translate(-135.50215 500.61097) rotate(-68.92653)" fill="#fff"/>
      <circle cx="290.24098" cy="216.08386" r="14.5" fill="#a691ff"/>
      <ellipse cx="295.89847" cy="220.43944" rx="7.6525" ry="4.66612" transform="translate(-65.86708 293.06959) rotate(-48.03761)" fill="#fff"/>
      <circle cx="643.61335" cy="533.1886" r="17.5" fill="#6a45ff"/>
      <ellipse cx="641.92782" cy="525.86823" rx="8.75" ry="6.14981" transform="translate(-127.52708 215.14669) rotate(-17.33453)" fill="#a691ff"/>
      <circle cx="418.7498" cy="432.09057" r="12.5" fill="#fff"/>
      <ellipse cx="413.89889" cy="430.75226" rx="6.80612" ry="4.83602" transform="translate(-111.41778 715.18537) rotate(-74.57644)" fill="#fff"/>
      <circle cx="716.60183" cy="375.39332" r="13.5" fill="#fff"/>
      <ellipse cx="720.54918" cy="371.75019" rx="5.37159" ry="7.68668" transform="translate(-61.0805 587.25974) rotate(-42.7049)" fill="#fff"/>
      <circle cx="798.9383" cy="371.8848" r="14.5" fill="#dbd3ff"/>
      <ellipse cx="792.09227" cy="374.20653" rx="4.86145" ry="7.53216" transform="translate(-78.21993 274.21973) rotate(-18.7336)" fill="#fff"/>
      <circle cx="862.83263" cy="265.29895" r="15" fill="#a691ff"/>
      <ellipse cx="856.48214" cy="269.22671" rx="4.96" ry="8.05757" transform="translate(-13.55175 490.77966) rotate(-31.73667)" fill="#fff"/>
      <circle cx="1047.65455" cy="211.19809" r="14.5" fill="#6a45ff"/>
      <ellipse cx="1040.34168" cy="214.24859" rx="4.35811" ry="6.82083" transform="translate(-2.29509 417.03378) rotate(-22.64304)" fill="#a691ff"/>
      <circle cx="365.0814" cy="30.41141" r="12.5" fill="#6a45ff"/>
      <ellipse cx="366.36149" cy="36.26091" rx="6.24767" ry="4.39557" transform="translate(.71766 79.1583) rotate(-12.34385)" fill="#a691ff"/>
      <circle cx="542.04686" cy="248.48402" r="184.39222" fill="#0f0a25"/>
      <circle cx="542.04686" cy="248.48402" r="184.39222" fill="url(#New_Gradient_Swatch_2)"/>
      <path d="M696.25884,353.94072c20.60498-30.03662,32.6806-66.36084,32.6806-105.45685,0-72.98566-42.06012-136.32343-103.20923-167.07593l.02271-.05103c-.14294-.06354-.28943-.11884-.43256-.18182-.05676-.03522-.1059-.07056-.16315-.10577l-.01819,.02954c-.06378-.02795-.12878-.05316-.19263-.08099-15.46747-7.68793-32.13788-13.30463-49.65479-16.46246l.00134-.00952c-.04156-.0058-.08344-.00854-.125-.01422-10.75269-1.93085-21.82123-2.93988-33.12109-2.93988s-22.36804,1.00897-33.12048,2.93976c-.04193,.00568-.08417,.00854-.1261,.01434l.00134,.00964c-17.5166,3.15778-34.18658,8.77441-49.65375,16.4621-.06348,.02771-.12811,.05267-.19153,.08051l-.01837-.02979c-.0589,.03625-.11298,.0733-.17151,.10962-.14087,.06201-.28503,.11639-.42566,.17896l.02271,.05109c-61.14899,30.7525-103.20874,94.09021-103.20874,167.07587,0,39.06622,12.05688,75.36517,32.63306,105.38849l-.03931,.03632c.07605,.08221,.15771,.16333,.23474,.24536,27.21149,39.54993,69.23566,68.14569,118.00305,77.71783,.13025,.0282,.25903,.06158,.38965,.08856l.00275-.01318c11.55048,2.24133,23.47235,3.4292,35.66815,3.4292,63.83893,0,120.29492-32.18115,154.02429-81.16522,.07404-.07861,.15259-.15637,.22571-.23517l-.03802-.03534ZM362.20995,221.13768c3.09552-18.83026,9.50763-36.86945,18.92621-53.48389,1.27881,4.03424,3.71857,7.97595,7.31403,11.78223,3.0495,3.22827,6.89905,6.31042,11.45319,9.22491-12.9082,26.84064-20.55255,56.30328-21.24231,86.25909-10.59924-7.11609-16.9397-14.85883-18.46051-22.82971-.0235-1.2002-.04578-2.40076-.04578-3.60645,0-9.29297,.70416-18.42432,2.05518-27.34619Zm84.35413-118.63184c.75269,2.67175,2.29962,5.26929,4.65222,7.75977,1.4834,1.57043,3.29321,3.08026,5.37598,4.52753-22.22833,18.94037-40.95355,42.78418-54.47815,69.38885-3.95862-2.59802-7.33539-5.32782-10.02917-8.17957-4.62042-4.89136-6.97052-9.91693-7.00037-14.95203,8.4386-13.39441,18.88782-25.76257,31.19324-36.73401,9.34833-8.33453,19.50299-15.62091,30.28625-21.81055Zm176.53137-16.82507c3.13861,1.99396,6.51001,4.68628,8.41882,7.88031-18.0932-9.18518-37.70746-15.46747-58.13892-18.58398,17.38416,.34271,34.12097,3.89581,49.47852,10.58344,.08051,.0401,.16113,.08002,.24158,.12024Zm44.71997,38.63562c12.30341,10.9696,22.75128,23.33557,31.18921,36.72748-.00153,.24158-.00305,.48315-.01538,.72418-.39392,7.72333-6.36633,15.39954-17.03302,22.36761-13.52325-26.58716-32.24078-50.41492-54.45728-69.34479,5.37079-3.76489,8.7774-7.91656,10.02527-12.29449,10.78479,6.19354,20.94128,13.48383,30.2912,21.82001Zm-123.26855,294.92792v-26.3595c25.46899-.12683,49.71606-2.26721,71.2821-6.0614-.42279,1.01752-.84363,2.03833-1.28503,3.0257-3.51971,7.87329-7.53894,14.59521-11.98328,20.09949-18.44104,5.98083-37.98645,9.15314-58.01379,9.29572Zm-139.4743-58.14331c-13.24994-21.93048-20.71967-48.40369-21.40704-77.34344,16.37628,9.08624,38.96008,16.60217,65.73962,21.87421,.18542,28.86383,4.10297,54.2572,11.06189,74.61115-22.78125-4.63867-41.9472-11.19592-55.39447-19.14191Zm316.81775-139.92004c1.34674,8.9082,2.04913,18.0249,2.04913,27.30292,0,1.18469-.02234,2.3642-.04498,3.54358-1.53534,8.1391-8.04175,15.85913-18.46289,22.84021-.69739-29.93713-8.34076-59.38062-21.24084-86.20526,9.98688-6.4198,16.37158-13.53015,18.75812-21.02332,9.43042,16.63123,15.84802,34.69043,18.94147,53.54187Zm-98.22681,158.95911c6.93945-20.34479,10.83502-45.72266,11.01709-74.552,11.97668-2.36432,23.25928-5.19885,33.62311-8.48309,12.51666-3.966,23.27716-8.4624,32.12427-13.36438-.68414,28.91608-8.13837,55.37109-21.36481,77.29242-13.44635,7.8996-32.66724,14.45178-55.39966,19.10706Zm-79.11664-162.17651c26.01385-.13214,51.07098-2.37982,73.49255-6.5177,7.24561,28.90509,11.45557,59.7113,11.64581,89.90338-25.51434,4.76593-54.58618,7.54132-85.13837,7.6875v-91.07318Zm0-5.00037v-79.7865c14.73114-.12897,28.9278-1.40808,41.69879-3.72687,12.48016,22.02338,22.99164,48.5639,30.54681,77.14172-22.03516,4.04419-46.66644,6.24274-72.24561,6.37164Zm0-84.78662v-48.26685c14.1076,9.78131,27.37292,25.40851,39.04547,44.97614-11.4884,1.97284-24.63214,3.17041-39.04547,3.29071Zm-5,.00421c-13.91083-.12756-27.17865-1.29932-39.03143-3.31903,11.66907-19.55646,24.92944-35.17487,39.03143-44.95209v48.27112Zm0,5.00012v79.79358c-.08966-.00049-.17841,.00116-.26807,.00061-25.77991-.15375-50.32874-2.4198-71.98279-6.36377,7.55951-28.60059,18.08002-55.16132,30.57184-77.19659,12.63397,2.30096,26.82776,3.63123,41.67902,3.76617Zm-.29834,84.79419c.09973,.00061,.19873,.00031,.29834,.00085v91.06384c-.23633-.00116-.47217-.00067-.7085-.0022-29.88214-.17828-58.73999-2.81024-84.43054-7.58484,.18127-30.23828,4.39612-61.09564,11.6557-90.04468,22.07623,4.07568,47.03625,6.41095,73.185,6.56702Zm5.29834,96.0625c30.04437-.13336,59.11462-2.71936,85.12292-7.492-.26538,28.80566-4.25427,54.36462-11.65332,74.69861-22.13629,4.12579-47.27295,6.4967-73.4696,6.63922v-73.84583Zm155.92126-36.06384c-15.80756,9.21606-38.63416,16.95801-65.80792,22.41071-.26428-29.62482-4.31348-60.34723-11.70538-89.87128,10.97394-2.19952,21.26202-4.86237,30.64966-7.96289,10.25751-3.38788,19.0686-7.18738,26.32306-11.30835,12.88043,26.96857,20.31909,56.63159,20.54059,86.73181Zm-48.43201-80.17102c-9.26947,3.06146-19.44946,5.68475-30.30945,7.85352-3.7793-14.31531-8.34088-28.31421-13.64368-41.72314-5.09174-12.87567-10.6908-24.75281-16.68146-35.4975,5.83746-1.22748,11.34198-2.67371,16.39435-4.34235,5.92065-1.95563,11.03857-4.15277,15.2959-6.54224,22.35126,18.7384,41.15179,42.54816,54.62323,69.18201-7.00891,4.01392-15.62762,7.74988-25.67889,11.0697Zm-63.2182-73.89355c-10.79724-18.43396-22.78198-33.21747-35.35046-43.51404,23.60938,6.40692,45.79535,18.13672,65.43042,33.7359-7.47498,3.87793-17.68268,7.28625-30.07996,9.77814Zm-93.53571-.01135c-12.07806-2.40283-22.4292-5.7226-30.13306-9.72974,19.64661-15.61761,41.849-27.36096,65.47711-33.77295-12.56592,10.29449-24.54834,25.07391-35.34406,43.50269Zm-2.56952,4.50085c-5.99854,10.75439-11.60474,22.64398-16.70245,35.53442-5.30487,13.41492-9.86816,27.42023-13.64838,41.74225-22.93622-4.54413-42.30591-11.02264-56.00604-18.89703,13.47607-26.6579,32.29022-50.48865,54.66064-69.2395,8.03082,4.46857,18.94153,8.17505,31.69623,10.85986Zm-31.5614,82.06537c-7.40887,29.57623-11.46393,60.35675-11.71918,90.03241-12.39301-2.47803-23.99103-5.46625-34.53613-8.93152-12.39349-4.07239-22.87897-8.63318-31.27148-13.5379,.2132-30.1239,7.65582-59.81128,20.54816-86.79968,14.15997,8.01282,33.8454,14.60211,56.97864,19.23669Zm-6.72699,96.12115c25.19312,4.60797,53.84863,7.26996,84.38379,7.45239,.24713,.00153,.49237,.00104,.73877,.0022v73.84521c-.08752-.00049-.17535-.00018-.2627-.00073-26.26776-.15698-51.23615-2.48676-73.17047-6.54547-7.41785-20.34027-11.42023-45.91864-11.68939-74.7536Zm167.18176,79.17072c18.04456-3.50256,34.02185-8.19409,47.02167-13.84576-.27246,.24597-.53802,.49713-.81232,.7417-16.75439,14.93719-36.08221,26.51996-57.0105,34.40698,4.07654-6.14154,7.69293-13.27759,10.80115-21.30292Zm71.09235-40.52063c8.18018-19.34851,12.58783-41.1684,12.7616-64.45587,7.73846-4.84448,13.68329-10.03979,17.69476-15.47809-.32477,3.52557-.74109,7.02484-1.26501,10.48987-4.10999,25.04236-14.07996,48.69116-29.19135,69.44409Zm-69.19928-233.77374c-17.42957-14.12646-36.87939-25.25836-57.5708-32.4353,23.73346,2.76996,46.45111,9.88007,67.02258,20.92249-.5741,3.91254-3.85571,7.85828-9.45178,11.51282Zm-162.50623-25.77795c.0827-.04132,.16565-.0824,.24847-.12366,15.3866-6.69916,32.1557-10.25226,49.57318-10.58386-20.47156,3.11407-40.12103,9.39758-58.24274,18.59644,1.91913-3.21649,5.31769-5.91595,8.42108-7.88892Zm57.10834-6.63519c-20.68298,7.18317-40.12457,18.31775-57.5462,32.44464-2.2514-1.48151-4.17029-3.03729-5.70398-4.66101-2.14905-2.27496-3.38348-4.57898-3.71722-6.87079,20.55243-11.02667,43.24921-18.12823,66.96741-20.91284Zm-157.15808,186.2948c4.05127,5.47913,10.03198,10.65918,17.67981,15.45081,.17493,23.26758,4.57843,45.07172,12.74677,64.40735-15.08868-20.73273-25.04675-44.35431-29.15918-69.36688-.52484-3.46539-.94177-6.96527-1.2674-10.49127Zm54.33325,106.39429c13.01971,5.66223,29.0592,10.3847,47.16101,13.92084,3.11365,8.05963,6.73828,15.229,10.82684,21.39319-20.91699-7.8869-40.23792-19.46698-56.98645-34.39966-.3382-.30151-.66602-.61078-1.0014-.91437Zm54.27338,18.11163c-.45398-1.01562-.88745-2.06476-1.32178-3.1123,21.53271,3.81628,45.70905,5.99615,71.02588,6.14746,.0979,.00061,.19513,.00037,.29297,.00092v26.35938c-20.02185-.1394-39.56781-3.31079-58.01184-9.29297-4.44525-5.50482-8.46509-12.22778-11.98523-20.10248Zm69.99707,34.39899v6.09662c-11.12317-.15082-22.00763-1.30267-32.56836-3.37384-6.61615-1.44598-12.81598-4.71747-18.48358-9.70447,16.40741,4.5014,33.56049,6.87195,51.05194,6.98169Zm5-.00037c17.49548-.11292,34.64996-2.48462,51.05682-6.98602-5.66919,4.98987-11.87091,8.26294-18.4892,9.70935-10.56049,2.07104-21.4447,3.22284-32.56763,3.37366v-6.09698Zm60.90527-9.98419c19.59357-6.51776,37.95721-16.13324,54.36743-28.57788-4.57288,4.57483-9.49774,8.79388-14.76019,12.62305-14.22443,9.81049-29.90631,17.6474-46.65125,23.11792,2.45422-2.11597,4.80542-4.50549,7.04401-7.16309Zm66.59515-292.85858c-.30206-.27289-.59949-.54926-.90375-.8205-10.20471-9.09821-21.34412-16.98016-33.19641-23.58728-.14349-1.1192-.43036-2.32001-.9408-3.58942,12.81421,7.87555,24.57837,17.29645,35.04095,27.99719Zm-224.98999-27.97815c-.46368,1.17285-.76849,2.36615-.91882,3.57812-11.84973,6.6051-22.98651,14.48389-33.18829,23.57953-.32343,.28833-.6358,.58496-.95673,.87518,10.46759-10.71484,22.23975-20.14771,35.06384-28.03284Zm-8.0329,304.87476c-5.2583-3.82703-10.17944-8.04346-14.74915-12.61493,16.41534,12.44885,34.78351,22.06671,54.37909,28.58441,2.23395,2.65082,4.5769,5.04199,7.02551,7.15363-16.7467-5.47174-32.42999-13.31042-46.65546-23.12311Z" fill="url(#linear-gradient-14)"/>
    </g>
  </g>
</svg>