<svg width="413" height="413" viewBox="0 0 413 413" fill="none" xmlns="http://www.w3.org/2000/svg">
<path d="M206.937 408.342C318.465 408.342 408.877 317.855 408.877 206.233C408.877 94.6107 318.465 4.12318 206.937 4.12318C95.4082 4.12318 4.9964 94.6107 4.9964 206.233C4.9964 317.855 95.4082 408.342 206.937 408.342Z" stroke="#352381" stroke-width="8"/>
<path d="M356.212 79.9858C361.661 79.9858 366.078 75.5653 366.078 70.1123C366.078 64.6593 361.661 60.2388 356.212 60.2388C350.764 60.2388 346.347 64.6593 346.347 70.1123C346.347 75.5653 350.764 79.9858 356.212 79.9858Z" fill="#352381"/>
<path d="M53.7508 347.803C59.1992 347.803 63.616 343.382 63.616 337.929C63.616 332.476 59.1992 328.056 53.7508 328.056C48.3024 328.056 43.8856 332.476 43.8856 337.929C43.8856 343.382 48.3024 347.803 53.7508 347.803Z" fill="#352381"/>
<path d="M351.494 357.236C356.942 357.236 361.359 352.816 361.359 347.363C361.359 341.91 356.942 337.489 351.494 337.489C346.045 337.489 341.628 341.91 341.628 347.363C341.628 352.816 346.045 357.236 351.494 357.236Z" fill="#352381"/>
<path d="M119.751 33.8053C125.199 33.8053 129.616 29.3848 129.616 23.9318C129.616 18.4788 125.199 14.0583 119.751 14.0583C114.302 14.0583 109.885 18.4788 109.885 23.9318C109.885 29.3848 114.302 33.8053 119.751 33.8053Z" fill="#352381"/>
<path d="M206.937 280.581C247.964 280.581 281.223 247.294 281.223 206.233C281.223 165.171 247.964 131.884 206.937 131.884C165.91 131.884 132.651 165.171 132.651 206.233C132.651 247.294 165.91 280.581 206.937 280.581Z" stroke="#A691FF" stroke-width="8"/>
<path d="M206.937 141.762C212.385 141.762 216.802 137.342 216.802 131.889C216.802 126.436 212.385 122.015 206.937 122.015C201.488 122.015 197.072 126.436 197.072 131.889C197.072 137.342 201.488 141.762 206.937 141.762Z" fill="#A691FF"/>
<path d="M206.937 365.754C294.964 365.754 366.324 294.334 366.324 206.233C366.324 118.132 294.964 46.7117 206.937 46.7117C118.91 46.7117 47.5493 118.132 47.5493 206.233C47.5493 294.334 118.91 365.754 206.937 365.754Z" stroke="#5034C2" stroke-width="8"/>
<path d="M234.166 373.285C239.615 373.285 244.031 368.865 244.031 363.412C244.031 357.959 239.615 353.538 234.166 353.538C228.718 353.538 224.301 357.959 224.301 363.412C224.301 368.865 228.718 373.285 234.166 373.285Z" fill="#5034C2"/>
<path d="M264.624 67.3963C270.072 67.3963 274.489 62.9758 274.489 57.5228C274.489 52.0698 270.072 47.6493 264.624 47.6493C259.176 47.6493 254.759 52.0698 254.759 57.5228C254.759 62.9758 259.176 67.3963 264.624 67.3963Z" fill="#5034C2"/>
<path d="M206.937 323.17C271.465 323.17 323.776 270.815 323.776 206.233C323.776 141.65 271.465 89.296 206.937 89.296C142.409 89.296 90.098 141.65 90.098 206.233C90.098 270.815 142.409 323.17 206.937 323.17Z" stroke="#6A45FF" stroke-width="8"/>
<path d="M155.17 320.938C160.618 320.938 165.035 316.517 165.035 311.064C165.035 305.612 160.618 301.191 155.17 301.191C149.721 301.191 145.305 305.612 145.305 311.064C145.305 316.517 149.721 320.938 155.17 320.938Z" fill="#6A45FF"/>
<path d="M131.828 126.536C137.277 126.536 141.694 122.116 141.694 116.663C141.694 111.21 137.277 106.789 131.828 106.789C126.38 106.789 121.963 111.21 121.963 116.663C121.963 122.116 126.38 126.536 131.828 126.536Z" fill="#6A45FF"/>
</svg>
