<svg width="585" height="63" viewBox="0 0 585 63" fill="none" xmlns="http://www.w3.org/2000/svg">
<path d="M0.755463 8.40312V1.71223H48.4763V8.40312H28.5875V61.4286H20.6487V8.40312H0.759865H0.755463Z" fill="#5034C2"/>
<path d="M54.3215 1.70782V24.5406H54.4886C55.0428 23.2024 55.8257 22.0711 56.8285 21.1511C57.8313 20.2311 58.9616 19.4783 60.2151 18.8929C61.4686 18.3074 62.7793 17.876 64.1428 17.5987C65.5062 17.3214 66.8301 17.1805 68.1144 17.1805C70.9556 17.1805 73.3219 17.5723 75.2175 18.3515C77.1131 19.135 78.6437 20.2223 79.8137 21.6133C80.9836 23.0087 81.8061 24.6638 82.2811 26.5918C82.7517 28.5155 82.9892 30.6504 82.9892 32.9922V61.4286H75.886V32.1559C75.886 29.4795 75.1032 27.3622 73.5462 25.7995C71.9848 24.2412 69.8385 23.4577 67.1116 23.4577C64.9388 23.4577 63.0564 23.7922 61.4686 24.4613C59.8809 25.1304 58.557 26.0812 57.497 27.3049C56.4371 28.5331 55.6454 29.9681 55.1132 31.6144C54.581 33.2608 54.3215 35.0567 54.3215 37.0112V61.433H47.2184V1.71223H54.3215V1.70782Z" fill="#5034C2"/>
<path d="M122.6 58.6686C119.367 61.1249 115.299 62.3486 110.399 62.3486C106.942 62.3486 103.951 61.7896 101.413 60.6759C98.8756 59.5622 96.7469 57.9995 95.0184 55.9922C93.2899 53.985 91.9968 51.5859 91.1303 48.7995C90.2683 46.0131 89.7801 42.9714 89.6701 39.6832C89.6701 36.3949 90.1715 33.384 91.1743 30.6504C92.1771 27.9212 93.5845 25.5486 95.3966 23.5413C97.2043 21.534 99.3506 19.9714 101.831 18.8577C104.307 17.744 107.026 17.185 109.981 17.185C113.825 17.185 117.014 17.9817 119.552 19.5708C122.085 21.1599 124.121 23.1804 125.652 25.6366C127.183 28.0929 128.243 30.7693 128.828 33.6657C129.413 36.5666 129.65 39.3266 129.536 41.9457H97.1955C97.1383 43.8429 97.3626 45.6389 97.864 47.3425C98.3654 49.046 99.1747 50.5471 100.287 51.8588C101.4 53.1706 102.821 54.2139 104.549 54.9974C106.273 55.781 108.31 56.1683 110.65 56.1683C113.658 56.1683 116.125 55.4728 118.047 54.0774C119.97 52.682 121.236 50.5647 121.852 47.721H128.872C127.922 52.5719 125.832 56.2255 122.604 58.6774L122.6 58.6686ZM120.884 30.9013C120.242 29.3959 119.38 28.0973 118.294 27.01C117.207 25.9228 115.923 25.06 114.45 24.4173C112.972 23.779 111.345 23.4533 109.559 23.4533C107.773 23.4533 106.062 23.7746 104.585 24.4173C103.107 25.06 101.84 25.936 100.78 27.0541C99.7201 28.1722 98.8844 29.4663 98.273 30.9453C97.6573 32.4244 97.2966 34.0003 97.1867 35.673H122.006C121.892 34.0003 121.518 32.4112 120.876 30.9057L120.884 30.9013Z" fill="#5034C2"/>
<path d="M176.5 0.286026C180.955 0.286026 184.953 1.12237 188.494 2.7951C192.03 4.46782 195.025 6.72601 197.479 9.56965C199.929 12.4133 201.812 15.7323 203.122 19.5224C204.428 23.3168 205.084 27.3314 205.084 31.566C205.084 35.8007 204.428 39.9033 203.122 43.6933C201.812 47.4878 199.933 50.8024 197.479 53.646C195.025 56.4897 192.034 58.7346 188.494 60.381C184.953 62.0229 180.96 62.846 176.5 62.846C172.04 62.846 168.046 62.0229 164.506 60.381C160.965 58.739 157.974 56.4897 155.52 53.646C153.066 50.8024 151.188 47.4834 149.877 43.6933C148.567 39.9033 147.911 35.8579 147.911 31.566C147.911 27.2742 148.567 23.3124 149.877 19.5224C151.184 15.7323 153.066 12.4133 155.52 9.56965C157.97 6.72601 160.965 4.46782 164.506 2.7951C168.042 1.12237 172.04 0.286026 176.5 0.286026ZM176.5 8.81691C173.324 8.81691 170.58 9.45962 168.266 10.7406C165.953 12.0259 164.075 13.7383 162.623 15.8864C161.172 18.0345 160.103 20.4732 159.404 23.2068C158.704 25.9404 158.357 28.7268 158.357 31.5704C158.357 34.4141 158.704 37.2049 159.404 39.9341C160.099 42.6676 161.172 45.1063 162.623 47.2544C164.07 49.4026 165.953 51.1149 168.266 52.3959C170.575 53.6812 173.324 54.3195 176.5 54.3195C179.675 54.3195 182.42 53.6812 184.733 52.3959C187.042 51.1149 188.925 49.3982 190.376 47.2544C191.823 45.1063 192.896 42.6676 193.596 39.9341C194.291 37.2049 194.642 34.4141 194.642 31.5704C194.642 28.7268 194.295 25.9404 193.596 23.2068C192.896 20.4732 191.828 18.0345 190.376 15.8864C188.929 13.7427 187.047 12.0259 184.733 10.7406C182.42 9.45962 179.675 8.81691 176.5 8.81691Z" fill="#8F85FF"/>
<path d="M211.598 18.1886H220.539V26.5522H220.707C220.984 25.3813 221.529 24.2412 222.338 23.1231C223.143 22.0095 224.12 20.9882 225.263 20.0726C226.407 19.1526 227.673 18.4131 229.068 17.8541C230.457 17.2994 231.878 17.0177 233.33 17.0177C234.442 17.0177 235.208 17.0485 235.625 17.1013C236.043 17.1585 236.474 17.2158 236.923 17.2686V26.4686C236.254 26.3586 235.573 26.2573 234.873 26.1737C234.174 26.0901 233.492 26.0504 232.824 26.0504C231.205 26.0504 229.688 26.3718 228.267 27.0144C226.847 27.6571 225.606 28.6035 224.546 29.8581C223.486 31.1126 222.651 32.6621 222.039 34.4977C221.424 36.3377 221.12 38.4594 221.12 40.8541V61.4286H211.593V18.1886H211.598Z" fill="#8F85FF"/>
<path d="M241.268 1.70784H250.795V23.7878H250.962C251.631 22.7314 252.435 21.7806 253.385 20.9442C254.331 20.1078 255.378 19.3947 256.521 18.8093C257.661 18.2238 258.861 17.7792 260.115 17.4711C261.368 17.1674 262.609 17.0089 263.836 17.0089C267.231 17.0089 270.2 17.6075 272.738 18.8049C275.271 20.0066 277.373 21.6485 279.049 23.7394C280.72 25.8303 281.974 28.269 282.81 31.0598C283.645 33.8506 284.063 36.8307 284.063 40.0089C284.063 42.9098 283.685 45.727 282.933 48.4562C282.181 51.1898 281.037 53.602 279.507 55.6929C277.976 57.7838 276.041 59.4566 273.696 60.7111C271.357 61.9656 268.599 62.5951 265.423 62.5951C263.972 62.5951 262.512 62.4983 261.034 62.3046C259.556 62.1065 258.153 61.7323 256.812 61.1733C255.475 60.6187 254.265 59.8923 253.179 58.9987C252.092 58.1052 251.186 56.9343 250.461 55.486H250.294V61.4242H241.268V1.70343V1.70784ZM274.528 39.846C274.528 37.896 274.277 35.9987 273.776 34.1587C273.274 32.3187 272.522 30.69 271.519 29.2638C270.517 27.8376 269.263 26.6975 267.759 25.8347C266.255 24.972 264.526 24.5362 262.578 24.5362C258.567 24.5362 255.545 25.9316 253.509 28.718C251.472 31.5088 250.456 35.2152 250.456 39.8416C250.456 42.0162 250.72 44.0366 251.252 45.903C251.78 47.7739 252.576 49.3762 253.632 50.7144C254.687 52.0526 255.958 53.1134 257.436 53.8925C258.91 54.6761 260.625 55.0634 262.578 55.0634C264.75 55.0634 266.589 54.6189 268.093 53.7253C269.597 52.8317 270.838 51.674 271.814 50.2521C272.786 48.8303 273.485 47.2148 273.903 45.4013C274.321 43.5921 274.528 41.7345 274.528 39.8372V39.846Z" fill="#8F85FF"/>
<path d="M290.656 1.70782H300.183V10.7406H290.656V1.70782ZM290.656 18.1842H300.183V61.4242H290.656V18.1842Z" fill="#8F85FF"/>
<path d="M306.199 18.1886H313.386V5.22496H322.913V18.1886H331.52V25.2977H322.913V48.3813C322.913 49.385 322.952 50.2522 323.036 50.9741C323.119 51.7004 323.313 52.3122 323.621 52.8141C323.924 53.3159 324.386 53.6945 325.002 53.9454C325.613 54.1963 326.449 54.3195 327.509 54.3195C328.177 54.3195 328.846 54.3063 329.514 54.2799C330.183 54.2535 330.851 54.1567 331.52 53.9894V61.3494C330.46 61.4594 329.431 61.5739 328.428 61.6839C327.425 61.794 326.396 61.8512 325.336 61.8512C322.829 61.8512 320.81 61.6135 319.275 61.1425C317.74 60.6715 316.544 59.9716 315.682 59.0516C314.82 58.1316 314.235 56.9739 313.927 55.5785C313.619 54.1875 313.439 52.5984 313.382 50.8112V25.3021H306.195V18.193L306.199 18.1886Z" fill="#8F85FF"/>
<path d="M374.139 1.70776L388.094 42.7732H388.261L401.465 1.70776H419.933V61.4285H407.649V19.1085H407.482L392.858 61.4285H382.746L368.122 19.5267H367.955V61.4285H355.671V1.70776H374.139Z" fill="#F0F4F8"/>
<path d="M427.125 30.4392C428.18 27.6264 429.689 25.2273 431.637 23.2465C433.586 21.2656 435.926 19.7337 438.657 18.6465C441.384 17.5592 444.449 17.0134 447.849 17.0134C451.249 17.0134 454.328 17.5592 457.085 18.6465C459.843 19.7337 462.196 21.27 464.149 23.2465C466.097 25.2273 467.602 27.6264 468.662 30.4392C469.717 33.2564 470.249 36.3906 470.249 39.8505C470.249 43.3104 469.717 46.4314 468.662 49.2178C467.602 52.0086 466.097 54.39 464.149 56.3709C462.196 58.3518 459.843 59.8704 457.085 60.9313C454.328 61.9877 451.249 62.5204 447.849 62.5204C444.449 62.5204 441.384 61.9877 438.657 60.9313C435.926 59.8704 433.586 58.3518 431.637 56.3709C429.684 54.3944 428.18 52.0086 427.125 49.2178C426.065 46.4314 425.537 43.306 425.537 39.8505C425.537 36.395 426.065 33.2564 427.125 30.4392ZM437.905 44.9083C438.239 46.5546 438.811 48.0337 439.62 49.341C440.425 50.6528 441.498 51.696 442.84 52.4796C444.177 53.2631 445.848 53.6505 447.854 53.6505C449.859 53.6505 451.544 53.2631 452.912 52.4796C454.275 51.7005 455.361 50.6528 456.171 49.341C456.98 48.0293 457.552 46.5546 457.886 44.9083C458.22 43.2664 458.387 41.576 458.387 39.8505C458.387 38.1249 458.22 36.4214 457.886 34.7487C457.552 33.076 456.98 31.5969 456.171 30.316C455.361 29.035 454.275 27.9873 452.912 27.1774C451.544 26.3718 449.859 25.9669 447.854 25.9669C445.848 25.9669 444.177 26.3718 442.84 27.1774C441.503 27.9873 440.429 29.0306 439.62 30.316C438.811 31.6013 438.239 33.076 437.905 34.7487C437.57 36.4214 437.403 38.1205 437.403 39.8505C437.403 41.5804 437.57 43.2664 437.905 44.9083Z" fill="#F0F4F8"/>
<path d="M506.935 55.9086C505.54 58.2504 503.715 59.9364 501.459 60.9708C499.203 62.0009 496.652 62.5159 493.81 62.5159C490.578 62.5159 487.736 61.8864 485.287 60.6319C482.832 59.3773 480.814 57.6782 479.226 55.5301C477.638 53.3863 476.437 50.9168 475.632 48.126C474.823 45.3396 474.423 42.4387 474.423 39.4278C474.423 36.4169 474.828 33.7273 475.632 31.0202C476.442 28.3174 477.638 25.9315 479.226 23.8671C480.814 21.807 482.806 20.143 485.203 18.8885C487.596 17.6339 490.384 17.0089 493.56 17.0089C496.124 17.0089 498.56 17.5547 500.874 18.642C503.187 19.7293 505.013 21.3315 506.35 23.4533H506.517V1.70782H518.383V61.4286H507.102V55.9086H506.935ZM506.433 34.5373C506.099 32.891 505.527 31.4428 504.718 30.1882C503.909 28.9337 502.866 27.9168 501.586 27.1333C500.302 26.3542 498.688 25.9624 496.74 25.9624C494.791 25.9624 493.146 26.3542 491.809 27.1333C490.472 27.9168 489.399 28.9469 488.59 30.2278C487.78 31.5132 487.195 32.9746 486.835 34.621C486.47 36.2673 486.289 37.9796 486.289 39.7624C486.289 41.4351 486.483 43.1078 486.874 44.7806C487.261 46.4533 487.89 47.9456 488.752 49.2573C489.614 50.5691 490.701 51.6299 492.011 52.4355C493.322 53.2454 494.897 53.6504 496.735 53.6504C498.684 53.6504 500.315 53.263 501.626 52.4795C502.932 51.7004 503.979 50.6527 504.762 49.3409C505.54 48.0292 506.099 46.5369 506.433 44.8642C506.767 43.1915 506.935 41.4659 506.935 39.6788C506.935 37.8916 506.767 36.1792 506.433 34.5373Z" fill="#F0F4F8"/>
<path d="M538.355 51.0577C540.137 52.7877 542.701 53.6505 546.043 53.6505C548.44 53.6505 550.499 53.0518 552.227 51.8501C553.951 50.6528 555.011 49.385 555.403 48.0424H565.849C564.177 53.2279 561.613 56.9387 558.161 59.1661C554.704 61.3978 550.525 62.5115 545.626 62.5115C542.226 62.5115 539.16 61.9701 536.433 60.8784C533.702 59.7911 531.389 58.2461 529.497 56.2388C527.602 54.2315 526.141 51.8325 525.108 49.0461C524.074 46.2596 523.56 43.1915 523.56 39.8461C523.56 36.5006 524.087 33.5997 525.147 30.8133C526.203 28.0269 527.707 25.6147 529.66 23.5766C531.608 21.5429 533.935 19.9362 536.64 18.7653C539.341 17.5944 542.336 17.0089 545.626 17.0089C549.303 17.0089 552.504 17.7176 555.236 19.1438C557.963 20.5657 560.21 22.4761 561.965 24.8751C563.72 27.2742 564.987 30.0078 565.77 33.0715C566.548 36.1396 566.825 39.3442 566.605 42.6897H535.435C535.602 46.537 536.574 49.3278 538.36 51.0533L538.355 51.0577ZM551.77 28.3086C550.349 26.7504 548.19 25.9668 545.291 25.9668C543.396 25.9668 541.821 26.2882 540.568 26.9308C539.314 27.5735 538.311 28.3658 537.559 29.3123C536.807 30.2631 536.275 31.2667 535.972 32.3232C535.664 33.384 535.483 34.3305 535.426 35.1668H554.73C554.171 32.1559 553.182 29.8713 551.761 28.3086H551.77Z" fill="#F0F4F8"/>
<path d="M584.15 1.7079V61.4287H572.283V1.7079H584.15Z" fill="#F0F4F8"/>
</svg>
