<svg width="703" height="535" viewBox="0 0 703 535" fill="none" xmlns="http://www.w3.org/2000/svg">
<path d="M350.937 469.342C462.465 469.342 552.877 378.855 552.877 267.233C552.877 155.611 462.465 65.1232 350.937 65.1232C239.408 65.1232 148.996 155.611 148.996 267.233C148.996 378.855 239.408 469.342 350.937 469.342Z" stroke="#352381" stroke-width="8"/>
<path d="M500.212 140.986C505.661 140.986 510.078 136.565 510.078 131.112C510.078 125.659 505.661 121.239 500.212 121.239C494.764 121.239 490.347 125.659 490.347 131.112C490.347 136.565 494.764 140.986 500.212 140.986Z" fill="#352381"/>
<path d="M197.751 408.803C203.199 408.803 207.616 404.382 207.616 398.929C207.616 393.476 203.199 389.056 197.751 389.056C192.302 389.056 187.886 393.476 187.886 398.929C187.886 404.382 192.302 408.803 197.751 408.803Z" fill="#352381"/>
<path d="M495.494 418.236C500.942 418.236 505.359 413.816 505.359 408.363C505.359 402.91 500.942 398.489 495.494 398.489C490.045 398.489 485.628 402.91 485.628 408.363C485.628 413.816 490.045 418.236 495.494 418.236Z" fill="#352381"/>
<path d="M263.751 94.8053C269.199 94.8053 273.616 90.3848 273.616 84.9318C273.616 79.4788 269.199 75.0583 263.751 75.0583C258.302 75.0583 253.885 79.4788 253.885 84.9318C253.885 90.3848 258.302 94.8053 263.751 94.8053Z" fill="#352381"/>
<path d="M350.937 341.581C391.964 341.581 425.223 308.294 425.223 267.233C425.223 226.171 391.964 192.884 350.937 192.884C309.91 192.884 276.651 226.171 276.651 267.233C276.651 308.294 309.91 341.581 350.937 341.581Z" stroke="#A691FF" stroke-width="8"/>
<path d="M350.937 202.762C356.385 202.762 360.802 198.342 360.802 192.889C360.802 187.436 356.385 183.015 350.937 183.015C345.488 183.015 341.072 187.436 341.072 192.889C341.072 198.342 345.488 202.762 350.937 202.762Z" fill="#A691FF"/>
<path d="M350.937 426.754C438.964 426.754 510.324 355.334 510.324 267.233C510.324 179.132 438.964 107.712 350.937 107.712C262.91 107.712 191.549 179.132 191.549 267.233C191.549 355.334 262.91 426.754 350.937 426.754Z" stroke="#5034C2" stroke-width="8"/>
<path d="M378.166 434.285C383.615 434.285 388.031 429.865 388.031 424.412C388.031 418.959 383.615 414.538 378.166 414.538C372.718 414.538 368.301 418.959 368.301 424.412C368.301 429.865 372.718 434.285 378.166 434.285Z" fill="#5034C2"/>
<path d="M408.624 128.396C414.072 128.396 418.489 123.976 418.489 118.523C418.489 113.07 414.072 108.649 408.624 108.649C403.176 108.649 398.759 113.07 398.759 118.523C398.759 123.976 403.176 128.396 408.624 128.396Z" fill="#5034C2"/>
<path d="M350.937 384.17C415.465 384.17 467.776 331.815 467.776 267.233C467.776 202.65 415.465 150.296 350.937 150.296C286.409 150.296 234.098 202.65 234.098 267.233C234.098 331.815 286.409 384.17 350.937 384.17Z" stroke="#6A45FF" stroke-width="8"/>
<path d="M299.17 381.938C304.618 381.938 309.035 377.517 309.035 372.064C309.035 366.612 304.618 362.191 299.17 362.191C293.721 362.191 289.305 366.612 289.305 372.064C289.305 377.517 293.721 381.938 299.17 381.938Z" fill="#6A45FF"/>
<path d="M275.828 187.536C281.277 187.536 285.694 183.116 285.694 177.663C285.694 172.21 281.277 167.789 275.828 167.789C270.38 167.789 265.963 172.21 265.963 177.663C265.963 183.116 270.38 187.536 275.828 187.536Z" fill="#6A45FF"/>
<rect x="39.5128" y="216.803" width="623.974" height="101.394" fill="#0F0A25"/>
<path d="M60.7555 244.403V237.712H108.476V244.403H88.5875V297.429H80.6487V244.403H60.7599H60.7555Z" fill="#5034C2"/>
<path d="M114.322 237.708V260.541H114.489C115.043 259.202 115.826 258.071 116.829 257.151C117.831 256.231 118.962 255.478 120.215 254.893C121.469 254.307 122.779 253.876 124.143 253.599C125.506 253.321 126.83 253.181 128.114 253.181C130.956 253.181 133.322 253.572 135.218 254.351C137.113 255.135 138.644 256.222 139.814 257.613C140.984 259.009 141.806 260.664 142.281 262.592C142.752 264.515 142.989 266.65 142.989 268.992V297.429H135.886V268.156C135.886 265.48 135.103 263.362 133.546 261.799C131.985 260.241 129.838 259.458 127.112 259.458C124.939 259.458 123.056 259.792 121.469 260.461C119.881 261.13 118.557 262.081 117.497 263.305C116.437 264.533 115.645 265.968 115.113 267.614C114.581 269.261 114.322 271.057 114.322 273.011V297.433H107.218V237.712H114.322V237.708Z" fill="#5034C2"/>
<path d="M182.6 294.669C179.367 297.125 175.299 298.349 170.399 298.349C166.942 298.349 163.951 297.79 161.413 296.676C158.876 295.562 156.747 294 155.018 291.992C153.29 289.985 151.997 287.586 151.13 284.8C150.268 282.013 149.78 278.971 149.67 275.683C149.67 272.395 150.172 269.384 151.174 266.65C152.177 263.921 153.585 261.549 155.397 259.541C157.204 257.534 159.351 255.971 161.831 254.858C164.307 253.744 167.026 253.185 169.981 253.185C173.825 253.185 177.014 253.982 179.552 255.571C182.085 257.16 184.121 259.18 185.652 261.637C187.183 264.093 188.243 266.769 188.828 269.666C189.413 272.567 189.65 275.327 189.536 277.946H157.195C157.138 279.843 157.363 281.639 157.864 283.342C158.365 285.046 159.175 286.547 160.287 287.859C161.4 289.171 162.821 290.214 164.549 290.997C166.273 291.781 168.31 292.168 170.65 292.168C173.658 292.168 176.125 291.473 178.047 290.077C179.97 288.682 181.236 286.565 181.852 283.721H188.872C187.922 288.572 185.832 292.226 182.604 294.677L182.6 294.669ZM180.884 266.901C180.242 265.396 179.38 264.097 178.294 263.01C177.207 261.923 175.923 261.06 174.45 260.417C172.972 259.779 171.345 259.453 169.559 259.453C167.773 259.453 166.062 259.775 164.585 260.417C163.107 261.06 161.84 261.936 160.78 263.054C159.72 264.172 158.884 265.466 158.273 266.945C157.657 268.424 157.297 270 157.187 271.673H182.006C181.892 270 181.518 268.411 180.876 266.906L180.884 266.901Z" fill="#5034C2"/>
<path d="M236.5 236.286C240.955 236.286 244.953 237.122 248.494 238.795C252.03 240.468 255.025 242.726 257.479 245.57C259.929 248.413 261.812 251.732 263.122 255.522C264.428 259.317 265.084 263.331 265.084 267.566C265.084 271.801 264.428 275.903 263.122 279.693C261.812 283.488 259.933 286.802 257.479 289.646C255.025 292.49 252.034 294.735 248.494 296.381C244.953 298.023 240.96 298.846 236.5 298.846C232.04 298.846 228.046 298.023 224.506 296.381C220.965 294.739 217.974 292.49 215.52 289.646C213.066 286.802 211.188 283.483 209.877 279.693C208.567 275.903 207.911 271.858 207.911 267.566C207.911 263.274 208.567 259.312 209.877 255.522C211.184 251.732 213.066 248.413 215.52 245.57C217.97 242.726 220.965 240.468 224.506 238.795C228.042 237.122 232.04 236.286 236.5 236.286ZM236.5 244.817C233.324 244.817 230.58 245.46 228.266 246.741C225.953 248.026 224.075 249.738 222.623 251.886C221.172 254.035 220.103 256.473 219.404 259.207C218.704 261.94 218.357 264.727 218.357 267.57C218.357 270.414 218.704 273.205 219.404 275.934C220.099 278.668 221.172 281.106 222.623 283.254C224.07 285.403 225.953 287.115 228.266 288.396C230.575 289.681 233.324 290.32 236.5 290.32C239.675 290.32 242.42 289.681 244.733 288.396C247.042 287.115 248.925 285.398 250.376 283.254C251.823 281.106 252.896 278.668 253.596 275.934C254.291 273.205 254.642 270.414 254.642 267.57C254.642 264.727 254.295 261.94 253.596 259.207C252.896 256.473 251.828 254.035 250.376 251.886C248.929 249.743 247.047 248.026 244.733 246.741C242.42 245.46 239.675 244.817 236.5 244.817Z" fill="#8F85FF"/>
<path d="M271.598 254.189H280.539V262.552H280.707C280.984 261.381 281.529 260.241 282.338 259.123C283.143 258.009 284.12 256.988 285.263 256.073C286.407 255.153 287.673 254.413 289.068 253.854C290.457 253.299 291.878 253.018 293.33 253.018C294.442 253.018 295.208 253.048 295.625 253.101C296.043 253.159 296.474 253.216 296.923 253.269V262.469C296.254 262.359 295.573 262.257 294.873 262.174C294.174 262.09 293.492 262.05 292.824 262.05C291.205 262.05 289.688 262.372 288.267 263.014C286.847 263.657 285.606 264.604 284.546 265.858C283.486 267.113 282.651 268.662 282.039 270.498C281.424 272.338 281.12 274.459 281.12 276.854V297.429H271.593V254.189H271.598Z" fill="#8F85FF"/>
<path d="M301.268 237.708H310.795V259.788H310.962C311.631 258.731 312.435 257.781 313.385 256.944C314.331 256.108 315.378 255.395 316.521 254.809C317.661 254.224 318.861 253.779 320.115 253.471C321.368 253.167 322.609 253.009 323.836 253.009C327.231 253.009 330.2 253.608 332.738 254.805C335.271 256.007 337.373 257.649 339.049 259.739C340.72 261.83 341.974 264.269 342.81 267.06C343.645 269.851 344.063 272.831 344.063 276.009C344.063 278.91 343.685 281.727 342.933 284.456C342.181 287.19 341.037 289.602 339.507 291.693C337.976 293.784 336.041 295.457 333.696 296.711C331.357 297.966 328.599 298.595 325.423 298.595C323.972 298.595 322.512 298.498 321.034 298.305C319.556 298.107 318.153 297.732 316.812 297.173C315.475 296.619 314.265 295.892 313.179 294.999C312.092 294.105 311.186 292.934 310.461 291.486H310.294V297.424H301.268V237.703V237.708ZM334.528 275.846C334.528 273.896 334.277 271.999 333.776 270.159C333.274 268.319 332.522 266.69 331.519 265.264C330.517 263.838 329.263 262.698 327.759 261.835C326.255 260.972 324.526 260.536 322.578 260.536C318.567 260.536 315.545 261.932 313.509 264.718C311.472 267.509 310.456 271.215 310.456 275.842C310.456 278.016 310.72 280.037 311.252 281.903C311.78 283.774 312.576 285.376 313.632 286.714C314.687 288.053 315.958 289.113 317.436 289.893C318.91 290.676 320.625 291.063 322.578 291.063C324.75 291.063 326.589 290.619 328.093 289.725C329.597 288.832 330.838 287.674 331.814 286.252C332.786 284.83 333.485 283.215 333.903 281.401C334.321 279.592 334.528 277.734 334.528 275.837V275.846Z" fill="#8F85FF"/>
<path d="M350.656 237.708H360.183V246.741H350.656V237.708ZM350.656 254.184H360.183V297.424H350.656V254.184Z" fill="#8F85FF"/>
<path d="M366.199 254.189H373.386V241.225H382.913V254.189H391.52V261.298H382.913V284.381C382.913 285.385 382.952 286.252 383.036 286.974C383.119 287.7 383.313 288.312 383.621 288.814C383.924 289.316 384.386 289.694 385.002 289.945C385.613 290.196 386.449 290.32 387.509 290.32C388.177 290.32 388.846 290.306 389.514 290.28C390.183 290.253 390.851 290.157 391.52 289.989V297.349C390.46 297.459 389.431 297.574 388.428 297.684C387.425 297.794 386.396 297.851 385.336 297.851C382.829 297.851 380.81 297.614 379.275 297.143C377.74 296.672 376.544 295.972 375.682 295.052C374.82 294.132 374.235 292.974 373.927 291.578C373.619 290.187 373.439 288.598 373.382 286.811V261.302H366.195V254.193L366.199 254.189Z" fill="#8F85FF"/>
<path d="M434.139 237.708L448.094 278.773H448.261L461.465 237.708H479.933V297.429H467.649V255.109H467.482L452.858 297.429H442.746L428.122 255.527H427.955V297.429H415.671V237.708H434.139Z" fill="#F0F4F8"/>
<path d="M487.125 266.439C488.18 263.626 489.689 261.227 491.637 259.246C493.586 257.266 495.926 255.734 498.657 254.646C501.384 253.559 504.449 253.013 507.849 253.013C511.249 253.013 514.328 253.559 517.085 254.646C519.843 255.734 522.196 257.27 524.149 259.246C526.097 261.227 527.602 263.626 528.662 266.439C529.717 269.256 530.249 272.391 530.249 275.85C530.249 279.31 529.717 282.431 528.662 285.218C527.602 288.009 526.097 290.39 524.149 292.371C522.196 294.352 519.843 295.87 517.085 296.931C514.328 297.988 511.249 298.52 507.849 298.52C504.449 298.52 501.384 297.988 498.657 296.931C495.926 295.87 493.586 294.352 491.637 292.371C489.684 290.394 488.18 288.009 487.125 285.218C486.065 282.431 485.537 279.306 485.537 275.85C485.537 272.395 486.065 269.256 487.125 266.439ZM497.905 280.908C498.239 282.555 498.811 284.034 499.62 285.341C500.425 286.653 501.498 287.696 502.84 288.48C504.177 289.263 505.848 289.651 507.854 289.651C509.859 289.651 511.544 289.263 512.912 288.48C514.275 287.7 515.361 286.653 516.171 285.341C516.98 284.029 517.552 282.555 517.886 280.908C518.22 279.266 518.387 277.576 518.387 275.85C518.387 274.125 518.22 272.421 517.886 270.749C517.552 269.076 516.98 267.597 516.171 266.316C515.361 265.035 514.275 263.987 512.912 263.177C511.544 262.372 509.859 261.967 507.854 261.967C505.848 261.967 504.177 262.372 502.84 263.177C501.503 263.987 500.429 265.031 499.62 266.316C498.811 267.601 498.239 269.076 497.905 270.749C497.57 272.421 497.403 274.121 497.403 275.85C497.403 277.58 497.57 279.266 497.905 280.908Z" fill="#F0F4F8"/>
<path d="M566.935 291.909C565.54 294.25 563.715 295.936 561.459 296.971C559.203 298.001 556.652 298.516 553.81 298.516C550.578 298.516 547.736 297.886 545.287 296.632C542.832 295.377 540.814 293.678 539.226 291.53C537.638 289.386 536.437 286.917 535.632 284.126C534.823 281.34 534.423 278.439 534.423 275.428C534.423 272.417 534.828 269.727 535.632 267.02C536.442 264.317 537.638 261.932 539.226 259.867C540.814 257.807 542.806 256.143 545.203 254.888C547.596 253.634 550.384 253.009 553.56 253.009C556.124 253.009 558.56 253.555 560.874 254.642C563.187 255.729 565.013 257.332 566.35 259.453H566.517V237.708H578.383V297.429H567.102V291.909H566.935ZM566.433 270.537C566.099 268.891 565.527 267.443 564.718 266.188C563.909 264.934 562.866 263.917 561.586 263.133C560.302 262.354 558.688 261.962 556.74 261.962C554.791 261.962 553.146 262.354 551.809 263.133C550.472 263.917 549.399 264.947 548.59 266.228C547.78 267.513 547.195 268.975 546.835 270.621C546.47 272.267 546.289 273.98 546.289 275.762C546.289 277.435 546.483 279.108 546.874 280.781C547.261 282.453 547.89 283.946 548.752 285.257C549.614 286.569 550.701 287.63 552.011 288.435C553.322 289.245 554.897 289.65 556.735 289.65C558.684 289.65 560.315 289.263 561.626 288.479C562.932 287.7 563.979 286.653 564.762 285.341C565.54 284.029 566.099 282.537 566.433 280.864C566.767 279.191 566.935 277.466 566.935 275.679C566.935 273.892 566.767 272.179 566.433 270.537Z" fill="#F0F4F8"/>
<path d="M598.355 287.058C600.137 288.788 602.701 289.65 606.043 289.65C608.44 289.65 610.499 289.052 612.227 287.85C613.951 286.653 615.011 285.385 615.403 284.042H625.849C624.177 289.228 621.613 292.939 618.161 295.166C614.704 297.398 610.525 298.512 605.626 298.512C602.226 298.512 599.16 297.97 596.433 296.878C593.702 295.791 591.389 294.246 589.497 292.239C587.602 290.232 586.141 287.832 585.108 285.046C584.074 282.26 583.56 279.192 583.56 275.846C583.56 272.501 584.087 269.6 585.147 266.813C586.203 264.027 587.707 261.615 589.66 259.577C591.608 257.543 593.935 255.936 596.64 254.765C599.341 253.594 602.336 253.009 605.626 253.009C609.303 253.009 612.504 253.718 615.236 255.144C617.963 256.566 620.21 258.476 621.965 260.875C623.72 263.274 624.987 266.008 625.77 269.072C626.548 272.14 626.825 275.344 626.605 278.69H595.435C595.602 282.537 596.574 285.328 598.36 287.053L598.355 287.058ZM611.77 264.309C610.349 262.75 608.19 261.967 605.291 261.967C603.396 261.967 601.821 262.288 600.568 262.931C599.314 263.574 598.311 264.366 597.559 265.312C596.807 266.263 596.275 267.267 595.972 268.323C595.664 269.384 595.483 270.33 595.426 271.167H614.73C614.171 268.156 613.182 265.871 611.761 264.309H611.77Z" fill="#F0F4F8"/>
<path d="M644.15 237.708V297.429H632.283V237.708H644.15Z" fill="#F0F4F8"/>
</svg>
